<svg xmlns="http://www.w3.org/2000/svg" xmlns:xlink="http://www.w3.org/1999/xlink" width="609" zoomAndPan="magnify" viewBox="0 0 456.75 176.249993" height="235" preserveAspectRatio="xMidYMid meet" version="1.0"><defs><filter x="0%" y="0%" width="100%" height="100%" id="2697593d0f"><feColorMatrix values="0 0 0 0 1 0 0 0 0 1 0 0 0 0 1 0 0 0 1 0" color-interpolation-filters="sRGB"/></filter><g/><clipPath id="fb195c0925"><path d="M 221.992188 22.5625 L 446.039062 22.5625 L 446.039062 77.828125 L 221.992188 77.828125 Z M 221.992188 22.5625 " clip-rule="nonzero"/></clipPath><clipPath id="350e07cf72"><path d="M 248.878906 22.5625 L 419.4375 22.5625 C 434.285156 22.5625 446.320312 34.597656 446.320312 49.445312 L 446.320312 51.1875 C 446.320312 66.035156 434.285156 78.070312 419.4375 78.070312 L 248.878906 78.070312 C 234.03125 78.070312 221.992188 66.035156 221.992188 51.1875 L 221.992188 49.445312 C 221.992188 34.597656 234.03125 22.5625 248.878906 22.5625 Z M 248.878906 22.5625 " clip-rule="nonzero"/></clipPath><clipPath id="ec2ca9d0bd"><path d="M 11.714844 97.132812 L 140.757812 97.132812 L 140.757812 152.394531 L 11.714844 152.394531 Z M 11.714844 97.132812 " clip-rule="nonzero"/></clipPath><clipPath id="a091821acc"><path d="M 38.597656 97.132812 L 113.785156 97.132812 C 128.632812 97.132812 140.667969 109.167969 140.667969 124.015625 L 140.667969 125.757812 C 140.667969 140.605469 128.632812 152.640625 113.785156 152.640625 L 38.597656 152.640625 C 23.75 152.640625 11.714844 140.605469 11.714844 125.757812 L 11.714844 124.015625 C 11.714844 109.167969 23.75 97.132812 38.597656 97.132812 Z M 38.597656 97.132812 " clip-rule="nonzero"/></clipPath><clipPath id="45a9fe9262"><path d="M 152.152344 97.132812 L 446.394531 97.132812 L 446.394531 152.394531 L 152.152344 152.394531 Z M 152.152344 97.132812 " clip-rule="nonzero"/></clipPath><clipPath id="f0c69705f2"><path d="M 179.039062 97.132812 L 419.4375 97.132812 C 434.285156 97.132812 446.320312 109.167969 446.320312 124.015625 L 446.320312 125.757812 C 446.320312 140.605469 434.285156 152.640625 419.4375 152.640625 L 179.039062 152.640625 C 164.191406 152.640625 152.152344 140.605469 152.152344 125.757812 L 152.152344 124.015625 C 152.152344 109.167969 164.191406 97.132812 179.039062 97.132812 Z M 179.039062 97.132812 " clip-rule="nonzero"/></clipPath><clipPath id="306156efe3"><path d="M 430.414062 134.246094 L 452 134.246094 L 452 170.839844 L 430.414062 170.839844 Z M 430.414062 134.246094 " clip-rule="nonzero"/></clipPath><clipPath id="433732726f"><path d="M 430.414062 134.246094 L 452 134.246094 L 452 170.839844 L 430.414062 170.839844 Z M 430.414062 134.246094 " clip-rule="nonzero"/></clipPath><mask id="d05ca16e2c"><g filter="url(#2697593d0f)"><rect x="-45.675" width="548.1" fill="#000000" y="-17.624999" height="211.499992" fill-opacity="0.3"/></g></mask><clipPath id="5068a2a7c4"><path d="M 0.492188 0.699219 L 14.828125 0.699219 L 14.828125 33.917969 L 0.492188 33.917969 Z M 0.492188 0.699219 " clip-rule="nonzero"/></clipPath><clipPath id="908838c3c1"><rect x="0" width="15" y="0" height="34"/></clipPath><clipPath id="0a8e97ff87"><path d="M 11.71875 22.5625 L 203.648438 22.5625 L 203.648438 77.828125 L 11.71875 77.828125 Z M 11.71875 22.5625 " clip-rule="nonzero"/></clipPath><clipPath id="eac32dfb34"><path d="M 38.601562 22.5625 L 176.6875 22.5625 C 191.539062 22.5625 203.574219 34.597656 203.574219 49.445312 L 203.574219 51.1875 C 203.574219 66.035156 191.539062 78.070312 176.6875 78.070312 L 38.601562 78.070312 C 23.753906 78.070312 11.71875 66.035156 11.71875 51.1875 L 11.71875 49.445312 C 11.71875 34.597656 23.753906 22.5625 38.601562 22.5625 Z M 38.601562 22.5625 " clip-rule="nonzero"/></clipPath></defs><g fill="#1a2056" fill-opacity="1"><g transform="translate(237.065426, 65.627759)"><g><path d="M 13.515625 -31.09375 C 16.828125 -31.09375 19.726562 -30.457031 22.21875 -29.1875 C 24.707031 -27.925781 26.628906 -26.109375 27.984375 -23.734375 C 29.347656 -21.367188 30.03125 -18.601562 30.03125 -15.4375 C 30.03125 -12.269531 29.347656 -9.523438 27.984375 -7.203125 C 26.628906 -4.878906 24.707031 -3.097656 22.21875 -1.859375 C 19.726562 -0.617188 16.828125 0 13.515625 0 L 3.359375 0 L 3.359375 -31.09375 Z M 13.515625 -4.15625 C 17.148438 -4.15625 19.9375 -5.140625 21.875 -7.109375 C 23.820312 -9.078125 24.796875 -11.851562 24.796875 -15.4375 C 24.796875 -19.050781 23.820312 -21.867188 21.875 -23.890625 C 19.9375 -25.921875 17.148438 -26.9375 13.515625 -26.9375 L 8.453125 -26.9375 L 8.453125 -4.15625 Z M 13.515625 -4.15625 "/></g></g></g><g fill="#1a2056" fill-opacity="1"><g transform="translate(268.78509, 65.627759)"><g><path d="M 25.953125 -12.9375 C 25.953125 -12.007812 25.894531 -11.171875 25.78125 -10.421875 L 6.9375 -10.421875 C 7.082031 -8.453125 7.8125 -6.867188 9.125 -5.671875 C 10.4375 -4.484375 12.050781 -3.890625 13.96875 -3.890625 C 16.707031 -3.890625 18.644531 -5.039062 19.78125 -7.34375 L 25.28125 -7.34375 C 24.539062 -5.070312 23.191406 -3.210938 21.234375 -1.765625 C 19.273438 -0.316406 16.851562 0.40625 13.96875 0.40625 C 11.601562 0.40625 9.488281 -0.125 7.625 -1.1875 C 5.757812 -2.25 4.296875 -3.738281 3.234375 -5.65625 C 2.179688 -7.582031 1.65625 -9.8125 1.65625 -12.34375 C 1.65625 -14.882812 2.171875 -17.113281 3.203125 -19.03125 C 4.234375 -20.957031 5.679688 -22.441406 7.546875 -23.484375 C 9.410156 -24.535156 11.550781 -25.0625 13.96875 -25.0625 C 16.289062 -25.0625 18.359375 -24.550781 20.171875 -23.53125 C 21.992188 -22.519531 23.410156 -21.097656 24.421875 -19.265625 C 25.441406 -17.429688 25.953125 -15.320312 25.953125 -12.9375 Z M 20.625 -14.546875 C 20.59375 -16.421875 19.921875 -17.925781 18.609375 -19.0625 C 17.296875 -20.195312 15.671875 -20.765625 13.734375 -20.765625 C 11.972656 -20.765625 10.46875 -20.203125 9.21875 -19.078125 C 7.96875 -17.960938 7.222656 -16.453125 6.984375 -14.546875 Z M 20.625 -14.546875 "/></g></g></g><g fill="#1a2056" fill-opacity="1"><g transform="translate(296.388807, 65.627759)"><g><path d="M 12.890625 -4.5625 L 19.875 -24.65625 L 25.28125 -24.65625 L 15.890625 0 L 9.796875 0 L 0.453125 -24.65625 L 5.90625 -24.65625 Z M 12.890625 -4.5625 "/></g></g></g><g fill="#1a2056" fill-opacity="1"><g transform="translate(322.15824, 65.627759)"><g><path d="M 25.953125 -12.9375 C 25.953125 -12.007812 25.894531 -11.171875 25.78125 -10.421875 L 6.9375 -10.421875 C 7.082031 -8.453125 7.8125 -6.867188 9.125 -5.671875 C 10.4375 -4.484375 12.050781 -3.890625 13.96875 -3.890625 C 16.707031 -3.890625 18.644531 -5.039062 19.78125 -7.34375 L 25.28125 -7.34375 C 24.539062 -5.070312 23.191406 -3.210938 21.234375 -1.765625 C 19.273438 -0.316406 16.851562 0.40625 13.96875 0.40625 C 11.601562 0.40625 9.488281 -0.125 7.625 -1.1875 C 5.757812 -2.25 4.296875 -3.738281 3.234375 -5.65625 C 2.179688 -7.582031 1.65625 -9.8125 1.65625 -12.34375 C 1.65625 -14.882812 2.171875 -17.113281 3.203125 -19.03125 C 4.234375 -20.957031 5.679688 -22.441406 7.546875 -23.484375 C 9.410156 -24.535156 11.550781 -25.0625 13.96875 -25.0625 C 16.289062 -25.0625 18.359375 -24.550781 20.171875 -23.53125 C 21.992188 -22.519531 23.410156 -21.097656 24.421875 -19.265625 C 25.441406 -17.429688 25.953125 -15.320312 25.953125 -12.9375 Z M 20.625 -14.546875 C 20.59375 -16.421875 19.921875 -17.925781 18.609375 -19.0625 C 17.296875 -20.195312 15.671875 -20.765625 13.734375 -20.765625 C 11.972656 -20.765625 10.46875 -20.203125 9.21875 -19.078125 C 7.96875 -17.960938 7.222656 -16.453125 6.984375 -14.546875 Z M 20.625 -14.546875 "/></g></g></g><g fill="#1a2056" fill-opacity="1"><g transform="translate(349.761956, 65.627759)"><g><path d="M 8.453125 -33.109375 L 8.453125 0 L 3.359375 0 L 3.359375 -33.109375 Z M 8.453125 -33.109375 "/></g></g></g><g fill="#1a2056" fill-opacity="1"><g transform="translate(361.572942, 65.627759)"><g><path d="M 14.046875 0.40625 C 11.722656 0.40625 9.617188 -0.125 7.734375 -1.1875 C 5.859375 -2.25 4.382812 -3.738281 3.3125 -5.65625 C 2.238281 -7.582031 1.703125 -9.8125 1.703125 -12.34375 C 1.703125 -14.851562 2.253906 -17.078125 3.359375 -19.015625 C 4.460938 -20.953125 5.96875 -22.441406 7.875 -23.484375 C 9.78125 -24.535156 11.914062 -25.0625 14.28125 -25.0625 C 16.632812 -25.0625 18.765625 -24.535156 20.671875 -23.484375 C 22.578125 -22.441406 24.082031 -20.953125 25.1875 -19.015625 C 26.289062 -17.078125 26.84375 -14.851562 26.84375 -12.34375 C 26.84375 -9.84375 26.273438 -7.625 25.140625 -5.6875 C 24.015625 -3.75 22.472656 -2.25 20.515625 -1.1875 C 18.566406 -0.125 16.410156 0.40625 14.046875 0.40625 Z M 14.046875 -4.03125 C 15.359375 -4.03125 16.585938 -4.34375 17.734375 -4.96875 C 18.890625 -5.59375 19.820312 -6.53125 20.53125 -7.78125 C 21.25 -9.039062 21.609375 -10.5625 21.609375 -12.34375 C 21.609375 -14.132812 21.265625 -15.648438 20.578125 -16.890625 C 19.898438 -18.128906 18.992188 -19.0625 17.859375 -19.6875 C 16.722656 -20.3125 15.5 -20.625 14.1875 -20.625 C 12.875 -20.625 11.65625 -20.3125 10.53125 -19.6875 C 9.414062 -19.0625 8.53125 -18.128906 7.875 -16.890625 C 7.21875 -15.648438 6.890625 -14.132812 6.890625 -12.34375 C 6.890625 -9.695312 7.566406 -7.648438 8.921875 -6.203125 C 10.285156 -4.753906 11.992188 -4.03125 14.046875 -4.03125 Z M 14.046875 -4.03125 "/></g></g></g><g fill="#1a2056" fill-opacity="1"><g transform="translate(390.11617, 65.627759)"><g><path d="M 8.453125 -21.03125 C 9.316406 -22.164062 10.492188 -23.117188 11.984375 -23.890625 C 13.484375 -24.671875 15.171875 -25.0625 17.046875 -25.0625 C 19.191406 -25.0625 21.148438 -24.53125 22.921875 -23.46875 C 24.703125 -22.40625 26.097656 -20.921875 27.109375 -19.015625 C 28.128906 -17.109375 28.640625 -14.914062 28.640625 -12.4375 C 28.640625 -9.957031 28.128906 -7.738281 27.109375 -5.78125 C 26.097656 -3.832031 24.703125 -2.3125 22.921875 -1.21875 C 21.148438 -0.132812 19.191406 0.40625 17.046875 0.40625 C 15.171875 0.40625 13.5 0.0234375 12.03125 -0.734375 C 10.570312 -1.492188 9.378906 -2.441406 8.453125 -3.578125 L 8.453125 11.71875 L 3.359375 11.71875 L 3.359375 -24.65625 L 8.453125 -24.65625 Z M 23.453125 -12.4375 C 23.453125 -14.132812 23.097656 -15.601562 22.390625 -16.84375 C 21.691406 -18.082031 20.769531 -19.019531 19.625 -19.65625 C 18.476562 -20.300781 17.25 -20.625 15.9375 -20.625 C 14.644531 -20.625 13.425781 -20.296875 12.28125 -19.640625 C 11.132812 -18.984375 10.207031 -18.03125 9.5 -16.78125 C 8.800781 -15.53125 8.453125 -14.050781 8.453125 -12.34375 C 8.453125 -10.644531 8.800781 -9.160156 9.5 -7.890625 C 10.207031 -6.628906 11.132812 -5.671875 12.28125 -5.015625 C 13.425781 -4.359375 14.644531 -4.03125 15.9375 -4.03125 C 17.25 -4.03125 18.476562 -4.363281 19.625 -5.03125 C 20.769531 -5.707031 21.691406 -6.6875 22.390625 -7.96875 C 23.097656 -9.25 23.453125 -10.738281 23.453125 -12.4375 Z M 23.453125 -12.4375 "/></g></g></g><g fill="#1a2056" fill-opacity="1"><g transform="translate(420.448943, 65.627759)"><g><path d="M 5.421875 0.3125 C 4.492188 0.3125 3.710938 0 3.078125 -0.625 C 2.453125 -1.25 2.140625 -2.023438 2.140625 -2.953125 C 2.140625 -3.878906 2.453125 -4.65625 3.078125 -5.28125 C 3.710938 -5.90625 4.492188 -6.21875 5.421875 -6.21875 C 6.304688 -6.21875 7.0625 -5.90625 7.6875 -5.28125 C 8.320312 -4.65625 8.640625 -3.878906 8.640625 -2.953125 C 8.640625 -2.023438 8.320312 -1.25 7.6875 -0.625 C 7.0625 0 6.304688 0.3125 5.421875 0.3125 Z M 5.421875 0.3125 "/></g></g></g><g clip-path="url(#fb195c0925)"><g clip-path="url(#350e07cf72)"><path stroke-linecap="butt" transform="matrix(0.746822, 0, 0, 0.746822, 221.993947, 22.562128)" fill="none" stroke-linejoin="miter" d="M 35.999154 0.000497816 L 264.37834 0.000497816 C 284.259458 0.000497816 300.374619 16.115659 300.374619 35.996777 L 300.374619 38.329579 C 300.374619 58.210698 284.259458 74.325858 264.37834 74.325858 L 35.999154 74.325858 C 16.118036 74.325858 -0.00235574 58.210698 -0.00235574 38.329579 L -0.00235574 35.996777 C -0.00235574 16.115659 16.118036 0.000497816 35.999154 0.000497816 Z M 35.999154 0.000497816 " stroke="#2f3288" stroke-width="4" stroke-opacity="1" stroke-miterlimit="4"/></g></g><g fill="#1a2056" fill-opacity="1"><g transform="translate(30.241308, 140.196945)"><g><path d="M 21.65625 -31.09375 L 21.65625 -26.9375 L 8.453125 -26.9375 L 8.453125 -17.765625 L 18.75 -17.765625 L 18.75 -13.609375 L 8.453125 -13.609375 L 8.453125 0 L 3.359375 0 L 3.359375 -31.09375 Z M 21.65625 -31.09375 "/></g></g></g><g fill="#1a2056" fill-opacity="1"><g transform="translate(53.281684, 140.196945)"><g><path d="M 25.6875 -24.65625 L 25.6875 0 L 20.578125 0 L 20.578125 -2.90625 C 19.773438 -1.894531 18.722656 -1.097656 17.421875 -0.515625 C 16.128906 0.0664062 14.753906 0.359375 13.296875 0.359375 C 11.347656 0.359375 9.601562 -0.0390625 8.0625 -0.84375 C 6.53125 -1.65625 5.320312 -2.847656 4.4375 -4.421875 C 3.5625 -6.003906 3.125 -7.914062 3.125 -10.15625 L 3.125 -24.65625 L 8.1875 -24.65625 L 8.1875 -10.921875 C 8.1875 -8.710938 8.738281 -7.019531 9.84375 -5.84375 C 10.945312 -4.664062 12.453125 -4.078125 14.359375 -4.078125 C 16.273438 -4.078125 17.789062 -4.664062 18.90625 -5.84375 C 20.019531 -7.019531 20.578125 -8.710938 20.578125 -10.921875 L 20.578125 -24.65625 Z M 25.6875 -24.65625 "/></g></g></g><g fill="#1a2056" fill-opacity="1"><g transform="translate(82.31703, 140.196945)"><g><path d="M 15.796875 -25.0625 C 17.734375 -25.0625 19.46875 -24.65625 21 -23.84375 C 22.539062 -23.039062 23.742188 -21.847656 24.609375 -20.265625 C 25.472656 -18.691406 25.90625 -16.785156 25.90625 -14.546875 L 25.90625 0 L 20.859375 0 L 20.859375 -13.78125 C 20.859375 -15.988281 20.304688 -17.679688 19.203125 -18.859375 C 18.097656 -20.035156 16.585938 -20.625 14.671875 -20.625 C 12.765625 -20.625 11.25 -20.035156 10.125 -18.859375 C 9.007812 -17.679688 8.453125 -15.988281 8.453125 -13.78125 L 8.453125 0 L 3.359375 0 L 3.359375 -24.65625 L 8.453125 -24.65625 L 8.453125 -21.84375 C 9.285156 -22.851562 10.351562 -23.640625 11.65625 -24.203125 C 12.957031 -24.773438 14.335938 -25.0625 15.796875 -25.0625 Z M 15.796875 -25.0625 "/></g></g></g><g fill="#1a2056" fill-opacity="1"><g transform="translate(111.352376, 140.196945)"><g><path d="M 5.421875 0.3125 C 4.492188 0.3125 3.710938 0 3.078125 -0.625 C 2.453125 -1.25 2.140625 -2.023438 2.140625 -2.953125 C 2.140625 -3.878906 2.453125 -4.65625 3.078125 -5.28125 C 3.710938 -5.90625 4.492188 -6.21875 5.421875 -6.21875 C 6.304688 -6.21875 7.0625 -5.90625 7.6875 -5.28125 C 8.320312 -4.65625 8.640625 -3.878906 8.640625 -2.953125 C 8.640625 -2.023438 8.320312 -1.25 7.6875 -0.625 C 7.0625 0 6.304688 0.3125 5.421875 0.3125 Z M 5.421875 0.3125 "/></g></g></g><g clip-path="url(#ec2ca9d0bd)"><g clip-path="url(#a091821acc)"><path stroke-linecap="butt" transform="matrix(0.746822, 0, 0, 0.746822, 11.713869, 97.131623)" fill="none" stroke-linejoin="miter" d="M 35.997585 0.00159301 L 136.674189 0.00159301 C 156.555308 0.00159301 172.670469 16.116754 172.670469 35.997873 L 172.670469 38.330674 C 172.670469 58.211793 156.555308 74.326954 136.674189 74.326954 L 35.997585 74.326954 C 16.116467 74.326954 0.00130562 58.211793 0.00130562 38.330674 L 0.00130562 35.997873 C 0.00130562 16.116754 16.116467 0.00159301 35.997585 0.00159301 Z M 35.997585 0.00159301 " stroke="#2f3288" stroke-width="4" stroke-opacity="1" stroke-miterlimit="4"/></g></g><g fill="#1a2056" fill-opacity="1"><g transform="translate(171.946371, 140.196945)"><g><path d="M 8.453125 -26.984375 L 8.453125 -17.859375 L 19.203125 -17.859375 L 19.203125 -13.6875 L 8.453125 -13.6875 L 8.453125 -4.15625 L 20.546875 -4.15625 L 20.546875 0 L 3.359375 0 L 3.359375 -31.140625 L 20.546875 -31.140625 L 20.546875 -26.984375 Z M 8.453125 -26.984375 "/></g></g></g><g fill="#1a2056" fill-opacity="1"><g transform="translate(195.389403, 140.196945)"><g><path d="M 13.921875 -12.484375 L 21.875 0 L 16.109375 0 L 10.78125 -8.375 L 5.765625 0 L 0.453125 0 L 8.40625 -12.125 L 0.453125 -24.65625 L 6.21875 -24.65625 L 11.546875 -16.28125 L 16.5625 -24.65625 L 21.875 -24.65625 Z M 13.921875 -12.484375 "/></g></g></g><g fill="#1a2056" fill-opacity="1"><g transform="translate(217.71396, 140.196945)"><g><path d="M 8.453125 -21.03125 C 9.316406 -22.164062 10.492188 -23.117188 11.984375 -23.890625 C 13.484375 -24.671875 15.171875 -25.0625 17.046875 -25.0625 C 19.191406 -25.0625 21.148438 -24.53125 22.921875 -23.46875 C 24.703125 -22.40625 26.097656 -20.921875 27.109375 -19.015625 C 28.128906 -17.109375 28.640625 -14.914062 28.640625 -12.4375 C 28.640625 -9.957031 28.128906 -7.738281 27.109375 -5.78125 C 26.097656 -3.832031 24.703125 -2.3125 22.921875 -1.21875 C 21.148438 -0.132812 19.191406 0.40625 17.046875 0.40625 C 15.171875 0.40625 13.5 0.0234375 12.03125 -0.734375 C 10.570312 -1.492188 9.378906 -2.441406 8.453125 -3.578125 L 8.453125 11.71875 L 3.359375 11.71875 L 3.359375 -24.65625 L 8.453125 -24.65625 Z M 23.453125 -12.4375 C 23.453125 -14.132812 23.097656 -15.601562 22.390625 -16.84375 C 21.691406 -18.082031 20.769531 -19.019531 19.625 -19.65625 C 18.476562 -20.300781 17.25 -20.625 15.9375 -20.625 C 14.644531 -20.625 13.425781 -20.296875 12.28125 -19.640625 C 11.132812 -18.984375 10.207031 -18.03125 9.5 -16.78125 C 8.800781 -15.53125 8.453125 -14.050781 8.453125 -12.34375 C 8.453125 -10.644531 8.800781 -9.160156 9.5 -7.890625 C 10.207031 -6.628906 11.132812 -5.671875 12.28125 -5.015625 C 13.425781 -4.359375 14.644531 -4.03125 15.9375 -4.03125 C 17.25 -4.03125 18.476562 -4.363281 19.625 -5.03125 C 20.769531 -5.707031 21.691406 -6.6875 22.390625 -7.96875 C 23.097656 -9.25 23.453125 -10.738281 23.453125 -12.4375 Z M 23.453125 -12.4375 "/></g></g></g><g fill="#1a2056" fill-opacity="1"><g transform="translate(248.046733, 140.196945)"><g><path d="M 25.953125 -12.9375 C 25.953125 -12.007812 25.894531 -11.171875 25.78125 -10.421875 L 6.9375 -10.421875 C 7.082031 -8.453125 7.8125 -6.867188 9.125 -5.671875 C 10.4375 -4.484375 12.050781 -3.890625 13.96875 -3.890625 C 16.707031 -3.890625 18.644531 -5.039062 19.78125 -7.34375 L 25.28125 -7.34375 C 24.539062 -5.070312 23.191406 -3.210938 21.234375 -1.765625 C 19.273438 -0.316406 16.851562 0.40625 13.96875 0.40625 C 11.601562 0.40625 9.488281 -0.125 7.625 -1.1875 C 5.757812 -2.25 4.296875 -3.738281 3.234375 -5.65625 C 2.179688 -7.582031 1.65625 -9.8125 1.65625 -12.34375 C 1.65625 -14.882812 2.171875 -17.113281 3.203125 -19.03125 C 4.234375 -20.957031 5.679688 -22.441406 7.546875 -23.484375 C 9.410156 -24.535156 11.550781 -25.0625 13.96875 -25.0625 C 16.289062 -25.0625 18.359375 -24.550781 20.171875 -23.53125 C 21.992188 -22.519531 23.410156 -21.097656 24.421875 -19.265625 C 25.441406 -17.429688 25.953125 -15.320312 25.953125 -12.9375 Z M 20.625 -14.546875 C 20.59375 -16.421875 19.921875 -17.925781 18.609375 -19.0625 C 17.296875 -20.195312 15.671875 -20.765625 13.734375 -20.765625 C 11.972656 -20.765625 10.46875 -20.203125 9.21875 -19.078125 C 7.96875 -17.960938 7.222656 -16.453125 6.984375 -14.546875 Z M 20.625 -14.546875 "/></g></g></g><g fill="#1a2056" fill-opacity="1"><g transform="translate(275.650449, 140.196945)"><g><path d="M 8.453125 -21.078125 C 9.203125 -22.328125 10.195312 -23.300781 11.4375 -24 C 12.675781 -24.707031 14.144531 -25.0625 15.84375 -25.0625 L 15.84375 -19.78125 L 14.546875 -19.78125 C 12.546875 -19.78125 11.03125 -19.269531 10 -18.25 C 8.96875 -17.238281 8.453125 -15.484375 8.453125 -12.984375 L 8.453125 0 L 3.359375 0 L 3.359375 -24.65625 L 8.453125 -24.65625 Z M 8.453125 -21.078125 "/></g></g></g><g fill="#1a2056" fill-opacity="1"><g transform="translate(292.830071, 140.196945)"><g><path d="M 5.953125 -27.921875 C 5.023438 -27.921875 4.25 -28.234375 3.625 -28.859375 C 3 -29.484375 2.6875 -30.257812 2.6875 -31.1875 C 2.6875 -32.113281 3 -32.890625 3.625 -33.515625 C 4.25 -34.140625 5.023438 -34.453125 5.953125 -34.453125 C 6.847656 -34.453125 7.609375 -34.140625 8.234375 -33.515625 C 8.859375 -32.890625 9.171875 -32.113281 9.171875 -31.1875 C 9.171875 -30.257812 8.859375 -29.484375 8.234375 -28.859375 C 7.609375 -28.234375 6.847656 -27.921875 5.953125 -27.921875 Z M 8.453125 -24.65625 L 8.453125 0 L 3.359375 0 L 3.359375 -24.65625 Z M 8.453125 -24.65625 "/></g></g></g><g fill="#1a2056" fill-opacity="1"><g transform="translate(304.641057, 140.196945)"><g><path d="M 25.953125 -12.9375 C 25.953125 -12.007812 25.894531 -11.171875 25.78125 -10.421875 L 6.9375 -10.421875 C 7.082031 -8.453125 7.8125 -6.867188 9.125 -5.671875 C 10.4375 -4.484375 12.050781 -3.890625 13.96875 -3.890625 C 16.707031 -3.890625 18.644531 -5.039062 19.78125 -7.34375 L 25.28125 -7.34375 C 24.539062 -5.070312 23.191406 -3.210938 21.234375 -1.765625 C 19.273438 -0.316406 16.851562 0.40625 13.96875 0.40625 C 11.601562 0.40625 9.488281 -0.125 7.625 -1.1875 C 5.757812 -2.25 4.296875 -3.738281 3.234375 -5.65625 C 2.179688 -7.582031 1.65625 -9.8125 1.65625 -12.34375 C 1.65625 -14.882812 2.171875 -17.113281 3.203125 -19.03125 C 4.234375 -20.957031 5.679688 -22.441406 7.546875 -23.484375 C 9.410156 -24.535156 11.550781 -25.0625 13.96875 -25.0625 C 16.289062 -25.0625 18.359375 -24.550781 20.171875 -23.53125 C 21.992188 -22.519531 23.410156 -21.097656 24.421875 -19.265625 C 25.441406 -17.429688 25.953125 -15.320312 25.953125 -12.9375 Z M 20.625 -14.546875 C 20.59375 -16.421875 19.921875 -17.925781 18.609375 -19.0625 C 17.296875 -20.195312 15.671875 -20.765625 13.734375 -20.765625 C 11.972656 -20.765625 10.46875 -20.203125 9.21875 -19.078125 C 7.96875 -17.960938 7.222656 -16.453125 6.984375 -14.546875 Z M 20.625 -14.546875 "/></g></g></g><g fill="#1a2056" fill-opacity="1"><g transform="translate(332.244774, 140.196945)"><g><path d="M 15.796875 -25.0625 C 17.734375 -25.0625 19.46875 -24.65625 21 -23.84375 C 22.539062 -23.039062 23.742188 -21.847656 24.609375 -20.265625 C 25.472656 -18.691406 25.90625 -16.785156 25.90625 -14.546875 L 25.90625 0 L 20.859375 0 L 20.859375 -13.78125 C 20.859375 -15.988281 20.304688 -17.679688 19.203125 -18.859375 C 18.097656 -20.035156 16.585938 -20.625 14.671875 -20.625 C 12.765625 -20.625 11.25 -20.035156 10.125 -18.859375 C 9.007812 -17.679688 8.453125 -15.988281 8.453125 -13.78125 L 8.453125 0 L 3.359375 0 L 3.359375 -24.65625 L 8.453125 -24.65625 L 8.453125 -21.84375 C 9.285156 -22.851562 10.351562 -23.640625 11.65625 -24.203125 C 12.957031 -24.773438 14.335938 -25.0625 15.796875 -25.0625 Z M 15.796875 -25.0625 "/></g></g></g><g fill="#1a2056" fill-opacity="1"><g transform="translate(361.28012, 140.196945)"><g><path d="M 1.65625 -12.34375 C 1.65625 -14.882812 2.171875 -17.113281 3.203125 -19.03125 C 4.234375 -20.957031 5.65625 -22.441406 7.46875 -23.484375 C 9.289062 -24.535156 11.378906 -25.0625 13.734375 -25.0625 C 16.722656 -25.0625 19.191406 -24.351562 21.140625 -22.9375 C 23.097656 -21.519531 24.421875 -19.5 25.109375 -16.875 L 19.59375 -16.875 C 19.144531 -18.09375 18.425781 -19.046875 17.4375 -19.734375 C 16.457031 -20.421875 15.222656 -20.765625 13.734375 -20.765625 C 11.648438 -20.765625 9.988281 -20.023438 8.75 -18.546875 C 7.507812 -17.066406 6.890625 -15 6.890625 -12.34375 C 6.890625 -9.695312 7.507812 -7.625 8.75 -6.125 C 9.988281 -4.632812 11.648438 -3.890625 13.734375 -3.890625 C 16.691406 -3.890625 18.644531 -5.1875 19.59375 -7.78125 L 25.109375 -7.78125 C 24.390625 -5.28125 23.046875 -3.289062 21.078125 -1.8125 C 19.109375 -0.332031 16.660156 0.40625 13.734375 0.40625 C 11.378906 0.40625 9.289062 -0.125 7.46875 -1.1875 C 5.65625 -2.25 4.234375 -3.738281 3.203125 -5.65625 C 2.171875 -7.582031 1.65625 -9.8125 1.65625 -12.34375 Z M 1.65625 -12.34375 "/></g></g></g><g fill="#1a2056" fill-opacity="1"><g transform="translate(388.123278, 140.196945)"><g><path d="M 25.953125 -12.9375 C 25.953125 -12.007812 25.894531 -11.171875 25.78125 -10.421875 L 6.9375 -10.421875 C 7.082031 -8.453125 7.8125 -6.867188 9.125 -5.671875 C 10.4375 -4.484375 12.050781 -3.890625 13.96875 -3.890625 C 16.707031 -3.890625 18.644531 -5.039062 19.78125 -7.34375 L 25.28125 -7.34375 C 24.539062 -5.070312 23.191406 -3.210938 21.234375 -1.765625 C 19.273438 -0.316406 16.851562 0.40625 13.96875 0.40625 C 11.601562 0.40625 9.488281 -0.125 7.625 -1.1875 C 5.757812 -2.25 4.296875 -3.738281 3.234375 -5.65625 C 2.179688 -7.582031 1.65625 -9.8125 1.65625 -12.34375 C 1.65625 -14.882812 2.171875 -17.113281 3.203125 -19.03125 C 4.234375 -20.957031 5.679688 -22.441406 7.546875 -23.484375 C 9.410156 -24.535156 11.550781 -25.0625 13.96875 -25.0625 C 16.289062 -25.0625 18.359375 -24.550781 20.171875 -23.53125 C 21.992188 -22.519531 23.410156 -21.097656 24.421875 -19.265625 C 25.441406 -17.429688 25.953125 -15.320312 25.953125 -12.9375 Z M 20.625 -14.546875 C 20.59375 -16.421875 19.921875 -17.925781 18.609375 -19.0625 C 17.296875 -20.195312 15.671875 -20.765625 13.734375 -20.765625 C 11.972656 -20.765625 10.46875 -20.203125 9.21875 -19.078125 C 7.96875 -17.960938 7.222656 -16.453125 6.984375 -14.546875 Z M 20.625 -14.546875 "/></g></g></g><g fill="#1a2056" fill-opacity="1"><g transform="translate(415.726994, 140.196945)"><g><path d="M 5.421875 0.3125 C 4.492188 0.3125 3.710938 0 3.078125 -0.625 C 2.453125 -1.25 2.140625 -2.023438 2.140625 -2.953125 C 2.140625 -3.878906 2.453125 -4.65625 3.078125 -5.28125 C 3.710938 -5.90625 4.492188 -6.21875 5.421875 -6.21875 C 6.304688 -6.21875 7.0625 -5.90625 7.6875 -5.28125 C 8.320312 -4.65625 8.640625 -3.878906 8.640625 -2.953125 C 8.640625 -2.023438 8.320312 -1.25 7.6875 -0.625 C 7.0625 0 6.304688 0.3125 5.421875 0.3125 Z M 5.421875 0.3125 "/></g></g></g><g clip-path="url(#45a9fe9262)"><g clip-path="url(#f0c69705f2)"><path stroke-linecap="butt" transform="matrix(0.746822, 0, 0, 0.746822, 152.153051, 97.131307)" fill="none" stroke-linejoin="miter" d="M 36.000561 0.00201541 L 357.895779 0.00201541 C 377.776896 0.00201541 393.892056 16.117175 393.892056 35.998293 L 393.892056 38.331094 C 393.892056 58.212211 377.776896 74.327371 357.895779 74.327371 L 36.000561 74.327371 C 16.119443 74.327371 -0.00094705 58.212211 -0.00094705 38.331094 L -0.00094705 35.998293 C -0.00094705 16.117175 16.119443 0.00201541 36.000561 0.00201541 Z M 36.000561 0.00201541 " stroke="#2f3288" stroke-width="4" stroke-opacity="1" stroke-miterlimit="4"/></g></g><g clip-path="url(#306156efe3)"><path fill="#1a2056" d="M 450.730469 154.542969 L 450.730469 153.273438 L 449.460938 153.273438 L 449.460938 152.007812 L 448.195312 152.007812 L 448.195312 150.738281 L 446.925781 150.738281 L 446.925781 149.46875 L 445.65625 149.46875 L 445.65625 148.199219 L 444.386719 148.199219 L 444.386719 146.929688 L 443.117188 146.929688 L 443.117188 145.664062 L 441.851562 145.664062 L 441.851562 144.394531 L 440.582031 144.394531 L 440.582031 143.125 L 439.3125 143.125 L 439.3125 141.855469 L 438.042969 141.855469 L 438.042969 140.589844 L 436.773438 140.589844 L 436.773438 139.320312 L 435.507812 139.320312 L 435.507812 138.050781 L 434.238281 138.050781 L 434.238281 136.78125 L 432.96875 136.78125 L 432.96875 135.511719 L 431.699219 135.511719 L 431.699219 134.246094 L 430.429688 134.246094 L 430.429688 164.695312 L 432.96875 164.695312 L 432.96875 163.425781 L 434.238281 163.425781 L 434.238281 162.15625 L 435.507812 162.15625 L 435.507812 160.886719 L 436.773438 160.886719 L 436.773438 159.617188 L 438.042969 159.617188 L 438.042969 160.886719 L 439.3125 160.886719 L 439.3125 163.425781 L 440.582031 163.425781 L 440.582031 165.960938 L 441.851562 165.960938 L 441.851562 168.5 L 443.117188 168.5 L 443.117188 171.035156 L 445.65625 171.035156 L 445.65625 169.769531 L 446.925781 169.769531 L 446.925781 168.5 L 448.195312 168.5 L 448.195312 165.960938 L 446.925781 165.960938 L 446.925781 163.425781 L 445.65625 163.425781 L 445.65625 160.886719 L 444.386719 160.886719 L 444.386719 158.351562 L 443.117188 158.351562 L 443.117188 157.082031 L 452 157.082031 L 452 154.542969 Z M 450.730469 154.542969 " fill-opacity="1" fill-rule="nonzero"/></g><path fill="#d1d3d4" d="M 431.699219 136.78125 L 432.96875 136.78125 L 450.730469 154.542969 L 450.730469 155.8125 L 441.851562 155.8125 L 446.925781 165.960938 L 446.925781 169.769531 L 444.386719 169.769531 L 443.117188 168.5 L 439.3125 160.886719 L 438.042969 159.617188 L 436.773438 159.617188 L 432.96875 163.425781 L 431.699219 163.425781 Z M 431.699219 136.78125 " fill-opacity="1" fill-rule="nonzero"/><path fill="#fffcf9" d="M 434.238281 138.050781 L 434.238281 139.320312 L 432.96875 139.320312 L 432.96875 138.050781 Z M 434.238281 139.320312 L 434.238281 140.589844 L 435.507812 140.589844 L 435.507812 139.320312 Z M 435.507812 140.589844 L 435.507812 141.855469 L 436.773438 141.855469 L 436.773438 140.589844 Z M 436.773438 141.855469 L 436.773438 143.125 L 438.042969 143.125 L 438.042969 141.855469 Z M 438.042969 143.125 L 438.042969 144.394531 L 439.3125 144.394531 L 439.3125 143.125 Z M 439.3125 144.394531 L 439.3125 145.664062 L 440.582031 145.664062 L 440.582031 144.394531 Z M 440.582031 145.664062 L 440.582031 146.929688 L 441.851562 146.929688 L 441.851562 145.664062 Z M 441.851562 146.929688 L 441.851562 148.199219 L 443.117188 148.199219 L 443.117188 146.929688 Z M 443.117188 148.199219 L 443.117188 149.46875 L 444.386719 149.46875 L 444.386719 148.199219 Z M 444.386719 149.46875 L 444.386719 150.738281 L 445.65625 150.738281 L 445.65625 149.46875 Z M 445.65625 150.738281 L 445.65625 152.007812 L 446.925781 152.007812 L 446.925781 150.738281 Z M 446.925781 152.007812 L 446.925781 153.273438 L 448.195312 153.273438 L 448.195312 152.007812 Z M 450.730469 154.542969 L 449.460938 154.542969 L 449.460938 153.273438 L 448.195312 153.273438 L 448.195312 154.542969 L 441.851562 154.542969 L 441.851562 155.8125 L 450.730469 155.8125 Z M 443.117188 160.886719 L 443.117188 158.351562 L 441.851562 158.351562 L 441.851562 160.886719 Z M 440.582031 155.8125 L 440.582031 158.351562 L 441.851562 158.351562 L 441.851562 155.8125 Z M 444.386719 163.425781 L 444.386719 160.886719 L 443.117188 160.886719 L 443.117188 163.425781 Z M 445.65625 165.960938 L 445.65625 163.425781 L 444.386719 163.425781 L 444.386719 165.960938 Z M 446.925781 168.5 L 446.925781 165.960938 L 445.65625 165.960938 L 445.65625 168.5 Z M 446.925781 168.5 " fill-opacity="1" fill-rule="nonzero"/><g clip-path="url(#433732726f)"><path fill="#1a2056" d="M 432.96875 138.050781 L 432.96875 136.78125 L 434.238281 136.78125 L 434.238281 138.050781 Z M 435.507812 139.320312 L 435.507812 138.050781 L 434.238281 138.050781 L 434.238281 139.320312 Z M 436.773438 140.589844 L 436.773438 139.320312 L 435.507812 139.320312 L 435.507812 140.589844 Z M 438.042969 141.855469 L 438.042969 140.589844 L 436.773438 140.589844 L 436.773438 141.855469 Z M 439.3125 143.125 L 439.3125 141.855469 L 438.042969 141.855469 L 438.042969 143.125 Z M 440.582031 144.394531 L 440.582031 143.125 L 439.3125 143.125 L 439.3125 144.394531 Z M 441.851562 145.664062 L 441.851562 144.394531 L 440.582031 144.394531 L 440.582031 145.664062 Z M 443.117188 146.929688 L 443.117188 145.664062 L 441.851562 145.664062 L 441.851562 146.929688 Z M 444.386719 148.199219 L 444.386719 146.929688 L 443.117188 146.929688 L 443.117188 148.199219 Z M 445.65625 149.46875 L 445.65625 148.199219 L 444.386719 148.199219 L 444.386719 149.46875 Z M 446.925781 150.738281 L 446.925781 149.46875 L 445.65625 149.46875 L 445.65625 150.738281 Z M 448.195312 152.007812 L 448.195312 150.738281 L 446.925781 150.738281 L 446.925781 152.007812 Z M 449.460938 153.273438 L 449.460938 152.007812 L 448.195312 152.007812 L 448.195312 153.273438 Z M 450.730469 154.542969 L 450.730469 153.273438 L 449.460938 153.273438 L 449.460938 154.542969 Z M 450.730469 154.542969 L 450.730469 155.8125 L 441.851562 155.8125 L 441.851562 158.351562 L 443.117188 158.351562 L 443.117188 160.886719 L 444.386719 160.886719 L 444.386719 158.351562 L 443.117188 158.351562 L 443.117188 157.082031 L 452 157.082031 L 452 154.542969 Z M 435.507812 160.886719 L 436.773438 160.886719 L 436.773438 159.617188 L 435.507812 159.617188 Z M 438.042969 158.351562 L 436.773438 158.351562 L 436.773438 159.617188 L 438.042969 159.617188 L 438.042969 160.886719 L 439.3125 160.886719 L 439.3125 158.351562 Z M 434.238281 162.15625 L 435.507812 162.15625 L 435.507812 160.886719 L 434.238281 160.886719 Z M 439.3125 160.886719 L 439.3125 163.425781 L 440.582031 163.425781 L 440.582031 160.886719 Z M 431.699219 162.15625 L 431.699219 136.78125 L 432.96875 136.78125 L 432.96875 135.511719 L 431.699219 135.511719 L 431.699219 134.246094 L 430.429688 134.246094 L 430.429688 164.695312 L 432.96875 164.695312 L 432.96875 163.425781 L 431.699219 163.425781 Z M 432.96875 163.425781 L 434.238281 163.425781 L 434.238281 162.15625 L 432.96875 162.15625 Z M 440.582031 163.425781 L 440.582031 165.960938 L 441.851562 165.960938 L 441.851562 163.425781 Z M 445.65625 163.425781 L 445.65625 160.886719 L 444.386719 160.886719 L 444.386719 163.425781 Z M 446.925781 165.960938 L 446.925781 163.425781 L 445.65625 163.425781 L 445.65625 165.960938 Z M 441.851562 165.960938 L 441.851562 168.5 L 443.117188 168.5 L 443.117188 165.960938 Z M 448.195312 168.5 L 448.195312 165.960938 L 446.925781 165.960938 L 446.925781 168.5 Z M 444.386719 168.5 L 443.117188 168.5 L 443.117188 171.035156 L 445.65625 171.035156 L 445.65625 169.769531 L 444.386719 169.769531 Z M 445.65625 169.769531 L 446.925781 169.769531 L 446.925781 168.5 L 445.65625 168.5 Z M 445.65625 169.769531 " fill-opacity="1" fill-rule="nonzero"/></g><g mask="url(#d05ca16e2c)"><g transform="matrix(1, 0, 0, 1, 431, 136)"><g clip-path="url(#908838c3c1)"><g clip-path="url(#5068a2a7c4)"><path fill="#1a2056" d="M 3.238281 23.617188 L 4.507812 23.617188 L 4.507812 24.886719 L 3.238281 24.886719 Z M 4.507812 23.617188 L 5.773438 23.617188 L 5.773438 22.351562 L 4.507812 22.351562 Z M 5.773438 21.082031 L 5.773438 22.351562 L 8.3125 22.351562 L 8.3125 21.082031 Z M 8.3125 22.351562 L 8.3125 24.886719 L 9.582031 24.886719 L 9.582031 22.351562 Z M 9.582031 24.886719 L 9.582031 27.425781 L 10.851562 27.425781 L 10.851562 24.886719 Z M 10.851562 27.425781 L 10.851562 29.960938 L 12.117188 29.960938 L 12.117188 27.425781 Z M 12.117188 29.960938 L 12.117188 32.5 L 13.386719 32.5 L 13.386719 29.960938 Z M 13.386719 32.5 L 13.386719 33.769531 L 14.65625 33.769531 L 14.65625 32.5 Z M 1.96875 0.78125 L 0.699219 0.78125 L 0.699219 27.425781 L 1.96875 27.425781 L 1.96875 26.15625 L 3.238281 26.15625 L 3.238281 24.886719 L 1.96875 24.886719 Z M 1.96875 0.78125 " fill-opacity="1" fill-rule="nonzero"/></g></g></g></g><g clip-path="url(#0a8e97ff87)"><g clip-path="url(#eac32dfb34)"><path stroke-linecap="butt" transform="matrix(0.746822, 0, 0, 0.746822, 11.717293, 22.562126)" fill="none" stroke-linejoin="miter" d="M 35.998228 0.000500376 L 220.896281 0.000500376 C 240.782629 0.000500376 256.897789 16.11566 256.897789 35.996778 L 256.897789 38.329579 C 256.897789 58.210696 240.782629 74.325856 220.896281 74.325856 L 35.998228 74.325856 C 16.117111 74.325856 0.00195115 58.210696 0.00195115 38.329579 L 0.00195115 35.996778 C 0.00195115 16.11566 16.117111 0.000500376 35.998228 0.000500376 Z M 35.998228 0.000500376 " stroke="#2f3288" stroke-width="4" stroke-opacity="1" stroke-miterlimit="4"/></g></g><g fill="#1a2056" fill-opacity="1"><g transform="translate(25.276188, 65.627759)"><g><path d="M 1.65625 -15.625 C 1.65625 -18.664062 2.363281 -21.394531 3.78125 -23.8125 C 5.195312 -26.226562 7.117188 -28.113281 9.546875 -29.46875 C 11.984375 -30.820312 14.648438 -31.5 17.546875 -31.5 C 20.859375 -31.5 23.800781 -30.6875 26.375 -29.0625 C 28.957031 -27.4375 30.832031 -25.132812 32 -22.15625 L 25.859375 -22.15625 C 25.054688 -23.789062 23.9375 -25.007812 22.5 -25.8125 C 21.070312 -26.625 19.421875 -27.03125 17.546875 -27.03125 C 15.484375 -27.03125 13.644531 -26.566406 12.03125 -25.640625 C 10.425781 -24.710938 9.164062 -23.382812 8.25 -21.65625 C 7.34375 -19.925781 6.890625 -17.914062 6.890625 -15.625 C 6.890625 -13.320312 7.34375 -11.304688 8.25 -9.578125 C 9.164062 -7.847656 10.425781 -6.507812 12.03125 -5.5625 C 13.644531 -4.625 15.484375 -4.15625 17.546875 -4.15625 C 19.421875 -4.15625 21.070312 -4.554688 22.5 -5.359375 C 23.9375 -6.171875 25.054688 -7.398438 25.859375 -9.046875 L 32 -9.046875 C 30.832031 -6.054688 28.957031 -3.753906 26.375 -2.140625 C 23.800781 -0.535156 20.859375 0.265625 17.546875 0.265625 C 14.617188 0.265625 11.945312 -0.410156 9.53125 -1.765625 C 7.113281 -3.117188 5.195312 -5.003906 3.78125 -7.421875 C 2.363281 -9.835938 1.65625 -12.570312 1.65625 -15.625 Z M 1.65625 -15.625 "/></g></g></g><g fill="#1a2056" fill-opacity="1"><g transform="translate(59.859122, 65.627759)"><g><path d="M 8.453125 -21.078125 C 9.203125 -22.328125 10.195312 -23.300781 11.4375 -24 C 12.675781 -24.707031 14.144531 -25.0625 15.84375 -25.0625 L 15.84375 -19.78125 L 14.546875 -19.78125 C 12.546875 -19.78125 11.03125 -19.269531 10 -18.25 C 8.96875 -17.238281 8.453125 -15.484375 8.453125 -12.984375 L 8.453125 0 L 3.359375 0 L 3.359375 -24.65625 L 8.453125 -24.65625 Z M 8.453125 -21.078125 "/></g></g></g><g fill="#1a2056" fill-opacity="1"><g transform="translate(77.038744, 65.627759)"><g><path d="M 25.953125 -12.9375 C 25.953125 -12.007812 25.894531 -11.171875 25.78125 -10.421875 L 6.9375 -10.421875 C 7.082031 -8.453125 7.8125 -6.867188 9.125 -5.671875 C 10.4375 -4.484375 12.050781 -3.890625 13.96875 -3.890625 C 16.707031 -3.890625 18.644531 -5.039062 19.78125 -7.34375 L 25.28125 -7.34375 C 24.539062 -5.070312 23.191406 -3.210938 21.234375 -1.765625 C 19.273438 -0.316406 16.851562 0.40625 13.96875 0.40625 C 11.601562 0.40625 9.488281 -0.125 7.625 -1.1875 C 5.757812 -2.25 4.296875 -3.738281 3.234375 -5.65625 C 2.179688 -7.582031 1.65625 -9.8125 1.65625 -12.34375 C 1.65625 -14.882812 2.171875 -17.113281 3.203125 -19.03125 C 4.234375 -20.957031 5.679688 -22.441406 7.546875 -23.484375 C 9.410156 -24.535156 11.550781 -25.0625 13.96875 -25.0625 C 16.289062 -25.0625 18.359375 -24.550781 20.171875 -23.53125 C 21.992188 -22.519531 23.410156 -21.097656 24.421875 -19.265625 C 25.441406 -17.429688 25.953125 -15.320312 25.953125 -12.9375 Z M 20.625 -14.546875 C 20.59375 -16.421875 19.921875 -17.925781 18.609375 -19.0625 C 17.296875 -20.195312 15.671875 -20.765625 13.734375 -20.765625 C 11.972656 -20.765625 10.46875 -20.203125 9.21875 -19.078125 C 7.96875 -17.960938 7.222656 -16.453125 6.984375 -14.546875 Z M 20.625 -14.546875 "/></g></g></g><g fill="#1a2056" fill-opacity="1"><g transform="translate(104.642461, 65.627759)"><g><path d="M 1.65625 -12.4375 C 1.65625 -14.914062 2.171875 -17.109375 3.203125 -19.015625 C 4.234375 -20.921875 5.632812 -22.40625 7.40625 -23.46875 C 9.175781 -24.53125 11.140625 -25.0625 13.296875 -25.0625 C 15.234375 -25.0625 16.925781 -24.679688 18.375 -23.921875 C 19.820312 -23.160156 20.976562 -22.210938 21.84375 -21.078125 L 21.84375 -24.65625 L 26.984375 -24.65625 L 26.984375 0 L 21.84375 0 L 21.84375 -3.671875 C 20.976562 -2.503906 19.796875 -1.53125 18.296875 -0.75 C 16.804688 0.0195312 15.109375 0.40625 13.203125 0.40625 C 11.085938 0.40625 9.148438 -0.132812 7.390625 -1.21875 C 5.628906 -2.3125 4.234375 -3.832031 3.203125 -5.78125 C 2.171875 -7.738281 1.65625 -9.957031 1.65625 -12.4375 Z M 21.84375 -12.34375 C 21.84375 -14.050781 21.488281 -15.53125 20.78125 -16.78125 C 20.082031 -18.03125 19.164062 -18.984375 18.03125 -19.640625 C 16.894531 -20.296875 15.671875 -20.625 14.359375 -20.625 C 13.046875 -20.625 11.820312 -20.300781 10.6875 -19.65625 C 9.5625 -19.019531 8.644531 -18.082031 7.9375 -16.84375 C 7.238281 -15.601562 6.890625 -14.132812 6.890625 -12.4375 C 6.890625 -10.738281 7.238281 -9.25 7.9375 -7.96875 C 8.644531 -6.6875 9.570312 -5.707031 10.71875 -5.03125 C 11.863281 -4.363281 13.078125 -4.03125 14.359375 -4.03125 C 15.671875 -4.03125 16.894531 -4.359375 18.03125 -5.015625 C 19.164062 -5.671875 20.082031 -6.628906 20.78125 -7.890625 C 21.488281 -9.160156 21.84375 -10.644531 21.84375 -12.34375 Z M 21.84375 -12.34375 "/></g></g></g><g fill="#1a2056" fill-opacity="1"><g transform="translate(134.975234, 65.627759)"><g><path d="M 9.3125 -20.5 L 9.3125 -6.84375 C 9.3125 -5.914062 9.523438 -5.25 9.953125 -4.84375 C 10.390625 -4.445312 11.128906 -4.25 12.171875 -4.25 L 15.296875 -4.25 L 15.296875 0 L 11.28125 0 C 8.976562 0 7.210938 -0.535156 5.984375 -1.609375 C 4.765625 -2.679688 4.15625 -4.425781 4.15625 -6.84375 L 4.15625 -20.5 L 1.25 -20.5 L 1.25 -24.65625 L 4.15625 -24.65625 L 4.15625 -30.78125 L 9.3125 -30.78125 L 9.3125 -24.65625 L 15.296875 -24.65625 L 15.296875 -20.5 Z M 9.3125 -20.5 "/></g></g></g><g fill="#1a2056" fill-opacity="1"><g transform="translate(151.617987, 65.627759)"><g><path d="M 25.953125 -12.9375 C 25.953125 -12.007812 25.894531 -11.171875 25.78125 -10.421875 L 6.9375 -10.421875 C 7.082031 -8.453125 7.8125 -6.867188 9.125 -5.671875 C 10.4375 -4.484375 12.050781 -3.890625 13.96875 -3.890625 C 16.707031 -3.890625 18.644531 -5.039062 19.78125 -7.34375 L 25.28125 -7.34375 C 24.539062 -5.070312 23.191406 -3.210938 21.234375 -1.765625 C 19.273438 -0.316406 16.851562 0.40625 13.96875 0.40625 C 11.601562 0.40625 9.488281 -0.125 7.625 -1.1875 C 5.757812 -2.25 4.296875 -3.738281 3.234375 -5.65625 C 2.179688 -7.582031 1.65625 -9.8125 1.65625 -12.34375 C 1.65625 -14.882812 2.171875 -17.113281 3.203125 -19.03125 C 4.234375 -20.957031 5.679688 -22.441406 7.546875 -23.484375 C 9.410156 -24.535156 11.550781 -25.0625 13.96875 -25.0625 C 16.289062 -25.0625 18.359375 -24.550781 20.171875 -23.53125 C 21.992188 -22.519531 23.410156 -21.097656 24.421875 -19.265625 C 25.441406 -17.429688 25.953125 -15.320312 25.953125 -12.9375 Z M 20.625 -14.546875 C 20.59375 -16.421875 19.921875 -17.925781 18.609375 -19.0625 C 17.296875 -20.195312 15.671875 -20.765625 13.734375 -20.765625 C 11.972656 -20.765625 10.46875 -20.203125 9.21875 -19.078125 C 7.96875 -17.960938 7.222656 -16.453125 6.984375 -14.546875 Z M 20.625 -14.546875 "/></g></g></g><g fill="#1a2056" fill-opacity="1"><g transform="translate(179.221704, 65.627759)"><g><path d="M 5.421875 0.3125 C 4.492188 0.3125 3.710938 0 3.078125 -0.625 C 2.453125 -1.25 2.140625 -2.023438 2.140625 -2.953125 C 2.140625 -3.878906 2.453125 -4.65625 3.078125 -5.28125 C 3.710938 -5.90625 4.492188 -6.21875 5.421875 -6.21875 C 6.304688 -6.21875 7.0625 -5.90625 7.6875 -5.28125 C 8.320312 -4.65625 8.640625 -3.878906 8.640625 -2.953125 C 8.640625 -2.023438 8.320312 -1.25 7.6875 -0.625 C 7.0625 0 6.304688 0.3125 5.421875 0.3125 Z M 5.421875 0.3125 "/></g></g></g></svg>