<svg xmlns="http://www.w3.org/2000/svg" xmlns:xlink="http://www.w3.org/1999/xlink" width="1122" zoomAndPan="magnify" viewBox="0 0 841.5 170.249993" height="227" preserveAspectRatio="xMidYMid meet" version="1.0"><defs><g/><clipPath id="e8b05b4fc2"><path d="M 1.597656 117.027344 L 102.402344 117.027344 L 102.402344 169 L 1.597656 169 Z M 1.597656 117.027344 " clip-rule="nonzero"/></clipPath><clipPath id="43ac7bb344"><path d="M 738.441406 117.027344 L 839.246094 117.027344 L 839.246094 169 L 738.441406 169 Z M 738.441406 117.027344 " clip-rule="nonzero"/></clipPath></defs><g fill="#1a2056" fill-opacity="1"><g transform="translate(77.609885, 57.113297)"><g><path d="M 22.25 0.703125 C 14.289062 0.703125 8.691406 -0.945312 5.453125 -4.25 C 2.722656 -7.019531 1.359375 -11.023438 1.359375 -16.265625 L 15.046875 -16.265625 C 15.046875 -13.992188 15.429688 -12.203125 16.203125 -10.890625 C 17.304688 -8.992188 19.320312 -8.046875 22.25 -8.046875 C 25.207031 -8.046875 27.226562 -8.992188 28.3125 -10.890625 C 29.09375 -12.253906 29.484375 -14.046875 29.484375 -16.265625 L 29.484375 -32.59375 L 43.15625 -32.59375 L 43.15625 -16.09375 C 43.15625 -10.96875 41.800781 -7.019531 39.09375 -4.25 C 35.832031 -0.945312 30.21875 0.703125 22.25 0.703125 Z M 22.25 0.703125 "/></g></g><g transform="translate(122.816771, 57.113297)"><g><path d="M 22.9375 0.703125 C 14.976562 0.703125 9.378906 -0.945312 6.140625 -4.25 C 3.410156 -7.019531 2.046875 -11.023438 2.046875 -16.265625 L 2.046875 -32.59375 L 15.734375 -32.59375 L 15.734375 -16.265625 C 15.734375 -13.992188 16.117188 -12.203125 16.890625 -10.890625 C 17.992188 -8.992188 20.007812 -8.046875 22.9375 -8.046875 C 25.882812 -8.046875 27.90625 -8.992188 29 -10.890625 C 29.769531 -12.253906 30.15625 -14.046875 30.15625 -16.265625 L 30.15625 -32.59375 L 43.84375 -32.59375 L 43.84375 -16.09375 C 43.84375 -10.96875 42.488281 -7.019531 39.78125 -4.25 C 36.519531 -0.945312 30.90625 0.703125 22.9375 0.703125 Z M 22.9375 0.703125 "/></g></g><g transform="translate(168.70551, 57.113297)"><g><path d="M 52.03125 0 L 35.75 0 L 17.3125 -22.0625 L 17.3125 0 L 3.640625 0 L 3.640625 -32.609375 L 19.90625 -32.609375 L 38.34375 -10.65625 L 38.34375 -32.609375 L 52.03125 -32.609375 Z M 52.03125 0 "/></g></g><g transform="translate(224.367482, 57.113297)"><g><path d="M 17.3125 0 L 3.640625 0 L 3.640625 -32.609375 L 17.3125 -32.609375 Z M 17.3125 0 "/></g></g><g transform="translate(245.323112, 57.113297)"><g><path d="M 24.65625 0.703125 C 16.59375 0.703125 10.660156 -0.953125 6.859375 -4.265625 C 3.492188 -7.210938 1.8125 -11.222656 1.8125 -16.296875 C 1.8125 -21.359375 3.492188 -25.359375 6.859375 -28.296875 C 10.660156 -31.617188 16.59375 -33.28125 24.65625 -33.28125 C 32.71875 -33.28125 38.648438 -31.617188 42.453125 -28.296875 C 45.816406 -25.359375 47.5 -21.359375 47.5 -16.296875 C 47.5 -11.222656 45.816406 -7.210938 42.453125 -4.265625 C 38.648438 -0.953125 32.71875 0.703125 24.65625 0.703125 Z M 24.65625 -8.046875 C 27.957031 -8.046875 30.382812 -8.992188 31.9375 -10.890625 C 33.175781 -12.421875 33.796875 -14.222656 33.796875 -16.296875 C 33.796875 -18.367188 33.175781 -20.164062 31.9375 -21.6875 C 30.382812 -23.59375 27.957031 -24.546875 24.65625 -24.546875 C 21.351562 -24.546875 18.921875 -23.59375 17.359375 -21.6875 C 16.117188 -20.164062 15.5 -18.367188 15.5 -16.296875 C 15.5 -14.222656 16.117188 -12.421875 17.359375 -10.890625 C 18.921875 -8.992188 21.351562 -8.046875 24.65625 -8.046875 Z M 24.65625 -8.046875 "/></g></g><g transform="translate(294.643847, 57.113297)"><g><path d="M 48.15625 0 L 35.234375 0 C 34.640625 -0.820312 34.222656 -1.867188 33.984375 -3.140625 C 33.765625 -4.117188 33.441406 -5.082031 33.015625 -6.03125 C 32.597656 -6.976562 31.867188 -7.765625 30.828125 -8.390625 C 29.796875 -9.023438 28.253906 -9.363281 26.203125 -9.40625 L 17.3125 -9.40625 L 17.3125 0 L 3.640625 0 L 3.640625 -32.609375 L 25.890625 -32.609375 C 31.203125 -32.609375 35.488281 -32.210938 38.75 -31.421875 C 42.019531 -30.628906 44.40625 -29.378906 45.90625 -27.671875 C 47.40625 -25.960938 48.15625 -23.738281 48.15625 -21 C 48.15625 -18.707031 47.632812 -16.78125 46.59375 -15.21875 C 45.5625 -13.664062 43.925781 -12.429688 41.6875 -11.515625 C 43.851562 -10.628906 45.253906 -9.5625 45.890625 -8.3125 C 46.535156 -7.0625 46.9375 -5.6875 47.09375 -4.1875 C 47.238281 -2.851562 47.59375 -1.457031 48.15625 0 Z M 17.3125 -17.453125 L 25.140625 -17.484375 C 27.316406 -17.484375 29.035156 -17.578125 30.296875 -17.765625 C 31.554688 -17.960938 32.484375 -18.234375 33.078125 -18.578125 C 33.679688 -18.921875 34.066406 -19.300781 34.234375 -19.71875 C 34.398438 -20.132812 34.484375 -20.5625 34.484375 -21 C 34.484375 -21.4375 34.398438 -21.867188 34.234375 -22.296875 C 34.066406 -22.722656 33.679688 -23.101562 33.078125 -23.4375 C 32.484375 -23.78125 31.554688 -24.050781 30.296875 -24.25 C 29.035156 -24.445312 27.316406 -24.546875 25.140625 -24.546875 L 17.3125 -24.546875 Z M 17.3125 -17.453125 "/></g></g><g transform="translate(344.623707, 57.113297)"><g/></g><g transform="translate(356.16976, 57.113297)"><g><path d="M 17.3125 0 L 3.640625 0 L 3.640625 -32.609375 L 25.890625 -32.609375 C 31.203125 -32.609375 35.488281 -32.210938 38.75 -31.421875 C 42.019531 -30.628906 44.40625 -29.378906 45.90625 -27.671875 C 47.40625 -25.960938 48.15625 -23.738281 48.15625 -21 C 48.15625 -18.269531 47.40625 -16.050781 45.90625 -14.34375 C 44.40625 -12.644531 42.019531 -11.394531 38.75 -10.59375 C 35.488281 -9.800781 31.203125 -9.40625 25.890625 -9.40625 L 17.3125 -9.40625 Z M 17.3125 -17.453125 L 25.140625 -17.484375 C 27.316406 -17.484375 29.035156 -17.566406 30.296875 -17.734375 C 31.554688 -17.910156 32.484375 -18.15625 33.078125 -18.46875 C 33.679688 -18.789062 34.066406 -19.164062 34.234375 -19.59375 C 34.398438 -20.03125 34.484375 -20.5 34.484375 -21 C 34.484375 -21.507812 34.398438 -21.976562 34.234375 -22.40625 C 34.066406 -22.84375 33.679688 -23.222656 33.078125 -23.546875 C 32.484375 -23.867188 31.554688 -24.113281 30.296875 -24.28125 C 29.035156 -24.457031 27.316406 -24.546875 25.140625 -24.546875 L 17.3125 -24.546875 Z M 17.3125 -17.453125 "/></g></g><g transform="translate(406.14962, 57.113297)"><g><path d="M 48.1875 0 L 34.5 0 L 34.5 -13.15625 L 17.3125 -13.15625 L 17.3125 0 L 3.640625 0 L 3.640625 -32.609375 L 17.3125 -32.609375 L 17.3125 -19.4375 L 34.5 -19.4375 L 34.5 -32.609375 L 48.1875 -32.609375 Z M 48.1875 0 "/></g></g><g transform="translate(457.970484, 57.113297)"><g><path d="M 17.3125 0 L 3.640625 0 L 3.640625 -32.609375 L 17.3125 -32.609375 Z M 17.3125 0 "/></g></g><g transform="translate(478.926115, 57.113297)"><g><path d="M 41.703125 0 L 3.640625 0 L 3.640625 -32.609375 L 17.3125 -32.609375 L 17.3125 -8.0625 L 41.703125 -8.0625 Z M 41.703125 0 "/></g></g><g transform="translate(521.541957, 57.113297)"><g><path d="M 17.3125 0 L 3.640625 0 L 3.640625 -32.609375 L 17.3125 -32.609375 Z M 17.3125 0 "/></g></g><g transform="translate(542.497587, 57.113297)"><g><path d="M 17.3125 0 L 3.640625 0 L 3.640625 -32.609375 L 25.890625 -32.609375 C 31.203125 -32.609375 35.488281 -32.210938 38.75 -31.421875 C 42.019531 -30.628906 44.40625 -29.378906 45.90625 -27.671875 C 47.40625 -25.960938 48.15625 -23.738281 48.15625 -21 C 48.15625 -18.269531 47.40625 -16.050781 45.90625 -14.34375 C 44.40625 -12.644531 42.019531 -11.394531 38.75 -10.59375 C 35.488281 -9.800781 31.203125 -9.40625 25.890625 -9.40625 L 17.3125 -9.40625 Z M 17.3125 -17.453125 L 25.140625 -17.484375 C 27.316406 -17.484375 29.035156 -17.566406 30.296875 -17.734375 C 31.554688 -17.910156 32.484375 -18.15625 33.078125 -18.46875 C 33.679688 -18.789062 34.066406 -19.164062 34.234375 -19.59375 C 34.398438 -20.03125 34.484375 -20.5 34.484375 -21 C 34.484375 -21.507812 34.398438 -21.976562 34.234375 -22.40625 C 34.066406 -22.84375 33.679688 -23.222656 33.078125 -23.546875 C 32.484375 -23.867188 31.554688 -24.113281 30.296875 -24.28125 C 29.035156 -24.457031 27.316406 -24.546875 25.140625 -24.546875 L 17.3125 -24.546875 Z M 17.3125 -17.453125 "/></g></g><g transform="translate(592.477447, 57.113297)"><g><path d="M 17.3125 0 L 3.640625 0 L 3.640625 -32.609375 L 25.890625 -32.609375 C 31.203125 -32.609375 35.488281 -32.210938 38.75 -31.421875 C 42.019531 -30.628906 44.40625 -29.378906 45.90625 -27.671875 C 47.40625 -25.960938 48.15625 -23.738281 48.15625 -21 C 48.15625 -18.269531 47.40625 -16.050781 45.90625 -14.34375 C 44.40625 -12.644531 42.019531 -11.394531 38.75 -10.59375 C 35.488281 -9.800781 31.203125 -9.40625 25.890625 -9.40625 L 17.3125 -9.40625 Z M 17.3125 -17.453125 L 25.140625 -17.484375 C 27.316406 -17.484375 29.035156 -17.566406 30.296875 -17.734375 C 31.554688 -17.910156 32.484375 -18.15625 33.078125 -18.46875 C 33.679688 -18.789062 34.066406 -19.164062 34.234375 -19.59375 C 34.398438 -20.03125 34.484375 -20.5 34.484375 -21 C 34.484375 -21.507812 34.398438 -21.976562 34.234375 -22.40625 C 34.066406 -22.84375 33.679688 -23.222656 33.078125 -23.546875 C 32.484375 -23.867188 31.554688 -24.113281 30.296875 -24.28125 C 29.035156 -24.457031 27.316406 -24.546875 25.140625 -24.546875 L 17.3125 -24.546875 Z M 17.3125 -17.453125 "/></g></g><g transform="translate(642.457307, 57.113297)"><g><path d="M 17.3125 0 L 3.640625 0 L 3.640625 -32.609375 L 17.3125 -32.609375 Z M 17.3125 0 "/></g></g><g transform="translate(663.412938, 57.113297)"><g><path d="M 52.03125 0 L 35.75 0 L 17.3125 -22.0625 L 17.3125 0 L 3.640625 0 L 3.640625 -32.609375 L 19.90625 -32.609375 L 38.34375 -10.65625 L 38.34375 -32.609375 L 52.03125 -32.609375 Z M 52.03125 0 "/></g></g><g transform="translate(719.07491, 57.113297)"><g><path d="M 42.90625 0 L 3.640625 0 L 3.640625 -32.609375 L 41.109375 -32.609375 L 41.109375 -24.546875 L 17.3125 -24.546875 L 17.3125 -19.4375 L 37.4375 -19.4375 L 37.4375 -13.15625 L 17.3125 -13.15625 L 17.3125 -8.0625 L 42.90625 -8.0625 Z M 42.90625 0 "/></g></g></g><g fill="#1a2056" fill-opacity="1"><g transform="translate(65.539921, 122.250242)"><g><path d="M 24.65625 0.703125 C 16.59375 0.703125 10.660156 -0.953125 6.859375 -4.265625 C 3.492188 -7.191406 1.8125 -11.191406 1.8125 -16.265625 C 1.8125 -21.347656 3.492188 -25.359375 6.859375 -28.296875 C 10.660156 -31.597656 16.59375 -33.25 24.65625 -33.25 C 29.382812 -33.25 33.296875 -32.707031 36.390625 -31.625 C 39.484375 -30.539062 41.882812 -29.054688 43.59375 -27.171875 C 45.300781 -25.296875 46.4375 -23.148438 47 -20.734375 L 32.609375 -20.734375 C 31.171875 -23.265625 28.519531 -24.53125 24.65625 -24.53125 C 21.351562 -24.53125 18.921875 -23.570312 17.359375 -21.65625 C 16.117188 -20.144531 15.5 -18.347656 15.5 -16.265625 C 15.5 -14.191406 16.117188 -12.398438 17.359375 -10.890625 C 18.921875 -8.972656 21.351562 -8.015625 24.65625 -8.015625 C 28.519531 -8.015625 31.171875 -9.289062 32.609375 -11.84375 L 47 -11.84375 C 46.4375 -9.40625 45.300781 -7.242188 43.59375 -5.359375 C 41.882812 -3.484375 39.484375 -2.003906 36.390625 -0.921875 C 33.296875 0.160156 29.382812 0.703125 24.65625 0.703125 Z M 24.65625 0.703125 "/></g></g><g transform="translate(114.36063, 122.250242)"><g><path d="M 24.65625 0.703125 C 16.59375 0.703125 10.660156 -0.953125 6.859375 -4.265625 C 3.492188 -7.210938 1.8125 -11.222656 1.8125 -16.296875 C 1.8125 -21.359375 3.492188 -25.359375 6.859375 -28.296875 C 10.660156 -31.617188 16.59375 -33.28125 24.65625 -33.28125 C 32.71875 -33.28125 38.648438 -31.617188 42.453125 -28.296875 C 45.816406 -25.359375 47.5 -21.359375 47.5 -16.296875 C 47.5 -11.222656 45.816406 -7.210938 42.453125 -4.265625 C 38.648438 -0.953125 32.71875 0.703125 24.65625 0.703125 Z M 24.65625 -8.046875 C 27.957031 -8.046875 30.382812 -8.992188 31.9375 -10.890625 C 33.175781 -12.421875 33.796875 -14.222656 33.796875 -16.296875 C 33.796875 -18.367188 33.175781 -20.164062 31.9375 -21.6875 C 30.382812 -23.59375 27.957031 -24.546875 24.65625 -24.546875 C 21.351562 -24.546875 18.921875 -23.59375 17.359375 -21.6875 C 16.117188 -20.164062 15.5 -18.367188 15.5 -16.296875 C 15.5 -14.222656 16.117188 -12.421875 17.359375 -10.890625 C 18.921875 -8.992188 21.351562 -8.046875 24.65625 -8.046875 Z M 24.65625 -8.046875 "/></g></g><g transform="translate(163.681365, 122.250242)"><g><path d="M 65.640625 0 L 51.953125 0 L 51.953125 -20.796875 L 39.734375 0 L 29.53125 0 L 17.3125 -20.796875 L 17.3125 0 L 3.640625 0 L 3.640625 -32.609375 L 19.890625 -32.609375 L 34.640625 -9.3125 L 49.359375 -32.609375 L 65.640625 -32.609375 Z M 65.640625 0 "/></g></g><g transform="translate(232.957678, 122.250242)"><g><path d="M 17.3125 0 L 3.640625 0 L 3.640625 -32.609375 L 25.890625 -32.609375 C 31.203125 -32.609375 35.488281 -32.210938 38.75 -31.421875 C 42.019531 -30.628906 44.40625 -29.378906 45.90625 -27.671875 C 47.40625 -25.960938 48.15625 -23.738281 48.15625 -21 C 48.15625 -18.269531 47.40625 -16.050781 45.90625 -14.34375 C 44.40625 -12.644531 42.019531 -11.394531 38.75 -10.59375 C 35.488281 -9.800781 31.203125 -9.40625 25.890625 -9.40625 L 17.3125 -9.40625 Z M 17.3125 -17.453125 L 25.140625 -17.484375 C 27.316406 -17.484375 29.035156 -17.566406 30.296875 -17.734375 C 31.554688 -17.910156 32.484375 -18.15625 33.078125 -18.46875 C 33.679688 -18.789062 34.066406 -19.164062 34.234375 -19.59375 C 34.398438 -20.03125 34.484375 -20.5 34.484375 -21 C 34.484375 -21.507812 34.398438 -21.976562 34.234375 -22.40625 C 34.066406 -22.84375 33.679688 -23.222656 33.078125 -23.546875 C 32.484375 -23.867188 31.554688 -24.113281 30.296875 -24.28125 C 29.035156 -24.457031 27.316406 -24.546875 25.140625 -24.546875 L 17.3125 -24.546875 Z M 17.3125 -17.453125 "/></g></g><g transform="translate(282.937538, 122.250242)"><g><path d="M 22.9375 0.703125 C 14.976562 0.703125 9.378906 -0.945312 6.140625 -4.25 C 3.410156 -7.019531 2.046875 -11.023438 2.046875 -16.265625 L 2.046875 -32.59375 L 15.734375 -32.59375 L 15.734375 -16.265625 C 15.734375 -13.992188 16.117188 -12.203125 16.890625 -10.890625 C 17.992188 -8.992188 20.007812 -8.046875 22.9375 -8.046875 C 25.882812 -8.046875 27.90625 -8.992188 29 -10.890625 C 29.769531 -12.253906 30.15625 -14.046875 30.15625 -16.265625 L 30.15625 -32.59375 L 43.84375 -32.59375 L 43.84375 -16.09375 C 43.84375 -10.96875 42.488281 -7.019531 39.78125 -4.25 C 36.519531 -0.945312 30.90625 0.703125 22.9375 0.703125 Z M 22.9375 0.703125 "/></g></g><g transform="translate(328.826277, 122.250242)"><g><path d="M 27.8125 0 L 14.140625 0 L 14.140625 -24.546875 L 1.359375 -24.546875 L 1.359375 -32.609375 L 40.59375 -32.609375 L 40.59375 -24.546875 L 27.8125 -24.546875 Z M 27.8125 0 "/></g></g><g transform="translate(370.782995, 122.250242)"><g><path d="M 42.90625 0 L 3.640625 0 L 3.640625 -32.609375 L 41.109375 -32.609375 L 41.109375 -24.546875 L 17.3125 -24.546875 L 17.3125 -19.4375 L 37.4375 -19.4375 L 37.4375 -13.15625 L 17.3125 -13.15625 L 17.3125 -8.0625 L 42.90625 -8.0625 Z M 42.90625 0 "/></g></g><g transform="translate(415.512583, 122.250242)"><g><path d="M 48.15625 0 L 35.234375 0 C 34.640625 -0.820312 34.222656 -1.867188 33.984375 -3.140625 C 33.765625 -4.117188 33.441406 -5.082031 33.015625 -6.03125 C 32.597656 -6.976562 31.867188 -7.765625 30.828125 -8.390625 C 29.796875 -9.023438 28.253906 -9.363281 26.203125 -9.40625 L 17.3125 -9.40625 L 17.3125 0 L 3.640625 0 L 3.640625 -32.609375 L 25.890625 -32.609375 C 31.203125 -32.609375 35.488281 -32.210938 38.75 -31.421875 C 42.019531 -30.628906 44.40625 -29.378906 45.90625 -27.671875 C 47.40625 -25.960938 48.15625 -23.738281 48.15625 -21 C 48.15625 -18.707031 47.632812 -16.78125 46.59375 -15.21875 C 45.5625 -13.664062 43.925781 -12.429688 41.6875 -11.515625 C 43.851562 -10.628906 45.253906 -9.5625 45.890625 -8.3125 C 46.535156 -7.0625 46.9375 -5.6875 47.09375 -4.1875 C 47.238281 -2.851562 47.59375 -1.457031 48.15625 0 Z M 17.3125 -17.453125 L 25.140625 -17.484375 C 27.316406 -17.484375 29.035156 -17.578125 30.296875 -17.765625 C 31.554688 -17.960938 32.484375 -18.234375 33.078125 -18.578125 C 33.679688 -18.921875 34.066406 -19.300781 34.234375 -19.71875 C 34.398438 -20.132812 34.484375 -20.5625 34.484375 -21 C 34.484375 -21.4375 34.398438 -21.867188 34.234375 -22.296875 C 34.066406 -22.722656 33.679688 -23.101562 33.078125 -23.4375 C 32.484375 -23.78125 31.554688 -24.050781 30.296875 -24.25 C 29.035156 -24.445312 27.316406 -24.546875 25.140625 -24.546875 L 17.3125 -24.546875 Z M 17.3125 -17.453125 "/></g></g><g transform="translate(465.492443, 122.250242)"><g/></g><g transform="translate(477.038496, 122.250242)"><g><path d="M 21.546875 0.703125 C 17.140625 0.703125 13.585938 0.226562 10.890625 -0.71875 C 8.191406 -1.664062 6.132812 -2.96875 4.71875 -4.625 C 3.3125 -6.28125 2.367188 -8.191406 1.890625 -10.359375 L 16.40625 -10.359375 C 17.476562 -8.816406 19.191406 -8.046875 21.546875 -8.046875 C 23.890625 -8.046875 25.601562 -8.816406 26.6875 -10.359375 C 26.769531 -10.515625 26.8125 -10.648438 26.8125 -10.765625 C 26.8125 -11.179688 26.269531 -11.488281 25.1875 -11.6875 C 24.101562 -11.894531 22.488281 -12.050781 20.34375 -12.15625 C 17.625 -12.28125 14.773438 -12.566406 11.796875 -13.015625 C 5.140625 -14.046875 1.8125 -16.722656 1.8125 -21.046875 C 1.8125 -21.410156 1.835938 -21.796875 1.890625 -22.203125 C 2.367188 -24.367188 3.3125 -26.28125 4.71875 -27.9375 C 6.132812 -29.601562 8.191406 -30.910156 10.890625 -31.859375 C 13.585938 -32.804688 17.140625 -33.28125 21.546875 -33.28125 C 25.953125 -33.28125 29.503906 -32.804688 32.203125 -31.859375 C 34.898438 -30.910156 36.953125 -29.601562 38.359375 -27.9375 C 39.773438 -26.28125 40.722656 -24.367188 41.203125 -22.203125 L 26.6875 -22.203125 C 25.601562 -23.753906 23.890625 -24.53125 21.546875 -24.53125 C 19.191406 -24.53125 17.476562 -23.753906 16.40625 -22.203125 C 16.332031 -22.078125 16.296875 -21.960938 16.296875 -21.859375 C 16.296875 -21.492188 16.8125 -21.222656 17.84375 -21.046875 C 18.882812 -20.878906 20.414062 -20.734375 22.4375 -20.609375 C 24.46875 -20.492188 26.625 -20.296875 28.90625 -20.015625 C 31.195312 -19.742188 33.335938 -19.269531 35.328125 -18.59375 C 37.316406 -17.925781 38.875 -16.929688 40 -15.609375 C 40.875 -14.597656 41.3125 -13.3125 41.3125 -11.75 C 41.3125 -11.3125 41.273438 -10.847656 41.203125 -10.359375 C 40.722656 -8.191406 39.773438 -6.28125 38.359375 -4.625 C 36.953125 -2.96875 34.898438 -1.664062 32.203125 -0.71875 C 29.503906 0.226562 25.953125 0.703125 21.546875 0.703125 Z M 21.546875 0.703125 "/></g></g><g transform="translate(520.177093, 122.250242)"><g><path d="M 24.65625 0.703125 C 16.59375 0.703125 10.660156 -0.953125 6.859375 -4.265625 C 3.492188 -7.210938 1.8125 -11.222656 1.8125 -16.296875 C 1.8125 -21.359375 3.492188 -25.359375 6.859375 -28.296875 C 10.660156 -31.617188 16.59375 -33.28125 24.65625 -33.28125 C 32.71875 -33.28125 38.648438 -31.617188 42.453125 -28.296875 C 45.816406 -25.359375 47.5 -21.359375 47.5 -16.296875 C 47.5 -11.222656 45.816406 -7.210938 42.453125 -4.265625 C 38.648438 -0.953125 32.71875 0.703125 24.65625 0.703125 Z M 24.65625 -8.046875 C 27.957031 -8.046875 30.382812 -8.992188 31.9375 -10.890625 C 33.175781 -12.421875 33.796875 -14.222656 33.796875 -16.296875 C 33.796875 -18.367188 33.175781 -20.164062 31.9375 -21.6875 C 30.382812 -23.59375 27.957031 -24.546875 24.65625 -24.546875 C 21.351562 -24.546875 18.921875 -23.59375 17.359375 -21.6875 C 16.117188 -20.164062 15.5 -18.367188 15.5 -16.296875 C 15.5 -14.222656 16.117188 -12.421875 17.359375 -10.890625 C 18.921875 -8.992188 21.351562 -8.046875 24.65625 -8.046875 Z M 24.65625 -8.046875 "/></g></g><g transform="translate(569.497828, 122.250242)"><g><path d="M 24.65625 0.703125 C 16.59375 0.703125 10.660156 -0.953125 6.859375 -4.265625 C 3.492188 -7.191406 1.8125 -11.191406 1.8125 -16.265625 C 1.8125 -21.347656 3.492188 -25.359375 6.859375 -28.296875 C 10.660156 -31.597656 16.59375 -33.25 24.65625 -33.25 C 29.382812 -33.25 33.296875 -32.707031 36.390625 -31.625 C 39.484375 -30.539062 41.882812 -29.054688 43.59375 -27.171875 C 45.300781 -25.296875 46.4375 -23.148438 47 -20.734375 L 32.609375 -20.734375 C 31.171875 -23.265625 28.519531 -24.53125 24.65625 -24.53125 C 21.351562 -24.53125 18.921875 -23.570312 17.359375 -21.65625 C 16.117188 -20.144531 15.5 -18.347656 15.5 -16.265625 C 15.5 -14.191406 16.117188 -12.398438 17.359375 -10.890625 C 18.921875 -8.972656 21.351562 -8.015625 24.65625 -8.015625 C 28.519531 -8.015625 31.171875 -9.289062 32.609375 -11.84375 L 47 -11.84375 C 46.4375 -9.40625 45.300781 -7.242188 43.59375 -5.359375 C 41.882812 -3.484375 39.484375 -2.003906 36.390625 -0.921875 C 33.296875 0.160156 29.382812 0.703125 24.65625 0.703125 Z M 24.65625 0.703125 "/></g></g><g transform="translate(618.318537, 122.250242)"><g><path d="M 17.3125 0 L 3.640625 0 L 3.640625 -32.609375 L 17.3125 -32.609375 Z M 17.3125 0 "/></g></g><g transform="translate(639.274167, 122.250242)"><g><path d="M 42.90625 0 L 3.640625 0 L 3.640625 -32.609375 L 41.109375 -32.609375 L 41.109375 -24.546875 L 17.3125 -24.546875 L 17.3125 -19.4375 L 37.4375 -19.4375 L 37.4375 -13.15625 L 17.3125 -13.15625 L 17.3125 -8.0625 L 42.90625 -8.0625 Z M 42.90625 0 "/></g></g><g transform="translate(684.003755, 122.250242)"><g><path d="M 27.8125 0 L 14.140625 0 L 14.140625 -24.546875 L 1.359375 -24.546875 L 1.359375 -32.609375 L 40.59375 -32.609375 L 40.59375 -24.546875 L 27.8125 -24.546875 Z M 27.8125 0 "/></g></g><g transform="translate(725.960473, 122.250242)"><g><path d="M 31.8125 0 L 18.140625 0 L 18.140625 -15.453125 L 0.34375 -32.609375 L 15.5 -32.609375 L 24.984375 -22.859375 L 34.4375 -32.609375 L 49.59375 -32.609375 L 31.8125 -15.453125 Z M 31.8125 0 "/></g></g></g><g clip-path="url(#e8b05b4fc2)"><path fill="#1a2056" d="M 1.558594 143.222656 L 1.558594 142.820312 C 48.246094 142.820312 51.640625 138.929688 51.640625 117.089844 L 52.414062 117.089844 C 52.414062 138.929688 55.8125 142.820312 102.503906 142.820312 L 102.503906 143.222656 C 55.8125 143.222656 52.414062 147.109375 52.414062 168.949219 L 51.640625 168.949219 C 51.640625 147.109375 48.246094 143.222656 1.558594 143.222656 " fill-opacity="1" fill-rule="evenodd"/></g><g clip-path="url(#43ac7bb344)"><path fill="#1a2056" d="M 738.402344 143.222656 L 738.402344 142.820312 C 785.089844 142.820312 788.484375 138.929688 788.484375 117.089844 L 789.257812 117.089844 C 789.257812 138.929688 792.660156 142.820312 839.347656 142.820312 L 839.347656 143.222656 C 792.660156 143.222656 789.257812 147.109375 789.257812 168.949219 L 788.484375 168.949219 C 788.484375 147.109375 785.089844 143.222656 738.402344 143.222656 " fill-opacity="1" fill-rule="evenodd"/></g></svg>