<svg xmlns="http://www.w3.org/2000/svg" xmlns:xlink="http://www.w3.org/1999/xlink" width="667" zoomAndPan="magnify" viewBox="0 0 500.25 130.499996" height="174" preserveAspectRatio="xMidYMid meet" version="1.0"><defs><g/></defs><path stroke-linecap="butt" transform="matrix(0.482109, 0, 0, 0.482109, 299.51106, 34.142196)" fill="none" stroke-linejoin="miter" d="M 24.37345 58.674478 C 24.37345 49.008289 24.494986 41.513549 29.664331 34.553569 C 32.37054 30.931787 37.531782 26.92919 44.872576 26.92919 C 53.282889 26.92919 61.782329 32.471247 65.655287 42.015899 L 65.655287 78.671254 C 65.655287 91.043651 63.572965 97.371642 59.578471 101.876589 C 55.859459 106.13036 51.079031 108.585394 45.026522 108.585394 C 38.447356 108.585394 33.034938 105.619907 29.664331 100.961015 C 25.661735 95.548598 24.37345 89.755366 24.37345 77.626041 Z M 80.993171 -5.942333 L 89.905834 -5.942333 L 89.905834 -8.648542 L 65.655287 -8.648542 L 65.655287 36.222668 C 61.652691 29.384224 53.404426 24.222982 44.240587 24.222982 C 34.169277 24.222982 24.494986 29.011513 18.329043 35.971493 C 12.122589 42.931473 9.035566 51.836034 9.035566 63.049785 L 9.035566 72.083985 C 9.035566 84.464485 11.741775 92.461575 18.831393 100.20749 C 25.41056 107.289006 35.457562 111.291602 45.026522 111.291602 C 60.615581 111.291602 74.689487 101.374239 79.072897 86.919519 C 80.612357 82.009451 80.993171 78.006855 80.993171 72.464799 Z M 156.839938 93.498685 C 152.958878 103.043337 144.459438 108.585394 136.049124 108.585394 C 128.716433 108.585394 123.55519 104.582797 120.840879 100.961015 C 115.679637 94.001035 115.549998 86.538705 115.549998 76.840106 L 115.549998 56.84333 C 115.549998 44.470933 117.63232 38.175351 121.634916 33.637995 C 125.345825 29.384224 130.134357 26.92919 136.211173 26.92919 C 142.757929 26.92919 148.178449 29.894677 151.549056 34.553569 C 155.54355 39.965987 156.839938 45.759218 156.839938 57.888543 Z M 172.169719 63.430599 C 172.169719 51.050099 169.46351 43.053009 162.381994 35.307094 C 155.794725 28.225578 145.747723 24.222982 136.211173 24.222982 C 120.589704 24.222982 106.515798 34.172755 102.140491 48.595065 C 100.592928 53.505133 100.220217 57.507729 100.220217 63.049785 L 100.220217 72.464799 C 100.220217 83.67855 103.307239 92.583111 109.505592 99.543091 C 115.679637 106.503071 125.345825 111.291602 135.425238 111.291602 C 144.589076 111.291602 152.958878 106.13036 156.961474 99.291916 L 156.961474 110.003317 L 181.082382 110.003317 L 181.082382 107.289006 L 172.169719 107.289006 Z M 231.001401 99.17038 C 230.588177 103.667224 227.630794 106.503071 223.757836 106.503071 C 220.29 106.503071 216.546681 104.080447 216.546681 97.873992 L 216.546681 28.095939 L 231.122937 28.095939 L 231.122937 25.38973 L 216.546681 25.38973 L 216.546681 -8.648542 L 201.176388 -8.648542 L 201.176388 25.38973 L 192.296134 25.38973 L 192.296134 28.095939 L 201.176388 28.095939 L 201.176388 88.839793 C 201.176388 94.381849 201.711147 99.040741 203.380246 102.508578 C 206.345732 108.585394 211.636614 111.291602 219.75524 111.291602 C 227.881969 111.291602 233.424025 106.000721 233.837248 99.17038 Z M 318.556167 69.628951 L 318.556167 63.714184 C 318.556167 48.214252 314.432034 40.3468 306.556481 33.135645 C 300.382435 27.46395 290.967422 24.222982 282.719157 24.222982 C 261.434096 24.222982 246.728201 40.217162 246.728201 62.134212 L 246.728201 72.464799 C 246.728201 84.586021 249.43441 92.583111 256.143215 99.956315 C 262.438796 106.786656 272.015858 111.291602 283.472682 111.291602 C 298.559391 111.291602 310.178263 103.294512 317.138243 88.086267 L 314.683209 86.919519 C 307.342415 101.876589 297.392642 108.585394 283.853496 108.585394 C 273.806493 108.585394 267.478502 103.796863 264.521118 96.334532 C 262.31726 90.792476 262.066085 83.67855 262.066085 74.133898 L 262.066085 69.628951 Z M 303.347922 66.922743 L 262.066085 66.922743 L 262.066085 56.84333 C 262.066085 44.470933 264.140304 38.175351 268.142901 33.637995 C 271.85381 29.384224 276.642341 26.92919 282.719157 26.92919 C 289.265913 26.92919 294.686433 29.894677 298.057041 34.553569 C 302.051534 39.965987 303.347922 45.759218 303.347922 57.888543 Z M 352.083987 80.089177 L 352.083987 -8.648542 L 336.746103 -8.648542 L 336.746103 80.089177 Z M 353.372272 102.257402 C 353.372272 97.217696 349.377778 93.24751 344.338072 93.24751 C 339.330775 93.24751 335.328179 97.217696 335.328179 102.257402 C 335.328179 107.289006 339.330775 111.291602 344.338072 111.291602 C 349.377778 111.291602 353.372272 107.289006 353.372272 102.257402 Z M 353.372272 102.257402 " stroke="#2f3288" stroke-width="2.41845" stroke-opacity="1" stroke-miterlimit="4"/><g fill="#1a2056" fill-opacity="1"><g transform="translate(299.51106, 87.174182)"><g><path d="M 11.75 -24.75 C 11.75 -29.421875 11.8125 -33.015625 14.296875 -36.375 C 15.609375 -38.125 18.09375 -40.046875 21.640625 -40.046875 C 25.6875 -40.046875 29.78125 -37.375 31.65625 -32.765625 L 31.65625 -15.109375 C 31.65625 -9.140625 30.65625 -6.09375 28.734375 -3.921875 C 26.921875 -1.859375 24.625 -0.6875 21.703125 -0.6875 C 18.53125 -0.6875 15.921875 -2.109375 14.296875 -4.359375 C 12.375 -6.96875 11.75 -9.765625 11.75 -15.609375 Z M 39.046875 -55.90625 L 43.34375 -55.90625 L 43.34375 -57.21875 L 31.65625 -57.21875 L 31.65625 -35.578125 C 29.71875 -38.859375 25.75 -41.359375 21.328125 -41.359375 C 16.484375 -41.359375 11.8125 -39.046875 8.828125 -35.703125 C 5.84375 -32.34375 4.359375 -28.046875 4.359375 -22.640625 L 4.359375 -18.28125 C 4.359375 -12.3125 5.65625 -8.453125 9.078125 -4.71875 C 12.25 -1.3125 17.09375 0.625 21.703125 0.625 C 29.234375 0.625 36 -4.171875 38.125 -11.125 C 38.859375 -13.5 39.046875 -15.421875 39.046875 -18.09375 Z M 39.046875 -55.90625 "/></g></g></g><g fill="#1a2056" fill-opacity="1"><g transform="translate(343.470179, 87.174182)"><g><path d="M 31.65625 -7.953125 C 29.78125 -3.359375 25.6875 -0.6875 21.640625 -0.6875 C 18.09375 -0.6875 15.609375 -2.609375 14.296875 -4.359375 C 11.8125 -7.71875 11.75 -11.3125 11.75 -15.984375 L 11.75 -25.625 C 11.75 -31.59375 12.75 -34.640625 14.671875 -36.8125 C 16.484375 -38.859375 18.78125 -40.046875 21.703125 -40.046875 C 24.875 -40.046875 27.484375 -38.625 29.109375 -36.375 C 31.03125 -33.765625 31.65625 -30.96875 31.65625 -25.125 Z M 39.046875 -22.453125 C 39.046875 -28.421875 37.75 -32.28125 34.328125 -36 C 31.15625 -39.421875 26.3125 -41.359375 21.703125 -41.359375 C 14.171875 -41.359375 7.40625 -36.5625 5.28125 -29.59375 C 4.546875 -27.234375 4.359375 -25.3125 4.359375 -22.640625 L 4.359375 -18.09375 C 4.359375 -12.6875 5.84375 -8.390625 8.828125 -5.03125 C 11.8125 -1.671875 16.484375 0.625 21.328125 0.625 C 25.75 0.625 29.78125 -1.859375 31.71875 -5.15625 L 31.71875 0 L 43.34375 0 L 43.34375 -1.3125 L 39.046875 -1.3125 Z M 39.046875 -22.453125 "/></g></g></g><g fill="#1a2056" fill-opacity="1"><g transform="translate(389.108079, 87.174182)"><g><path d="M 21.765625 -5.21875 C 21.578125 -3.046875 20.15625 -1.671875 18.28125 -1.671875 C 16.609375 -1.671875 14.796875 -2.859375 14.796875 -5.84375 L 14.796875 -39.484375 L 21.828125 -39.484375 L 21.828125 -40.796875 L 14.796875 -40.796875 L 14.796875 -57.21875 L 7.40625 -57.21875 L 7.40625 -40.796875 L 3.109375 -40.796875 L 3.109375 -39.484375 L 7.40625 -39.484375 L 7.40625 -10.203125 C 7.40625 -7.53125 7.65625 -5.28125 8.453125 -3.609375 C 9.890625 -0.6875 12.4375 0.625 16.359375 0.625 C 20.265625 0.625 22.953125 -1.921875 23.140625 -5.21875 Z M 21.765625 -5.21875 "/></g></g></g><g fill="#1a2056" fill-opacity="1"><g transform="translate(414.103225, 87.174182)"><g><path d="M 38.984375 -19.46875 L 38.984375 -22.328125 C 38.984375 -29.78125 37 -33.578125 33.203125 -37.0625 C 30.21875 -39.796875 25.6875 -41.359375 21.703125 -41.359375 C 11.4375 -41.359375 4.359375 -33.640625 4.359375 -23.078125 L 4.359375 -18.09375 C 4.359375 -12.25 5.65625 -8.390625 8.890625 -4.84375 C 11.9375 -1.546875 16.546875 0.625 22.078125 0.625 C 29.359375 0.625 34.953125 -3.234375 38.3125 -10.578125 L 37.125 -11.125 C 33.578125 -3.921875 28.796875 -0.6875 22.265625 -0.6875 C 17.40625 -0.6875 14.359375 -2.984375 12.9375 -6.59375 C 11.875 -9.265625 11.75 -12.6875 11.75 -17.28125 L 11.75 -19.46875 Z M 31.65625 -20.765625 L 11.75 -20.765625 L 11.75 -25.625 C 11.75 -31.59375 12.75 -34.640625 14.671875 -36.8125 C 16.484375 -38.859375 18.78125 -40.046875 21.703125 -40.046875 C 24.875 -40.046875 27.484375 -38.625 29.109375 -36.375 C 31.03125 -33.765625 31.65625 -30.96875 31.65625 -25.125 Z M 31.65625 -20.765625 "/></g></g></g><g fill="#1a2056" fill-opacity="1"><g transform="translate(456.197032, 87.174182)"><g><path d="M 13.0625 -14.421875 L 13.0625 -57.21875 L 5.65625 -57.21875 L 5.65625 -14.421875 Z M 13.6875 -3.734375 C 13.6875 -6.15625 11.75 -8.078125 9.328125 -8.078125 C 6.90625 -8.078125 4.96875 -6.15625 4.96875 -3.734375 C 4.96875 -1.3125 6.90625 0.625 9.328125 0.625 C 11.75 0.625 13.6875 -1.3125 13.6875 -3.734375 Z M 13.6875 -3.734375 "/></g></g></g><g fill="#1a2056" fill-opacity="1"><g transform="translate(31.183222, 84.474204)"><g><path d="M 14 0.46875 C 11.46875 0.46875 9.191406 0.0664062 7.171875 -0.734375 C 5.160156 -1.546875 3.578125 -2.671875 2.421875 -4.109375 C 1.265625 -5.554688 0.6875 -7.222656 0.6875 -9.109375 C 0.6875 -9.378906 0.726562 -9.859375 0.8125 -10.546875 L 10.3125 -10.546875 C 10.238281 -9.359375 10.59375 -8.40625 11.375 -7.6875 C 12.164062 -6.976562 13.289062 -6.625 14.75 -6.625 C 15.976562 -6.625 16.992188 -6.851562 17.796875 -7.3125 C 18.609375 -7.78125 19.015625 -8.4375 19.015625 -9.28125 C 19.015625 -10.082031 18.582031 -10.722656 17.71875 -11.203125 C 16.851562 -11.679688 15.421875 -12.269531 13.421875 -12.96875 C 11.347656 -13.65625 9.609375 -14.332031 8.203125 -15 C 6.804688 -15.675781 5.609375 -16.648438 4.609375 -17.921875 C 3.609375 -19.191406 3.109375 -20.785156 3.109375 -22.703125 C 3.109375 -24.585938 3.664062 -26.285156 4.78125 -27.796875 C 5.894531 -29.316406 7.457031 -30.5 9.46875 -31.34375 C 11.488281 -32.1875 13.828125 -32.609375 16.484375 -32.609375 C 19.128906 -32.609375 21.429688 -32.175781 23.390625 -31.3125 C 25.347656 -30.445312 26.863281 -29.242188 27.9375 -27.703125 C 29.019531 -26.171875 29.5625 -24.445312 29.5625 -22.53125 L 29.5 -21.671875 L 20.578125 -21.671875 C 20.648438 -22.816406 20.300781 -23.734375 19.53125 -24.421875 C 18.757812 -25.117188 17.664062 -25.46875 16.25 -25.46875 C 15.132812 -25.46875 14.222656 -25.238281 13.515625 -24.78125 C 12.804688 -24.320312 12.453125 -23.6875 12.453125 -22.875 C 12.453125 -22.03125 12.921875 -21.328125 13.859375 -20.765625 C 14.796875 -20.210938 16.265625 -19.59375 18.265625 -18.90625 C 20.335938 -18.207031 22.054688 -17.519531 23.421875 -16.84375 C 24.785156 -16.175781 25.957031 -15.238281 26.9375 -14.03125 C 27.914062 -12.820312 28.40625 -11.316406 28.40625 -9.515625 C 28.40625 -7.429688 27.78125 -5.640625 26.53125 -4.140625 C 25.28125 -2.648438 23.570312 -1.507812 21.40625 -0.71875 C 19.238281 0.0703125 16.769531 0.46875 14 0.46875 Z M 14 0.46875 "/></g></g></g><g fill="#1a2056" fill-opacity="1"><g transform="translate(63.335918, 84.474204)"><g><path d="M 1.5625 -16.140625 C 2.132812 -19.441406 3.265625 -22.335938 4.953125 -24.828125 C 6.640625 -27.328125 8.675781 -29.25 11.0625 -30.59375 C 13.445312 -31.9375 15.960938 -32.609375 18.609375 -32.609375 C 20.878906 -32.609375 22.78125 -32.144531 24.3125 -31.21875 C 25.851562 -30.300781 26.96875 -29.097656 27.65625 -27.609375 L 28.46875 -32.15625 L 38.328125 -32.15625 L 32.609375 0 L 22.765625 0 L 23.625 -4.546875 C 22.394531 -3.054688 20.835938 -1.847656 18.953125 -0.921875 C 17.078125 0.00390625 15.003906 0.46875 12.734375 0.46875 C 10.460938 0.46875 8.453125 -0.0507812 6.703125 -1.09375 C 4.960938 -2.132812 3.609375 -3.601562 2.640625 -5.5 C 1.679688 -7.40625 1.203125 -9.644531 1.203125 -12.21875 C 1.203125 -13.445312 1.320312 -14.753906 1.5625 -16.140625 Z M 25.640625 -16.078125 C 25.753906 -16.765625 25.8125 -17.398438 25.8125 -17.984375 C 25.8125 -19.859375 25.265625 -21.332031 24.171875 -22.40625 C 23.078125 -23.488281 21.6875 -24.03125 20 -24.03125 C 18.039062 -24.03125 16.253906 -23.328125 14.640625 -21.921875 C 13.023438 -20.523438 12.003906 -18.597656 11.578125 -16.140625 C 11.460938 -15.441406 11.40625 -14.804688 11.40625 -14.234375 C 11.40625 -12.347656 11.953125 -10.859375 13.046875 -9.765625 C 14.140625 -8.671875 15.515625 -8.125 17.171875 -8.125 C 19.128906 -8.125 20.914062 -8.832031 22.53125 -10.25 C 24.144531 -11.675781 25.179688 -13.617188 25.640625 -16.078125 Z M 25.640625 -16.078125 "/></g></g></g><g fill="#1a2056" fill-opacity="1"><g transform="translate(102.460794, 84.474204)"><g><path d="M 16.71875 -9.21875 L 27.78125 -32.15625 L 38.328125 -32.15625 L 21.203125 0 L 8.984375 0 L 3.28125 -32.15625 L 13.765625 -32.15625 Z M 16.71875 -9.21875 "/></g></g></g><g fill="#1a2056" fill-opacity="1"><g transform="translate(138.531737, 84.474204)"><g><path d="M 20.6875 -32.609375 C 24.832031 -32.609375 28.125 -31.484375 30.5625 -29.234375 C 33.007812 -26.992188 34.234375 -23.929688 34.234375 -20.046875 C 34.234375 -18.785156 34.132812 -17.65625 33.9375 -16.65625 C 33.78125 -15.769531 33.550781 -14.828125 33.25 -13.828125 L 10.953125 -13.828125 C 10.910156 -13.597656 10.890625 -13.234375 10.890625 -12.734375 C 10.890625 -11.046875 11.347656 -9.757812 12.265625 -8.875 C 13.191406 -7.988281 14.425781 -7.546875 15.96875 -7.546875 C 18.425781 -7.546875 20.304688 -8.582031 21.609375 -10.65625 L 32.09375 -10.65625 C 30.707031 -7.394531 28.457031 -4.722656 25.34375 -2.640625 C 22.238281 -0.566406 18.75 0.46875 14.875 0.46875 C 10.71875 0.46875 7.398438 -0.679688 4.921875 -2.984375 C 2.441406 -5.296875 1.203125 -8.429688 1.203125 -12.390625 C 1.203125 -13.578125 1.320312 -14.804688 1.5625 -16.078125 C 2.132812 -19.421875 3.320312 -22.335938 5.125 -24.828125 C 6.9375 -27.328125 9.1875 -29.25 11.875 -30.59375 C 14.5625 -31.9375 17.5 -32.609375 20.6875 -32.609375 Z M 24.265625 -18.84375 C 24.335938 -19.382812 24.375 -19.75 24.375 -19.9375 C 24.375 -21.476562 23.894531 -22.660156 22.9375 -23.484375 C 21.976562 -24.304688 20.707031 -24.71875 19.125 -24.71875 C 17.4375 -24.71875 15.945312 -24.207031 14.65625 -23.1875 C 13.375 -22.175781 12.445312 -20.726562 11.875 -18.84375 Z M 24.265625 -18.84375 "/></g></g></g><g fill="#1a2056" fill-opacity="1"><g transform="translate(174.026469, 84.474204)"><g/></g></g><g fill="#1a2056" fill-opacity="1"><g transform="translate(187.336998, 84.474204)"><g><path d="M 14 -11.0625 C 13.957031 -10.875 13.9375 -10.625 13.9375 -10.3125 C 13.9375 -9.625 14.140625 -9.125 14.546875 -8.8125 C 14.953125 -8.507812 15.613281 -8.359375 16.53125 -8.359375 L 20.046875 -8.359375 L 18.5625 0 L 13.546875 0 C 7.085938 0 3.859375 -2.707031 3.859375 -8.125 C 3.859375 -8.925781 3.957031 -9.941406 4.15625 -11.171875 L 6.453125 -23.96875 L 2.53125 -23.96875 L 3.96875 -32.15625 L 7.890625 -32.15625 L 9.28125 -39.984375 L 19.125 -39.984375 L 17.75 -32.15625 L 24.203125 -32.15625 L 22.765625 -23.96875 L 16.3125 -23.96875 Z M 14 -11.0625 "/></g></g></g><g fill="#1a2056" fill-opacity="1"><g transform="translate(210.731245, 84.474204)"><g><path d="M 26.109375 -32.5 C 29.253906 -32.5 31.738281 -31.59375 33.5625 -29.78125 C 35.382812 -27.976562 36.296875 -25.46875 36.296875 -22.25 C 36.296875 -21.164062 36.179688 -20.007812 35.953125 -18.78125 L 32.609375 0 L 22.8125 0 L 25.9375 -17.453125 C 26.050781 -18.109375 26.109375 -18.6875 26.109375 -19.1875 C 26.109375 -20.800781 25.65625 -22.050781 24.75 -22.9375 C 23.84375 -23.820312 22.582031 -24.265625 20.96875 -24.265625 C 19.050781 -24.265625 17.4375 -23.664062 16.125 -22.46875 C 14.820312 -21.28125 13.976562 -19.609375 13.59375 -17.453125 L 13.59375 -17.578125 L 10.484375 0 L 0.640625 0 L 8.1875 -42.640625 L 18.03125 -42.640625 L 15.4375 -27.890625 C 16.707031 -29.304688 18.265625 -30.425781 20.109375 -31.25 C 21.953125 -32.082031 23.953125 -32.5 26.109375 -32.5 Z M 26.109375 -32.5 "/></g></g></g><g fill="#1a2056" fill-opacity="1"><g transform="translate(249.568015, 84.474204)"><g><path d="M 20.6875 -32.609375 C 24.832031 -32.609375 28.125 -31.484375 30.5625 -29.234375 C 33.007812 -26.992188 34.234375 -23.929688 34.234375 -20.046875 C 34.234375 -18.785156 34.132812 -17.65625 33.9375 -16.65625 C 33.78125 -15.769531 33.550781 -14.828125 33.25 -13.828125 L 10.953125 -13.828125 C 10.910156 -13.597656 10.890625 -13.234375 10.890625 -12.734375 C 10.890625 -11.046875 11.347656 -9.757812 12.265625 -8.875 C 13.191406 -7.988281 14.425781 -7.546875 15.96875 -7.546875 C 18.425781 -7.546875 20.304688 -8.582031 21.609375 -10.65625 L 32.09375 -10.65625 C 30.707031 -7.394531 28.457031 -4.722656 25.34375 -2.640625 C 22.238281 -0.566406 18.75 0.46875 14.875 0.46875 C 10.71875 0.46875 7.398438 -0.679688 4.921875 -2.984375 C 2.441406 -5.296875 1.203125 -8.429688 1.203125 -12.390625 C 1.203125 -13.578125 1.320312 -14.804688 1.5625 -16.078125 C 2.132812 -19.421875 3.320312 -22.335938 5.125 -24.828125 C 6.9375 -27.328125 9.1875 -29.25 11.875 -30.59375 C 14.5625 -31.9375 17.5 -32.609375 20.6875 -32.609375 Z M 24.265625 -18.84375 C 24.335938 -19.382812 24.375 -19.75 24.375 -19.9375 C 24.375 -21.476562 23.894531 -22.660156 22.9375 -23.484375 C 21.976562 -24.304688 20.707031 -24.71875 19.125 -24.71875 C 17.4375 -24.71875 15.945312 -24.207031 14.65625 -23.1875 C 13.375 -22.175781 12.445312 -20.726562 11.875 -18.84375 Z M 24.265625 -18.84375 "/></g></g></g></svg>