<svg version="1.0" preserveAspectRatio="xMidYMid meet" viewBox="189.9390243902439 0 1026.168699186992 327.335988224" zoomAndPan="magnify" xmlns:xlink="http://www.w3.org/1999/xlink" xmlns="http://www.w3.org/2000/svg" style="max-height: 500px" width="1026.168699186992" height="327.335988224"><defs><filter id="8d6c6addfd" height="100%" width="100%" y="0%" x="0%"><feColorMatrix color-interpolation-filters="sRGB" values="0 0 0 0 1 0 0 0 0 1 0 0 0 0 1 0 0 0 1 0"/></filter><clipPath id="9557712dc8"><path clip-rule="nonzero" d="M 191.453125 0 L 1215.375 0 L 1215.375 329.066406 L 191.453125 329.066406 Z M 191.453125 0"/></clipPath><clipPath id="5c2685bb0a"><path clip-rule="nonzero" d="M 0.117188 153 L 1311.882812 153 L 1311.882812 874 L 0.117188 874 Z M 0.117188 153"/></clipPath><mask id="8adafb31ad"><g filter="url(#8d6c6addfd)"><rect fill-opacity="0.17" height="1067.399962" y="-88.949997" fill="#000000" width="1575" x="-131.25"/></g></mask><clipPath id="28b83278b7"><path clip-rule="nonzero" d="M 0.117188 1 L 1240 1 L 1240 270 L 0.117188 270 Z M 0.117188 1"/></clipPath><clipPath id="b86a9956a9"><path clip-rule="nonzero" d="M 72 450 L 1311.132812 450 L 1311.132812 720 L 72 720 Z M 72 450"/></clipPath><clipPath id="988c5e1932"><rect height="721" y="0" width="1312" x="0"/></clipPath></defs><g clip-path="url(#9557712dc8)"><path fill-rule="nonzero" fill-opacity="1" d="M 191.453125 0 L 1215.925781 0 L 1215.925781 329.066406 L 191.453125 329.066406 Z M 191.453125 0" fill="#1a2056"/></g><g clip-path="url(#5c2685bb0a)"><g mask="url(#8adafb31ad)"><g transform="matrix(1, 0, 0, 1, 0, 153)"><g clip-path="url(#988c5e1932)"><g clip-path="url(#28b83278b7)"><path fill-rule="nonzero" fill-opacity="1" d="M 881.859375 269.742188 C 802.335938 269.742188 713.523438 208.210938 637.480469 155.96875 C 575.371094 113.015625 521.386719 75.863281 492.363281 88.054688 C 481.332031 92.699219 474.949219 103.726562 471.464844 122.300781 C 458.695312 193.699219 425.027344 238.976562 382.070312 242.460938 C 358.273438 244.203125 333.890625 233.171875 311.835938 210.535156 C 287.453125 186.15625 265.976562 148.421875 249.722656 101.40625 C 231.730469 50.902344 203.867188 19.558594 166.136719 7.949219 C 91.253906 -15.269531 1.859375 49.164062 1.28125 49.742188 L 0.117188 48.582031 C 1.28125 48 90.671875 -17.59375 166.714844 6.207031 C 205.027344 17.816406 233.46875 49.742188 251.464844 101.40625 C 282.808594 191.378906 332.730469 244.78125 382.070312 240.71875 C 424.445312 237.238281 457.535156 192.539062 470.304688 121.722656 C 473.785156 102.566406 480.753906 90.957031 492.363281 86.3125 C 521.964844 74.121094 575.949219 111.273438 638.640625 154.808594 C 740.804688 225.046875 868.511719 313.277344 960.804688 241.878906 C 1130.886719 110.691406 1237.691406 81.089844 1238.851562 81.089844 L 1239.433594 82.832031 C 1238.273438 82.832031 1132.046875 113.015625 962.546875 243.621094 C 937.007812 261.617188 910.304688 269.742188 881.859375 269.742188 Z M 881.859375 269.742188" fill="#ffffff"/></g><path fill-rule="nonzero" fill-opacity="1" d="M 887.085938 274.96875 C 809.300781 274.96875 720.488281 214.597656 645.609375 164.097656 C 582.917969 121.140625 528.933594 84.570312 499.910156 96.761719 C 488.878906 101.40625 481.914062 112.433594 478.429688 131.589844 C 466.242188 201.246094 432.574219 244.78125 389.617188 248.847656 C 337.375 253.488281 284.550781 200.085938 250.882812 109.53125 C 232.890625 60.773438 205.027344 30.585938 167.875 19.558594 C 92.996094 -3.082031 3.601562 60.773438 3.019531 61.351562 L 1.859375 60.191406 C 3.019531 59.609375 92.414062 -5.402344 168.457031 17.816406 C 206.1875 29.425781 234.632812 59.609375 252.625 108.953125 C 284.550781 194.863281 334.472656 247.105469 383.234375 247.105469 C 385.554688 247.105469 387.296875 247.105469 389.617188 247.105469 C 431.992188 243.042969 464.5 200.085938 476.6875 131.007812 C 480.171875 111.855469 487.71875 99.664062 498.746094 95.019531 C 528.351562 82.25 582.917969 119.398438 646.1875 162.355469 C 746.609375 230.851562 871.414062 315.601562 961.964844 248.847656 C 1129.722656 124.042969 1238.273438 92.117188 1238.855469 92.117188 L 1239.433594 93.859375 C 1238.273438 94.441406 1130.304688 125.785156 962.546875 250.585938 C 939.910156 267.421875 913.789062 274.96875 887.085938 274.96875 Z M 887.085938 274.96875" fill="#ffffff"/><path fill-rule="nonzero" fill-opacity="1" d="M 891.148438 279.609375 C 813.945312 279.609375 726.875 220.984375 653.152344 171.0625 C 590.460938 128.6875 536.476562 92.117188 507.453125 104.886719 C 496.425781 109.53125 489.460938 121.140625 485.976562 140.296875 C 473.785156 208.792969 441.859375 250.007812 398.90625 254.652344 C 373.945312 256.972656 347.242188 246.523438 322.28125 223.886719 C 295.582031 199.503906 271.78125 162.9375 253.785156 117.078125 C 235.792969 70.640625 207.929688 41.617188 171.359375 31.167969 C 94.15625 8.527344 4.761719 72.382812 4.183594 72.960938 L 3.019531 71.800781 C 4.183594 71.21875 94.15625 6.789062 170.777344 28.847656 C 207.929688 39.875 236.371094 68.898438 254.367188 115.917969 C 272.941406 161.195312 296.160156 198.34375 322.863281 222.144531 C 347.824219 244.78125 373.945312 255.230469 398.324219 252.328125 C 440.699219 248.265625 472.046875 207.050781 484.234375 139.136719 C 487.71875 119.398438 495.265625 107.789062 506.875 102.566406 C 537.058594 89.796875 591.625 126.367188 654.894531 169.320312 C 753.574219 235.496094 876.054688 318.503906 964.867188 254.652344 C 1130.886719 136.234375 1240.59375 102.566406 1241.175781 102.566406 L 1241.757812 104.308594 C 1240.59375 104.886719 1131.464844 137.976562 965.449219 256.390625 C 942.230469 272.644531 917.269531 279.609375 891.148438 279.609375 Z M 891.148438 279.609375" fill="#ffffff"/><path fill-rule="nonzero" fill-opacity="1" d="M 897.535156 285.996094 C 822.070312 285.996094 735.582031 228.53125 662.441406 179.769531 C 599.167969 137.976562 545.183594 101.40625 515.582031 114.175781 C 504.550781 118.820312 497.007812 130.429688 493.523438 150.164062 C 481.914062 215.179688 450.566406 255.8125 407.613281 260.457031 C 353.046875 266.261719 292.679688 212.855469 255.527344 124.042969 C 236.953125 79.925781 209.089844 52.066406 172.519531 42.195312 C 95.898438 20.71875 6.503906 83.992188 5.921875 84.570312 L 4.761719 83.410156 C 5.921875 82.832031 95.898438 18.398438 173.101562 40.457031 C 209.671875 50.902344 238.113281 78.765625 257.269531 123.464844 C 294.417969 211.695312 353.628906 265.097656 407.613281 259.292969 C 449.40625 254.652344 480.171875 214.597656 492.363281 150.164062 C 495.84375 130.429688 503.390625 118.238281 515 113.015625 C 545.183594 100.246094 600.332031 136.8125 663.601562 178.609375 C 759.960938 243.042969 880.121094 323.148438 967.191406 263.359375 C 1098.378906 173.964844 1205.1875 127.527344 1242.917969 115.335938 L 1243.496094 117.078125 C 1205.1875 129.269531 1098.957031 175.707031 967.769531 265.097656 C 946.292969 279.609375 922.496094 285.996094 897.535156 285.996094 Z M 897.535156 285.996094" fill="#ffffff"/><path fill-rule="nonzero" fill-opacity="1" d="M 901.597656 291.222656 C 827.296875 291.222656 741.964844 234.914062 669.988281 187.894531 C 607.296875 146.101562 552.730469 110.113281 523.128906 122.882812 C 511.519531 127.527344 504.550781 139.714844 501.070312 159.453125 C 489.460938 222.726562 458.695312 262.195312 416.898438 267.421875 C 390.199219 270.902344 361.175781 260.457031 333.3125 237.238281 C 304.289062 213.4375 277.585938 176.867188 257.269531 132.171875 C 238.113281 89.214844 209.671875 62.511719 173.679688 53.226562 C 97.058594 32.328125 7.664062 95.601562 7.085938 96.179688 L 5.921875 95.019531 C 7.085938 94.441406 96.476562 30.585938 174.261719 51.484375 C 210.832031 61.351562 239.273438 88.054688 258.429688 131.007812 C 278.746094 175.707031 304.867188 211.695312 333.890625 235.496094 C 361.753906 258.132812 390.199219 268.582031 416.320312 265.097656 C 457.535156 259.875 487.71875 221.5625 498.746094 158.871094 C 502.230469 138.554688 509.777344 126.367188 521.964844 121.140625 C 552.730469 107.789062 607.296875 144.359375 671.148438 186.15625 C 765.765625 248.265625 883.601562 326.050781 968.351562 270.324219 C 1097.21875 185.574219 1205.1875 139.136719 1243.496094 126.367188 L 1244.078125 128.105469 C 1205.1875 140.878906 1097.796875 187.316406 968.933594 272.066406 C 948.617188 285.417969 925.398438 291.222656 901.597656 291.222656 Z M 901.597656 291.222656" fill="#ffffff"/><path fill-rule="nonzero" fill-opacity="1" d="M 906.820312 297.605469 C 833.679688 297.605469 749.511719 242.460938 678.113281 196.601562 C 614.84375 155.390625 559.695312 119.398438 530.09375 132.171875 C 518.484375 137.394531 510.9375 149.003906 507.453125 169.320312 C 492.363281 252.328125 449.40625 270.324219 425.605469 273.804688 C 368.722656 281.351562 301.386719 227.367188 258.429688 139.136719 C 239.273438 99.082031 211.410156 74.121094 176.003906 64.835938 C 135.371094 54.386719 91.832031 66.578125 62.808594 78.765625 C 30.882812 92.117188 8.246094 107.789062 8.246094 107.789062 L 7.085938 106.628906 C 8.246094 106.050781 98.21875 42.777344 176.582031 63.09375 C 212.574219 72.382812 241.015625 97.921875 260.171875 138.554688 C 302.546875 226.207031 369.300781 279.609375 425.605469 272.066406 C 466.242188 266.261719 494.683594 229.691406 505.714844 168.742188 C 509.195312 148.421875 517.324219 135.652344 529.511719 130.429688 C 560.277344 117.078125 615.421875 153.066406 679.273438 194.863281 C 772.152344 255.230469 887.085938 330.691406 970.09375 278.449219 C 1097.796875 198.925781 1205.765625 151.90625 1244.660156 138.554688 L 1245.238281 140.296875 C 1206.347656 154.230469 1098.378906 200.667969 970.675781 280.191406 C 951.519531 292.382812 929.460938 297.605469 906.820312 297.605469 Z M 906.820312 297.605469" fill="#ffffff"/><path fill-rule="nonzero" fill-opacity="1" d="M 912.625 303.410156 C 840.648438 303.410156 757.058594 249.425781 686.820312 204.148438 C 622.96875 162.9375 567.824219 127.527344 537.640625 140.878906 C 526.03125 146.101562 518.484375 158.292969 515 178.609375 C 504.550781 237.816406 476.6875 273.804688 436.054688 279.609375 C 378.007812 288.320312 306.03125 233.753906 261.332031 146.683594 C 241.597656 108.371094 213.734375 84.570312 178.324219 75.863281 C 137.691406 65.996094 94.15625 78.1875 64.550781 90.375 C 32.625 103.726562 9.988281 119.398438 9.988281 119.398438 L 8.824219 118.238281 C 9.988281 117.660156 99.960938 54.96875 178.90625 74.121094 C 214.894531 82.832031 242.757812 106.628906 263.074219 145.519531 C 307.769531 232.011719 379.167969 286.578125 436.054688 277.871094 C 475.527344 272.066406 503.390625 236.074219 513.839844 178.027344 C 517.324219 157.132812 525.449219 144.359375 537.640625 139.136719 C 568.984375 125.785156 624.128906 161.195312 688.5625 202.988281 C 779.117188 261.617188 891.730469 334.175781 972.996094 285.996094 C 1130.304688 192.539062 1245.820312 150.746094 1246.980469 150.164062 L 1247.5625 151.90625 C 1246.398438 152.488281 1130.886719 194.28125 973.578125 287.738281 C 954.421875 298.765625 934.105469 303.410156 912.625 303.410156 Z M 912.625 303.410156" fill="#ffffff"/><path fill-rule="nonzero" fill-opacity="1" d="M 917.269531 308.054688 C 894.050781 308.054688 867.929688 302.25 838.90625 291.222656 C 790.726562 272.066406 739.644531 240.140625 694.949219 211.695312 C 631.09375 171.0625 575.371094 135.652344 545.183594 149.003906 C 532.996094 154.230469 525.449219 167 521.964844 187.316406 C 511.519531 244.203125 484.816406 279.03125 445.34375 285.996094 C 386.136719 295.863281 311.253906 241.878906 262.492188 154.230469 C 242.757812 117.078125 214.894531 95.019531 180.066406 86.894531 C 138.851562 77.605469 95.316406 89.796875 65.710938 101.984375 C 33.785156 115.335938 11.148438 131.007812 11.148438 131.007812 L 9.988281 129.847656 C 11.148438 129.269531 100.542969 67.15625 180.066406 85.152344 C 215.476562 93.277344 243.917969 115.917969 264.234375 152.488281 C 312.414062 239.558594 387.296875 292.960938 445.34375 283.675781 C 494.683594 275.546875 513.257812 226.207031 520.226562 186.734375 C 523.707031 165.839844 531.835938 153.066406 544.605469 147.261719 C 575.949219 133.332031 631.675781 168.742188 696.109375 209.953125 C 740.804688 238.398438 791.308594 270.902344 839.484375 289.480469 C 894.632812 310.957031 938.746094 312.117188 973.578125 292.382812 C 1129.144531 205.308594 1245.820312 161.195312 1246.980469 160.613281 L 1247.5625 162.355469 C 1246.398438 162.9375 1129.722656 207.050781 974.15625 294.125 C 957.902344 303.410156 938.746094 308.054688 917.269531 308.054688 Z M 917.269531 308.054688" fill="#ffffff"/><path fill-rule="nonzero" fill-opacity="1" d="M 922.496094 315.019531 C 854 315.019531 775.054688 265.097656 703.65625 220.402344 C 639.222656 179.769531 584.078125 144.941406 552.730469 158.292969 C 540.542969 163.515625 532.996094 176.285156 528.933594 197.183594 C 521.964844 236.074219 503.390625 283.675781 455.210938 292.382812 C 396.003906 303.410156 315.898438 248.265625 264.234375 161.195312 C 243.917969 126.945312 216.054688 106.050781 181.808594 98.503906 C 140.59375 89.214844 96.476562 101.984375 66.875 114.175781 C 34.949219 127.527344 12.308594 142.617188 12.308594 143.199219 L 11.726562 141.457031 C 12.890625 140.878906 102.863281 79.347656 182.96875 96.761719 C 217.796875 104.308594 246.242188 125.785156 266.558594 160.613281 C 317.640625 246.523438 397.164062 301.667969 455.792969 290.640625 C 493.523438 283.675781 518.484375 251.167969 528.351562 196.601562 C 532.414062 175.125 539.960938 162.355469 552.730469 156.550781 C 584.65625 142.617188 640.382812 178.027344 704.816406 218.660156 C 795.949219 276.128906 899.273438 341.140625 976.480469 300.507812 C 1129.722656 219.824219 1248.140625 173.964844 1249.300781 173.382812 L 1249.882812 175.125 C 1248.722656 175.707031 1130.304688 221.5625 977.058594 302.25 C 960.226562 310.957031 941.648438 315.019531 922.496094 315.019531 Z M 922.496094 315.019531" fill="#ffffff"/><path fill-rule="nonzero" fill-opacity="1" d="M 928.300781 320.824219 C 860.964844 320.824219 783.179688 272.066406 712.941406 227.949219 C 648.511719 187.316406 592.203125 152.488281 560.859375 166.417969 C 548.667969 171.644531 540.542969 184.992188 537.058594 205.890625 C 527.769531 259.292969 502.808594 291.222656 465.660156 298.765625 C 406.453125 310.375 322.863281 255.8125 267.136719 168.742188 C 246.242188 136.234375 218.378906 116.496094 184.128906 109.53125 C 142.335938 100.824219 98.21875 113.59375 68.613281 125.785156 C 36.6875 139.136719 14.050781 154.230469 14.050781 154.230469 L 12.890625 153.066406 C 12.890625 153.066406 35.527344 137.394531 68.035156 124.042969 C 97.636719 111.855469 142.335938 99.082031 184.710938 107.789062 C 219.539062 114.757812 247.402344 135.074219 268.878906 167.578125 C 323.445312 254.070312 406.453125 308.636719 465.078125 297.027344 C 501.070312 290.058594 525.449219 258.132812 534.738281 205.890625 C 538.800781 184.414062 546.925781 171.0625 559.695312 165.257812 C 591.625 150.746094 647.929688 186.15625 712.941406 226.789062 C 801.753906 282.511719 902.757812 345.203125 977.640625 308.054688 C 1128.5625 233.171875 1248.722656 185.574219 1249.882812 184.992188 L 1250.464844 186.734375 C 1249.300781 187.316406 1129.144531 234.914062 978.21875 309.796875 C 963.128906 317.34375 945.714844 320.824219 928.300781 320.824219 Z M 928.300781 320.824219" fill="#ffffff"/><path fill-rule="nonzero" fill-opacity="1" d="M 933.523438 326.628906 C 867.347656 326.628906 790.726562 279.03125 721.070312 236.074219 C 656.636719 195.441406 600.332031 161.195312 568.984375 175.125 C 556.214844 180.929688 548.085938 193.699219 544.605469 215.179688 C 535.316406 266.261719 512.097656 297.605469 476.6875 305.152344 C 447.085938 311.539062 409.933594 301.089844 371.042969 276.707031 C 333.890625 252.910156 297.902344 216.921875 269.460938 176.285156 C 244.5 140.878906 197.480469 103.148438 110.410156 124.625 C 58.167969 137.394531 16.371094 165.839844 15.792969 166.417969 L 14.628906 165.257812 C 15.210938 165.257812 57.585938 136.234375 109.828125 123.464844 C 158.589844 111.273438 225.921875 110.691406 270.621094 176.285156 C 298.484375 216.917969 334.472656 252.328125 371.625 276.128906 C 409.933594 300.507812 447.085938 310.957031 475.527344 304.570312 C 510.355469 297.027344 533.574219 266.261719 542.28125 215.757812 C 546.347656 193.699219 554.472656 180.351562 567.824219 173.964844 C 600.332031 159.453125 656.636719 194.28125 722.230469 234.914062 C 808.722656 288.320312 907.402344 349.269531 980.542969 315.601562 C 1129.722656 247.105469 1251.042969 197.183594 1252.203125 196.601562 L 1252.785156 198.34375 C 1251.625 198.925781 1130.304688 248.847656 981.121094 317.34375 C 966.609375 323.148438 950.355469 326.628906 933.523438 326.628906 Z M 933.523438 326.628906" fill="#ffffff"/><path fill-rule="nonzero" fill-opacity="1" d="M 939.328125 332.433594 C 874.316406 332.433594 798.273438 285.996094 729.777344 244.203125 C 664.183594 204.148438 607.875 169.902344 575.949219 184.414062 C 563.179688 190.21875 555.054688 203.570312 550.988281 225.046875 C 542.28125 274.386719 520.226562 303.992188 485.976562 312.117188 C 455.792969 318.503906 418.0625 308.636719 376.847656 283.09375 C 338.535156 259.292969 300.804688 223.886719 271.199219 183.253906 C 225.921875 122.300781 159.167969 123.464844 111.570312 135.652344 C 59.328125 149.003906 17.53125 176.867188 16.953125 176.867188 L 15.792969 175.707031 C 16.371094 175.707031 58.167969 147.261719 110.410156 133.910156 C 158.589844 121.722656 226.503906 119.980469 272.363281 182.089844 C 326.925781 255.230469 419.800781 324.886719 485.394531 309.796875 C 519.0625 301.667969 540.542969 273.226562 549.25 224.464844 C 553.3125 202.40625 561.4375 188.476562 574.789062 182.671875 C 607.875 168.160156 664.183594 202.40625 730.355469 243.042969 C 815.105469 294.703125 910.304688 353.332031 982.285156 323.148438 C 1129.144531 260.457031 1252.203125 208.792969 1253.367188 208.210938 L 1253.945312 209.953125 C 1252.785156 210.535156 1129.722656 262.195312 982.863281 324.886719 C 969.511719 329.53125 955 332.433594 939.328125 332.433594 Z M 939.328125 332.433594" fill="#ffffff"/><path fill-rule="nonzero" fill-opacity="1" d="M 945.132812 338.238281 C 881.28125 338.238281 806.398438 292.960938 739.0625 252.328125 C 673.46875 212.277344 616.582031 178.027344 584.078125 192.539062 C 570.726562 198.34375 562.597656 212.277344 558.535156 234.335938 C 549.828125 281.933594 528.933594 310.375 495.84375 318.503906 C 465.660156 326.050781 426.769531 316.179688 383.234375 289.480469 C 344.339844 265.679688 304.289062 229.691406 272.941406 190.796875 C 226.503906 132.75 159.75 135.074219 112.152344 147.261719 C 60.488281 160.613281 18.695312 187.894531 18.113281 188.476562 L 16.953125 187.316406 C 17.53125 187.316406 59.328125 159.453125 110.988281 146.101562 C 159.167969 133.910156 226.503906 131.007812 274.101562 190.21875 C 305.449219 229.109375 345.5 265.097656 383.8125 288.320312 C 426.769531 314.441406 465.660156 324.308594 495.265625 316.761719 C 527.769531 308.636719 548.085938 280.773438 556.792969 233.753906 C 560.859375 211.113281 569.566406 197.183594 583.496094 190.796875 C 616.582031 175.707031 674.050781 210.535156 740.226562 250.585938 C 822.070312 300.507812 915.527344 356.234375 985.1875 329.53125 C 1130.304688 273.226562 1254.527344 219.242188 1255.6875 218.660156 L 1256.269531 220.402344 C 1255.105469 220.984375 1130.886719 274.96875 985.765625 331.273438 C 972.996094 335.917969 959.644531 338.238281 945.132812 338.238281 Z M 945.132812 338.238281" fill="#ffffff"/><path fill-rule="nonzero" fill-opacity="1" d="M 950.9375 344.042969 C 888.828125 344.042969 814.527344 299.347656 747.769531 259.875 C 681.597656 220.402344 624.710938 186.15625 591.625 200.667969 C 578.273438 206.472656 570.144531 220.402344 566.082031 243.042969 C 557.957031 288.320312 537.640625 315.601562 506.292969 324.308594 C 441.859375 341.722656 340.859375 273.804688 274.683594 197.765625 C 227.085938 143.199219 160.328125 146.683594 112.730469 159.453125 C 61.070312 173.382812 19.855469 200.085938 19.273438 200.085938 L 18.113281 198.925781 C 18.695312 198.925781 59.90625 171.644531 112.152344 157.710938 C 160.328125 144.941406 227.664062 141.457031 275.84375 196.601562 C 342.597656 272.644531 442.441406 340.5625 506.292969 323.148438 C 537.058594 315.019531 556.214844 287.738281 564.339844 243.042969 C 568.402344 219.824219 577.113281 205.890625 591.042969 199.503906 C 624.710938 184.414062 682.175781 218.660156 748.933594 258.714844 C 829.039062 306.3125 919.011719 360.878906 986.347656 337.078125 C 1129.144531 287.15625 1255.6875 231.433594 1256.847656 230.851562 L 1257.429688 232.59375 C 1256.269531 233.171875 1129.722656 288.898438 986.925781 338.820312 C 975.898438 342.300781 963.707031 344.042969 950.9375 344.042969 Z M 950.9375 344.042969" fill="#ffffff"/><path fill-rule="nonzero" fill-opacity="1" d="M 957.324219 350.429688 C 896.371094 350.429688 823.234375 306.894531 757.058594 268 C 693.207031 230.269531 632.835938 194.28125 599.167969 209.375 C 585.820312 215.757812 577.113281 229.691406 573.046875 252.328125 C 565.5 295.863281 546.347656 322.566406 516.742188 331.273438 C 509.195312 333.59375 501.648438 334.757812 492.941406 334.757812 C 427.929688 334.757812 338.535156 271.484375 276.425781 205.308594 C 227.664062 154.230469 160.910156 158.292969 113.3125 171.0625 C 61.648438 184.992188 21.015625 211.113281 20.433594 211.695312 L 19.273438 210.535156 C 19.855469 210.535156 60.488281 183.832031 112.730469 169.902344 C 160.910156 157.132812 228.246094 152.488281 277.585938 204.148438 C 313.574219 242.460938 357.109375 277.871094 397.164062 301.089844 C 444.761719 328.953125 485.976562 338.820312 515.582031 329.53125 C 544.605469 320.824219 563.179688 294.703125 570.726562 252.328125 C 574.789062 229.109375 583.496094 214.597656 598.007812 208.210938 C 632.257812 192.539062 690.304688 226.789062 757.058594 266.839844 C 834.261719 312.699219 922.496094 364.941406 987.507812 344.625 C 1127.984375 301.089844 1256.269531 243.042969 1257.429688 242.460938 L 1258.007812 244.203125 C 1256.847656 244.78125 1128.5625 302.832031 988.089844 346.367188 C 978.800781 349.269531 968.351562 350.429688 957.324219 350.429688 Z M 957.324219 350.429688" fill="#ffffff"/><path fill-rule="nonzero" fill-opacity="1" d="M 963.128906 356.816406 C 903.339844 356.816406 830.777344 314.441406 766.347656 276.128906 C 701.914062 238.398438 640.964844 202.40625 607.296875 218.082031 C 593.363281 224.464844 584.65625 238.976562 580.59375 262.195312 C 573.046875 303.992188 555.054688 329.53125 527.191406 338.238281 C 496.425781 348.105469 455.210938 338.238281 404.128906 309.214844 C 349.566406 278.449219 302.546875 235.496094 279.328125 212.855469 C 229.40625 164.675781 162.652344 169.902344 115.054688 183.253906 C 63.390625 197.183594 23.339844 223.304688 22.757812 223.886719 L 21.597656 222.144531 C 22.175781 222.144531 62.230469 196.023438 114.472656 181.511719 C 162.652344 168.160156 229.988281 162.9375 280.488281 211.695312 C 303.707031 234.335938 350.726562 276.707031 405.289062 307.472656 C 455.210938 335.917969 497.585938 345.785156 527.191406 336.496094 C 554.472656 327.789062 571.886719 302.25 579.433594 261.617188 C 583.496094 237.816406 592.785156 223.304688 607.296875 216.339844 C 641.542969 200.667969 700.171875 234.914062 767.507812 274.386719 C 842.390625 318.503906 927.71875 368.425781 990.992188 351.011719 C 1129.722656 313.859375 1259.171875 253.488281 1260.332031 252.910156 L 1260.910156 254.652344 C 1259.75 255.230469 1130.304688 315.601562 991.570312 352.75 C 982.285156 355.652344 972.996094 356.816406 963.128906 356.816406 Z M 963.128906 356.816406" fill="#ffffff"/><path fill-rule="nonzero" fill-opacity="1" d="M 969.511719 363.78125 C 911.464844 363.78125 839.488281 321.984375 775.632812 284.835938 C 710.621094 247.105469 649.089844 211.113281 614.84375 226.789062 C 600.910156 233.171875 591.625 247.683594 587.558594 271.484375 C 580.59375 310.957031 563.761719 335.917969 537.058594 345.203125 C 506.875 355.652344 463.917969 345.785156 410.515625 315.601562 C 360.015625 287.15625 311.835938 248.265625 280.488281 220.402344 C 229.988281 175.125 162.652344 181.511719 115.054688 194.863281 C 63.972656 209.375 23.917969 234.914062 23.917969 234.914062 L 22.757812 233.171875 C 23.335938 233.171875 63.390625 207.632812 115.054688 193.121094 C 162.652344 179.769531 230.566406 173.382812 282.230469 218.660156 C 313.574219 247.105469 361.175781 285.996094 411.675781 314.441406 C 465.078125 344.042969 506.875 353.914062 536.476562 343.464844 C 562.019531 334.757812 578.851562 310.375 585.820312 271.484375 C 589.882812 247.105469 599.167969 232.011719 614.261719 225.628906 C 649.089844 209.375 711.203125 245.363281 776.796875 283.675781 C 849.355469 326.050781 931.78125 373.648438 992.730469 359.71875 C 1129.144531 328.953125 1259.75 266.261719 1261.492188 265.679688 L 1262.074219 267.421875 C 1260.910156 268 1129.722656 330.691406 993.3125 361.457031 C 985.1875 362.621094 977.640625 363.78125 969.511719 363.78125 Z M 969.511719 363.78125" fill="#ffffff"/><path fill-rule="nonzero" fill-opacity="1" d="M 976.480469 370.164062 C 919.59375 370.164062 848.773438 329.53125 785.503906 292.960938 C 719.910156 255.230469 657.796875 219.242188 622.96875 235.496094 C 608.457031 241.878906 599.75 256.972656 595.105469 281.351562 C 588.140625 319.082031 572.46875 343.464844 547.507812 352.75 C 517.324219 363.78125 473.785156 353.914062 418.0625 323.148438 C 367.558594 295.285156 317.058594 255.8125 283.390625 229.109375 C 254.949219 205.890625 202.703125 183.832031 116.792969 208.210938 C 65.710938 221.5625 25.660156 246.523438 25.660156 246.523438 L 24.5 244.78125 C 25.078125 244.78125 64.550781 219.824219 116.214844 204.730469 C 202.703125 180.351562 255.527344 202.988281 284.550781 226.207031 C 318.21875 253.488281 368.722656 292.382812 419.222656 320.246094 C 474.949219 351.007812 517.902344 360.878906 547.507812 349.847656 C 571.886719 340.5625 587.558594 317.34375 593.945312 280.191406 C 598.589844 255.8125 607.875 240.140625 622.386719 233.171875 C 657.796875 216.339844 720.488281 252.910156 786.664062 290.640625 C 856.902344 331.273438 935.84375 377.132812 995.054688 366.101562 C 1129.722656 341.140625 1261.492188 276.707031 1263.234375 276.128906 L 1263.8125 277.871094 C 1262.652344 278.449219 1130.304688 342.882812 995.632812 367.84375 C 989.25 369.585938 982.863281 370.164062 976.480469 370.164062 Z M 976.480469 370.164062" fill="#ffffff"/><path fill-rule="nonzero" fill-opacity="1" d="M 981.703125 375.96875 C 927.136719 375.96875 859.804688 337.660156 794.789062 300.507812 C 728.617188 262.777344 665.925781 226.789062 630.515625 243.042969 C 616.003906 250.007812 606.714844 265.097656 602.070312 289.480469 C 595.6875 326.050781 580.59375 349.269531 557.375 358.554688 C 548.667969 362.039062 539.378906 363.78125 529.511719 363.78125 C 461.597656 363.78125 362.335938 291.222656 293.839844 241.300781 L 285.132812 234.914062 C 256.109375 213.4375 202.703125 193.699219 117.375 218.660156 C 66.292969 233.753906 26.820312 258.132812 26.820312 258.132812 L 25.660156 256.390625 C 26.238281 256.390625 65.132812 231.433594 116.792969 216.339844 C 203.285156 191.378906 256.6875 211.695312 286.292969 233.171875 L 295 239.558594 C 372.785156 297.027344 491.199219 383.515625 556.214844 357.394531 C 578.851562 348.105469 593.945312 325.46875 600.332031 289.480469 C 604.972656 264.519531 614.261719 248.847656 629.355469 241.878906 C 665.34375 225.046875 728.617188 261.035156 795.371094 299.347656 C 866.1875 339.980469 939.328125 381.773438 996.214844 373.648438 C 1128.5625 354.492188 1262.074219 288.898438 1263.8125 288.320312 L 1264.394531 290.058594 C 1263.234375 290.640625 1129.144531 356.234375 996.796875 375.390625 C 992.152344 375.96875 986.925781 375.96875 981.703125 375.96875 Z M 981.703125 375.96875" fill="#ffffff"/><path fill-rule="nonzero" fill-opacity="1" d="M 988.667969 383.515625 C 935.265625 383.515625 869.089844 345.785156 804.65625 309.214844 C 737.324219 270.902344 674.050781 234.914062 638.0625 251.75 C 622.96875 258.714844 613.679688 274.386719 609.039062 299.347656 C 602.652344 334.175781 588.140625 356.234375 566.082031 366.101562 C 506.875 391.0625 400.648438 319.082031 322.863281 266.839844 C 310.09375 258.132812 297.902344 250.007812 286.875 242.460938 C 257.269531 223.304688 203.867188 205.308594 117.957031 230.269531 C 66.875 245.363281 27.980469 269.164062 27.402344 269.742188 L 26.238281 268 C 26.820312 268 65.710938 243.621094 116.792969 228.53125 C 202.703125 202.988281 256.6875 220.984375 286.875 240.71875 C 297.902344 248.265625 310.09375 256.390625 322.863281 265.097656 C 400.066406 317.34375 506.292969 388.742188 564.921875 364.359375 C 586.398438 355.074219 600.332031 333.015625 606.714844 299.347656 C 611.359375 273.804688 621.226562 258.132812 636.320312 250.585938 C 672.890625 233.171875 736.742188 269.742188 804.078125 308.054688 C 871.992188 346.945312 942.230469 387 997.375 381.773438 C 1127.984375 369.003906 1262.652344 301.089844 1263.8125 300.507812 L 1264.394531 302.25 C 1263.234375 302.832031 1127.984375 370.746094 996.796875 383.515625 C 995.054688 383.515625 991.570312 383.515625 988.667969 383.515625 Z M 988.667969 383.515625" fill="#ffffff"/><path fill-rule="nonzero" fill-opacity="1" d="M 994.472656 390.480469 C 942.8125 390.480469 877.21875 353.914062 814.527344 317.921875 C 746.609375 279.609375 682.175781 243.042969 645.609375 260.457031 C 630.515625 267.421875 620.648438 283.675781 616.003906 308.636719 C 610.199219 342.300781 596.265625 363.78125 574.789062 373.066406 C 519.0625 397.449219 421.542969 334.757812 343.761719 284.253906 C 324.023438 271.484375 305.449219 259.292969 288.613281 250.007812 C 183.550781 188.476562 30.882812 280.773438 29.722656 281.351562 L 28.5625 279.609375 C 29.144531 279.609375 67.453125 255.8125 118.535156 240.140625 C 204.445312 214.015625 258.429688 230.269531 289.195312 248.265625 C 306.03125 258.132812 324.605469 270.324219 344.339844 282.515625 C 422.703125 333.59375 519.644531 395.707031 574.210938 371.90625 C 595.105469 362.621094 608.457031 341.722656 614.261719 308.636719 C 618.90625 282.511719 628.773438 266.261719 644.445312 258.714844 C 682.175781 241.300781 746.609375 277.289062 815.105469 316.179688 C 877.796875 351.589844 942.8125 388.742188 994.472656 388.742188 C 996.214844 388.742188 997.957031 388.742188 1000.277344 388.742188 C 1128.5625 382.355469 1264.976562 312.117188 1266.136719 311.539062 L 1266.714844 313.277344 C 1265.554688 313.859375 1128.5625 384.097656 999.699219 390.480469 C 998.535156 390.480469 996.796875 390.480469 994.472656 390.480469 Z M 994.472656 390.480469" fill="#ffffff"/><path fill-rule="nonzero" fill-opacity="1" d="M 1002.019531 398.609375 C 951.519531 398.609375 887.085938 362.621094 824.972656 327.210938 C 756.476562 288.320312 691.464844 251.75 653.734375 269.742188 C 638.0625 277.289062 628.191406 293.542969 623.550781 319.082031 C 617.746094 351.589844 604.394531 372.488281 583.496094 381.773438 C 531.253906 404.992188 442.441406 349.847656 364.078125 301.667969 C 337.375 285.417969 311.835938 269.742188 290.355469 258.132812 C 259.589844 241.878906 204.445312 228.53125 119.695312 254.652344 C 68.613281 270.324219 30.882812 292.960938 30.304688 293.542969 L 29.144531 291.800781 C 29.722656 291.800781 67.453125 268.582031 118.535156 252.910156 C 203.867188 226.789062 259.011719 240.140625 290.355469 256.390625 C 312.414062 267.421875 337.375 283.09375 364.078125 299.929688 C 442.441406 348.109375 530.671875 402.671875 581.753906 380.035156 C 601.492188 371.328125 614.84375 350.429688 620.648438 318.503906 C 625.289062 291.800781 635.738281 275.546875 651.414062 268 C 689.722656 250.007812 754.738281 286.578125 824.394531 326.050781 C 886.503906 360.878906 950.355469 397.449219 1000.859375 397.449219 C 1000.859375 397.449219 1001.4375 397.449219 1001.4375 397.449219 C 1127.402344 397.449219 1265.554688 324.886719 1266.714844 324.308594 L 1267.296875 326.050781 C 1267.296875 326.050781 1129.144531 398.609375 1002.019531 398.609375 C 1002.601562 398.609375 1002.019531 398.609375 1002.019531 398.609375 Z M 1002.019531 398.609375" fill="#ffffff"/><path fill-rule="nonzero" fill-opacity="1" d="M 1018.273438 406.15625 C 1013.628906 406.15625 1008.984375 406.15625 1004.339844 405.574219 C 956.742188 403.253906 895.792969 369.003906 837.164062 335.917969 C 766.925781 296.445312 700.753906 259.292969 662.441406 277.289062 C 646.1875 284.835938 636.320312 301.089844 631.675781 327.789062 C 625.871094 359.136719 613.101562 380.035156 592.785156 388.742188 C 543.445312 411.378906 457.535156 359.71875 382.070312 314.441406 C 349.566406 295.285156 319.378906 276.707031 293.257812 265.097656 C 236.371094 239.558594 168.457031 251.75 122.019531 266.261719 C 71.515625 281.933594 33.785156 304.570312 33.207031 304.570312 L 32.046875 302.832031 C 32.625 302.832031 70.355469 280.191406 121.4375 264.519531 C 168.457031 250.007812 236.953125 237.816406 294.421875 263.359375 C 320.542969 274.96875 351.304688 293.542969 383.234375 312.699219 C 458.695312 357.976562 544.023438 409.058594 592.785156 387 C 612.519531 378.292969 624.710938 358.554688 630.515625 327.210938 C 635.160156 299.929688 645.609375 283.09375 662.441406 275.546875 C 701.914062 256.972656 768.089844 294.703125 838.90625 334.175781 C 897.535156 367.261719 958.484375 401.511719 1005.503906 403.832031 C 1129.722656 409.636719 1269.039062 335.335938 1270.199219 334.757812 L 1270.78125 336.496094 C 1268.457031 337.660156 1139.011719 406.15625 1018.273438 406.15625 Z M 1018.273438 406.15625" fill="#ffffff"/><path fill-rule="nonzero" fill-opacity="1" d="M 1033.363281 413.121094 C 1024.078125 413.121094 1014.789062 412.539062 1006.082031 411.960938 C 960.804688 407.316406 903.339844 374.808594 847.613281 343.464844 C 776.796875 303.410156 709.460938 265.679688 669.988281 284.253906 C 653.734375 291.800781 643.285156 308.636719 638.640625 335.917969 C 632.835938 367.261719 621.226562 386.417969 601.492188 395.707031 C 554.472656 417.765625 474.949219 371.328125 398.324219 326.050781 C 360.59375 303.992188 325.183594 283.09375 295 271.484375 C 183.550781 228.53125 35.527344 314.441406 33.785156 315.601562 L 32.625 314.441406 C 34.367188 313.277344 182.96875 226.789062 295 270.324219 C 325.183594 281.933594 360.59375 302.832031 398.324219 324.886719 C 474.949219 369.585938 553.890625 416.023438 600.332031 394.546875 C 618.90625 385.839844 631.09375 366.683594 636.320312 336.496094 C 641.542969 308.636719 651.992188 291.800781 668.828125 283.675781 C 708.878906 264.519531 776.214844 302.832031 848.195312 342.882812 C 903.917969 374.230469 961.386719 406.734375 1006.082031 410.796875 C 1127.984375 422.988281 1269.039062 346.945312 1270.199219 346.367188 L 1270.78125 348.109375 C 1269.617188 348.105469 1148.300781 413.121094 1033.363281 413.121094 Z M 1033.363281 413.121094" fill="#ffffff"/><path fill-rule="nonzero" fill-opacity="1" d="M 1046.714844 422.410156 C 1033.945312 422.410156 1020.59375 421.828125 1007.824219 419.503906 C 965.449219 413.121094 911.464844 382.355469 859.222656 353.332031 C 790.144531 314.441406 718.746094 273.804688 678.113281 292.960938 C 661.28125 301.089844 650.832031 317.921875 645.609375 345.785156 C 640.382812 375.96875 628.191406 395.125 609.617188 403.832031 C 564.339844 424.730469 487.71875 380.613281 413.417969 337.660156 C 371.042969 313.277344 330.410156 290.058594 297.324219 279.03125 C 183.550781 242.460938 37.269531 326.050781 35.527344 327.210938 L 34.367188 326.050781 C 36.109375 325.46875 182.96875 240.71875 297.324219 277.871094 C 330.988281 288.320312 371.625 311.539062 413.996094 336.496094 C 487.71875 378.871094 564.339844 422.988281 609.039062 402.671875 C 627.03125 393.964844 638.640625 375.390625 643.867188 345.785156 C 649.089844 317.34375 659.539062 299.929688 676.953125 291.800781 C 718.167969 272.066406 787.242188 310.957031 859.804688 352.171875 C 912.046875 381.773438 966.03125 411.960938 1007.824219 418.34375 C 1127.984375 436.921875 1270.199219 359.136719 1271.359375 357.976562 L 1271.941406 359.71875 C 1271.359375 360.296875 1157.585938 422.410156 1046.714844 422.410156 Z M 1046.714844 422.410156" fill="#ffffff"/><path fill-rule="nonzero" fill-opacity="1" d="M 1058.324219 432.277344 C 1042.074219 432.277344 1025.820312 431.117188 1010.144531 427.632812 C 970.671875 419.503906 920.171875 391.0625 871.414062 363.199219 C 800.59375 323.148438 727.453125 281.933594 686.242188 301.089844 C 668.828125 309.214844 658.378906 326.628906 653.152344 355.074219 C 647.929688 384.675781 636.320312 403.253906 618.324219 411.960938 C 574.210938 432.277344 499.328125 389.320312 426.1875 348.105469 C 379.75 321.40625 335.632812 296.445312 299.0625 286.578125 C 183.550781 255.8125 38.429688 337.660156 36.6875 338.820312 L 35.527344 337.660156 C 37.269531 337.078125 182.96875 254.070312 299.0625 285.417969 C 335.632812 295.285156 379.75 320.246094 426.1875 346.945312 C 498.746094 388.160156 573.628906 431.117188 616.582031 410.796875 C 634.578125 402.671875 645.609375 384.097656 650.832031 355.074219 C 656.054688 326.050781 667.085938 308.054688 685.078125 299.929688 C 727.453125 280.191406 801.175781 321.40625 871.992188 362.039062 C 920.753906 389.320312 970.671875 417.765625 1010.144531 426.472656 C 1127.984375 450.851562 1271.359375 371.328125 1273.101562 370.164062 L 1273.683594 371.90625 C 1272.519531 371.90625 1164.550781 432.277344 1058.324219 432.277344 Z M 1058.324219 432.277344" fill="#ffffff"/><path fill-rule="nonzero" fill-opacity="1" d="M 1068.195312 442.144531 C 1049.039062 442.144531 1029.882812 439.824219 1011.308594 435.179688 C 974.738281 425.3125 930.039062 400.351562 883.601562 373.648438 C 811.625 332.433594 736.742188 290.058594 693.785156 310.375 C 675.792969 318.503906 664.761719 337.078125 659.539062 365.523438 C 654.316406 394.546875 643.285156 412.539062 625.289062 420.667969 C 582.917969 440.402344 509.195312 399.1875 438.378906 358.554688 C 389.617188 331.273438 339.695312 302.832031 300.226562 294.125 C 182.386719 269.742188 39.011719 349.269531 37.269531 350.429688 L 36.6875 349.269531 C 37.851562 348.6875 182.386719 268 300.804688 292.960938 C 340.277344 301.089844 390.777344 329.53125 439.539062 357.394531 C 510.355469 397.449219 583.496094 438.660156 624.710938 419.503906 C 642.125 411.378906 652.574219 393.964844 657.796875 365.523438 C 663.023438 335.917969 674.632812 317.34375 692.625 308.636719 C 736.160156 288.320312 811.625 330.691406 884.183594 372.488281 C 931.203125 399.1875 975.316406 424.148438 1011.886719 434.019531 C 1127.402344 464.78125 1272.519531 382.9375 1274.261719 381.773438 L 1274.84375 383.515625 C 1274.261719 383.515625 1170.359375 442.144531 1068.195312 442.144531 Z M 1068.195312 442.144531" fill="#ffffff"/><path fill-rule="nonzero" fill-opacity="1" d="M 1078.0625 452.011719 C 1056.585938 452.011719 1034.527344 449.109375 1013.628906 442.726562 C 979.960938 431.695312 939.910156 408.476562 897.535156 384.097656 C 823.234375 341.140625 746.609375 297.027344 701.914062 317.921875 C 683.917969 326.628906 672.308594 345.203125 667.085938 374.808594 C 661.859375 403.253906 651.414062 420.667969 633.996094 428.792969 C 592.785156 447.949219 524.289062 409.636719 451.730469 368.425781 C 399.484375 338.820312 345.5 308.636719 303.128906 302.25 C 183.550781 283.675781 40.753906 361.457031 39.589844 362.039062 L 38.429688 360.878906 C 39.589844 360.296875 182.96875 281.933594 303.128906 300.507812 C 345.5 306.894531 400.066406 337.660156 452.308594 367.261719 C 521.386719 406.15625 592.785156 446.207031 633.417969 427.632812 C 650.25 419.503906 660.699219 402.671875 665.925781 374.808594 C 671.148438 344.625 683.339844 325.46875 701.914062 316.761719 C 747.191406 295.863281 824.394531 339.980469 899.273438 383.515625 C 941.648438 407.894531 981.703125 431.117188 1014.789062 441.5625 C 1128.5625 478.714844 1274.84375 394.546875 1276.585938 393.382812 L 1277.746094 395.125 C 1276.003906 395.125 1176.742188 452.011719 1078.0625 452.011719 Z M 1078.0625 452.011719" fill="#ffffff"/><path fill-rule="nonzero" fill-opacity="1" d="M 1085.609375 461.300781 C 1061.808594 461.300781 1038.007812 457.816406 1015.371094 449.109375 C 985.1875 437.5 949.777344 416.605469 912.046875 394.546875 C 835.421875 349.847656 756.476562 303.410156 710.039062 324.886719 C 691.464844 333.59375 679.273438 352.75 674.050781 382.9375 C 668.828125 410.796875 658.378906 428.214844 641.542969 435.757812 C 601.492188 454.914062 533.574219 416.601562 462.175781 376.550781 C 406.453125 346.367188 349.566406 314.441406 304.867188 309.796875 C 182.96875 297.027344 41.914062 373.066406 40.753906 373.648438 L 39.589844 372.488281 C 40.753906 371.90625 182.386719 295.285156 304.867188 308.054688 C 350.144531 312.699219 407.613281 345.203125 462.757812 375.96875 C 534.15625 416.023438 601.492188 453.753906 640.964844 435.179688 C 657.21875 427.632812 667.664062 410.796875 672.308594 383.515625 C 678.113281 352.171875 689.722656 333.015625 709.460938 323.726562 C 756.476562 301.667969 836.003906 348.105469 912.625 393.382812 C 950.355469 415.441406 985.765625 436.339844 1015.949219 447.949219 C 1127.402344 490.90625 1275.421875 404.992188 1277.164062 403.832031 L 1278.324219 405.574219 C 1277.164062 406.15625 1181.386719 461.300781 1085.609375 461.300781 Z M 1085.609375 461.300781" fill="#ffffff"/><path fill-rule="nonzero" fill-opacity="1" d="M 1094.894531 472.328125 C 1068.773438 472.328125 1042.652344 468.265625 1018.273438 457.238281 C 992.152344 445.628906 960.804688 427.050781 928.300781 407.316406 C 852.835938 362.039062 768.089844 311.539062 719.328125 333.59375 C 699.59375 342.300781 687.402344 362.039062 682.175781 393.382812 C 677.535156 420.667969 667.085938 437.5 650.25 445.046875 C 611.359375 463.621094 545.183594 425.890625 474.949219 386.417969 C 415.738281 353.332031 354.789062 318.503906 307.191406 316.761719 C 182.96875 310.957031 43.65625 385.257812 42.492188 385.839844 L 41.332031 384.097656 C 42.492188 383.515625 182.386719 309.214844 307.191406 315.019531 C 355.371094 317.34375 416.320312 351.589844 475.527344 385.257812 C 545.183594 424.730469 611.359375 461.878906 649.089844 443.886719 C 664.761719 436.339844 675.210938 420.085938 679.855469 393.382812 C 685.660156 362.039062 698.429688 341.140625 718.167969 332.433594 C 767.507812 309.796875 852.835938 361.457031 928.878906 406.734375 C 961.386719 426.472656 992.152344 444.464844 1018.851562 456.65625 C 1076.320312 482.195312 1143.65625 470.007812 1190.675781 455.496094 C 1241.175781 439.824219 1278.90625 417.183594 1279.488281 417.183594 L 1280.648438 418.925781 C 1280.066406 418.925781 1242.335938 441.5625 1191.835938 457.238281 C 1163.972656 464.203125 1129.722656 472.328125 1094.894531 472.328125 Z M 1094.894531 472.328125" fill="#ffffff"/><path fill-rule="nonzero" fill-opacity="1" d="M 1102.441406 482.777344 C 1065.871094 482.777344 1038.589844 474.070312 1020.015625 464.78125 C 997.957031 453.753906 972.996094 438.082031 946.292969 421.246094 C 867.929688 373.066406 779.117188 317.921875 728.035156 341.140625 C 708.300781 349.847656 694.949219 370.746094 689.144531 402.671875 C 684.5 429.375 674.050781 445.628906 657.796875 453.171875 C 619.484375 471.167969 553.890625 434.019531 484.816406 395.125 C 422.703125 360.296875 358.851562 324.308594 309.511719 324.308594 C 309.511719 324.308594 308.933594 324.308594 308.933594 324.308594 C 182.96875 324.886719 44.816406 396.285156 43.65625 396.867188 L 42.492188 395.707031 C 43.65625 395.125 182.386719 323.148438 308.933594 322.566406 C 308.933594 322.566406 309.511719 322.566406 309.511719 322.566406 C 359.433594 322.566406 423.867188 358.554688 485.976562 393.964844 C 555.054688 432.855469 620.066406 469.425781 657.796875 452.011719 C 673.46875 444.464844 683.339844 428.214844 687.980469 402.671875 C 693.785156 370.164062 707.136719 349.269531 727.453125 339.980469 C 779.699219 316.761719 868.511719 371.90625 947.453125 420.085938 C 974.15625 436.339844 999.117188 452.011719 1021.175781 463.621094 C 1051.941406 479.875 1107.085938 493.226562 1191.835938 467.105469 C 1242.917969 451.433594 1280.648438 428.792969 1281.226562 428.214844 L 1282.390625 429.953125 C 1281.808594 429.953125 1244.078125 453.171875 1192.996094 468.847656 C 1157.007812 478.714844 1127.402344 482.777344 1102.441406 482.777344 Z M 1102.441406 482.777344" fill="#ffffff"/><path fill-rule="nonzero" fill-opacity="1" d="M 1108.246094 493.226562 C 1068.773438 493.226562 1040.910156 482.777344 1021.753906 471.75 C 1004.921875 461.878906 985.765625 449.691406 965.449219 436.339844 C 888.246094 386.417969 791.308594 324.886719 737.324219 348.6875 C 716.425781 357.976562 703.074219 378.871094 697.269531 411.960938 C 692.625 438.082031 682.757812 454.335938 666.503906 461.878906 C 628.773438 479.292969 564.339844 442.726562 495.84375 404.414062 C 433.152344 369.003906 368.140625 332.433594 316.476562 332.433594 C 314.738281 332.433594 312.996094 332.433594 311.253906 332.433594 C 182.96875 337.660156 46.558594 407.894531 45.394531 408.476562 L 44.234375 407.316406 C 45.394531 406.734375 182.386719 336.496094 311.253906 330.113281 C 364.078125 327.210938 431.414062 365.523438 496.425781 402.671875 C 564.339844 440.984375 628.773438 477.554688 665.34375 460.140625 C 680.4375 453.171875 690.304688 436.921875 694.949219 411.378906 C 700.753906 377.710938 714.683594 356.234375 736.160156 346.945312 C 791.308594 322.566406 888.246094 385.257812 966.03125 435.179688 C 986.347656 447.949219 1005.503906 460.71875 1022.335938 470.585938 C 1127.402344 532.117188 1280.066406 440.402344 1281.226562 439.242188 L 1282.390625 440.984375 C 1281.808594 440.984375 1243.496094 464.78125 1192.414062 480.457031 C 1160.488281 489.164062 1132.046875 493.226562 1108.246094 493.226562 Z M 1108.246094 493.226562" fill="#ffffff"/><path fill-rule="nonzero" fill-opacity="1" d="M 1114.050781 504.253906 C 1072.257812 504.253906 1042.652344 492.066406 1023.496094 479.292969 C 1013.046875 472.328125 1001.4375 464.78125 989.25 456.074219 C 911.464844 403.253906 804.65625 330.691406 746.03125 355.652344 C 724.550781 364.941406 710.039062 387 704.234375 421.246094 C 699.589844 446.789062 689.722656 462.460938 674.632812 470.007812 C 638.0625 487.421875 574.210938 450.851562 506.875 412.539062 C 438.957031 373.648438 368.722656 333.59375 313.574219 338.820312 C 182.386719 351.589844 47.71875 419.503906 46.558594 420.085938 L 45.394531 418.925781 C 46.558594 418.34375 181.808594 350.429688 312.996094 337.660156 C 368.140625 332.433594 438.957031 372.488281 506.875 411.378906 C 574.210938 449.691406 637.480469 485.679688 673.46875 468.847656 C 688.5625 461.878906 697.851562 446.207031 702.496094 421.246094 C 708.878906 386.417969 723.390625 363.78125 745.449219 354.492188 C 805.238281 329.53125 912.625 402.089844 990.410156 454.914062 C 1002.601562 463.042969 1014.210938 471.167969 1024.65625 478.132812 C 1054.261719 497.289062 1107.664062 515.285156 1193.578125 490.324219 C 1244.65625 475.230469 1283.550781 451.433594 1284.128906 450.851562 L 1285.292969 452.59375 C 1284.710938 452.59375 1245.820312 476.972656 1194.738281 492.066406 C 1163.390625 500.773438 1136.691406 504.253906 1114.050781 504.253906 Z M 1114.050781 504.253906" fill="#ffffff"/><path fill-rule="nonzero" fill-opacity="1" d="M 1119.855469 514.703125 C 1075.738281 514.703125 1045.554688 500.773438 1025.820312 486.261719 L 1018.273438 480.457031 C 939.910156 422.988281 821.492188 336.496094 755.898438 363.199219 C 733.257812 372.488281 718.167969 395.125 711.78125 430.535156 C 707.136719 455.496094 697.851562 471.167969 682.757812 478.132812 C 646.1875 494.96875 583.496094 458.976562 516.160156 420.667969 C 445.34375 380.035156 372.203125 338.238281 315.898438 346.367188 C 182.96875 364.941406 49.460938 431.117188 48.296875 431.695312 L 47.136719 430.535156 C 48.296875 429.953125 182.386719 363.78125 314.738281 345.203125 C 372.203125 337.078125 445.34375 379.453125 516.160156 419.503906 C 582.917969 457.816406 645.609375 493.808594 681.015625 476.972656 C 695.527344 470.007812 704.816406 454.914062 709.460938 430.535156 C 715.84375 394.546875 730.9375 371.328125 754.738281 362.039062 C 820.910156 335.335938 940.488281 422.410156 1018.851562 479.875 L 1026.398438 485.679688 C 1055.421875 507.15625 1108.246094 526.894531 1194.15625 501.933594 C 1245.238281 486.839844 1284.710938 462.460938 1285.292969 462.460938 L 1286.453125 464.203125 C 1285.871094 464.203125 1246.398438 489.164062 1194.738281 504.253906 C 1166.292969 511.222656 1141.332031 514.703125 1119.855469 514.703125 Z M 1119.855469 514.703125" fill="#ffffff"/><path fill-rule="nonzero" fill-opacity="1" d="M 1125.082031 525.734375 C 1078.640625 525.734375 1047.296875 510.058594 1027.558594 493.808594 C 993.894531 466.523438 943.390625 427.632812 892.890625 399.769531 C 837.164062 369.003906 794.210938 359.136719 764.605469 370.164062 C 740.226562 379.453125 724.550781 402.671875 718.167969 439.824219 C 713.523438 464.203125 704.234375 479.875 689.722656 486.839844 C 654.316406 503.09375 591.625 467.105469 526.03125 429.375 C 455.792969 388.742188 376.265625 342.882812 317.058594 353.914062 C 182.386719 378.871094 50.621094 442.726562 49.460938 443.304688 L 48.296875 442.144531 C 49.460938 441.5625 181.808594 377.132812 316.476562 352.171875 C 376.265625 341.140625 455.792969 387 526.609375 427.632812 C 592.203125 465.363281 654.316406 501.351562 688.5625 485.097656 C 703.074219 478.714844 711.78125 463.621094 716.425781 439.824219 C 723.390625 402.089844 739.0625 377.710938 764.023438 368.425781 C 794.210938 357.394531 837.746094 367.261719 893.46875 398.027344 C 943.972656 425.890625 994.472656 465.363281 1028.140625 492.066406 C 1056.585938 515.285156 1108.828125 537.34375 1194.738281 512.960938 C 1246.398438 498.449219 1285.871094 473.488281 1285.871094 473.488281 L 1287.03125 475.230469 C 1286.453125 475.230469 1246.980469 500.191406 1195.316406 515.285156 C 1169.195312 522.832031 1145.976562 525.734375 1125.082031 525.734375 Z M 1125.082031 525.734375" fill="#ffffff"/><path fill-rule="nonzero" fill-opacity="1" d="M 1129.722656 536.761719 C 1095.476562 536.761719 1059.488281 528.054688 1029.300781 501.351562 C 997.957031 473.488281 950.355469 434.597656 899.855469 406.15625 C 846.453125 376.550781 804.65625 366.683594 775.054688 377.132812 C 749.511719 385.839844 732.679688 410.21875 725.714844 449.109375 C 721.648438 473.488281 712.363281 488.582031 697.851562 494.96875 C 663.023438 511.222656 600.910156 475.230469 535.898438 436.921875 C 462.175781 394.546875 379.75 346.367188 318.800781 360.878906 C 181.808594 392.222656 51.78125 453.753906 50.621094 454.335938 L 50.039062 452.59375 C 51.199219 452.011719 181.808594 389.902344 318.800781 358.554688 C 380.332031 344.042969 463.339844 392.222656 535.898438 435.179688 C 600.910156 472.910156 662.441406 508.898438 696.6875 493.226562 C 710.621094 486.839844 719.328125 472.328125 723.972656 448.53125 C 730.9375 409.058594 747.769531 384.097656 774.472656 374.808594 C 804.65625 364.359375 847.613281 374.230469 901.015625 404.414062 C 951.519531 432.855469 999.699219 471.75 1031.042969 499.613281 C 1081.542969 544.886719 1148.878906 538.503906 1196.480469 525.152344 C 1248.140625 510.640625 1288.195312 485.097656 1288.195312 485.097656 L 1289.355469 486.839844 C 1288.773438 486.839844 1248.722656 512.382812 1197.058594 526.894531 C 1176.742188 532.117188 1153.523438 536.761719 1129.722656 536.761719 Z M 1129.722656 536.761719" fill="#ffffff"/><path fill-rule="nonzero" fill-opacity="1" d="M 1134.367188 547.210938 C 1098.957031 547.210938 1062.390625 537.921875 1031.625 508.320312 C 958.484375 437.5 849.933594 362.621094 784.921875 383.515625 C 757.640625 392.222656 740.226562 417.183594 732.679688 458.398438 C 728.617188 482.195312 719.328125 496.710938 704.816406 503.675781 C 669.988281 519.347656 611.941406 485.101562 544.023438 445.628906 C 469.144531 401.511719 383.8125 351.589844 320.542969 368.425781 C 182.386719 405.574219 53.523438 465.363281 52.363281 465.945312 L 51.78125 464.203125 C 52.363281 464.203125 181.808594 403.832031 320.542969 366.683594 C 384.394531 349.269531 469.722656 399.769531 545.183594 443.886719 C 609.617188 481.617188 670.566406 517.605469 704.234375 501.933594 C 718.167969 495.546875 726.875 481.035156 730.9375 457.816406 C 738.484375 416.605469 756.476562 391.0625 784.339844 381.773438 C 849.933594 360.296875 959.0625 435.757812 1032.785156 506.578125 C 1082.707031 554.757812 1149.460938 548.953125 1197.058594 536.179688 C 1248.722656 522.25 1288.773438 496.128906 1289.355469 496.128906 L 1290.515625 497.871094 C 1289.933594 497.871094 1249.882812 523.992188 1197.640625 538.503906 C 1179.066406 543.148438 1157.007812 547.210938 1134.367188 547.210938 Z M 1134.367188 547.210938" fill="#ffffff"/><path fill-rule="nonzero" fill-opacity="1" d="M 1138.429688 559.402344 C 1102.441406 559.402344 1064.128906 548.953125 1033.363281 516.445312 C 997.375 478.132812 953.839844 442.726562 913.789062 419.503906 C 866.1875 391.644531 824.972656 381.773438 795.371094 391.0625 C 766.347656 399.769531 747.769531 425.890625 740.226562 468.265625 C 736.160156 491.484375 727.453125 505.996094 712.941406 512.382812 C 678.695312 528.054688 620.648438 493.808594 553.890625 453.753906 C 476.109375 407.316406 388.457031 355.652344 322.863281 375.96875 C 181.808594 419.503906 54.683594 476.972656 53.523438 477.554688 L 52.363281 476.390625 C 53.523438 475.8125 181.226562 417.765625 322.28125 374.230469 C 388.457031 353.914062 476.109375 406.15625 553.890625 452.011719 C 617.746094 489.742188 678.113281 525.734375 711.78125 510.640625 C 725.132812 504.253906 733.839844 490.324219 737.902344 467.683594 C 745.449219 424.148438 764.605469 397.449219 794.210938 388.742188 C 859.222656 369.585938 964.289062 440.402344 1034.527344 514.703125 C 1083.285156 566.367188 1150.039062 561.722656 1197.640625 548.953125 C 1249.300781 535.019531 1289.933594 508.320312 1290.515625 508.320312 L 1291.675781 509.480469 C 1291.097656 509.480469 1250.464844 536.179688 1198.21875 550.691406 C 1180.226562 555.335938 1159.910156 559.402344 1138.429688 559.402344 Z M 1138.429688 559.402344" fill="#ffffff"/><path fill-rule="nonzero" fill-opacity="1" d="M 1142.496094 570.429688 C 1105.925781 570.429688 1066.453125 559.402344 1035.105469 523.410156 C 968.933594 447.367188 868.511719 379.453125 804.65625 396.867188 C 774.472656 404.992188 754.738281 432.277344 746.609375 476.972656 C 742.546875 500.191406 733.839844 514.125 719.910156 520.507812 C 686.242188 535.601562 628.773438 501.351562 562.019531 461.300781 C 483.074219 413.699219 392.519531 359.71875 325.183594 383.515625 C 181.808594 433.4375 56.425781 489.164062 55.265625 489.164062 L 54.683594 487.421875 C 55.84375 486.839844 181.808594 431.117188 325.183594 381.195312 C 393.101562 357.394531 484.234375 411.960938 564.339844 459.558594 C 630.515625 499.03125 687.402344 533.277344 720.488281 518.765625 C 733.839844 512.960938 741.964844 499.03125 746.03125 476.390625 C 754.15625 431.117188 773.894531 403.832031 805.238281 395.125 C 869.671875 377.132812 970.671875 445.628906 1037.429688 521.667969 C 1085.027344 576.234375 1151.78125 572.75 1199.382812 560.5625 C 1251.042969 546.628906 1292.257812 519.929688 1292.835938 519.347656 L 1294 520.507812 C 1293.417969 520.507812 1252.203125 547.789062 1200.542969 561.722656 C 1182.546875 566.945312 1162.8125 570.429688 1142.496094 570.429688 Z M 1142.496094 570.429688" fill="#ffffff"/><path fill-rule="nonzero" fill-opacity="1" d="M 1146.558594 580.878906 C 1108.828125 580.878906 1068.773438 568.6875 1037.429688 529.796875 C 1006.082031 490.90625 966.03125 454.914062 927.136719 431.695312 C 884.183594 405.574219 845.292969 395.707031 815.6875 403.253906 C 783.761719 411.378906 762.863281 439.242188 754.15625 486.261719 C 750.09375 508.898438 741.386719 522.832031 727.453125 529.214844 C 693.785156 544.308594 636.902344 509.480469 570.144531 469.425781 C 488.296875 420.085938 395.421875 363.78125 325.765625 390.480469 C 181.226562 446.789062 56.425781 500.773438 55.265625 501.351562 L 54.683594 499.613281 C 55.84375 499.03125 180.648438 445.046875 325.183594 388.742188 C 394.84375 361.457031 488.296875 417.765625 570.726562 467.683594 C 636.902344 507.738281 693.785156 541.984375 726.292969 527.472656 C 739.644531 521.667969 747.769531 507.738281 751.835938 485.679688 C 760.542969 438.082031 781.4375 409.636719 814.527344 401.511719 C 844.710938 393.964844 883.601562 403.832031 927.136719 430.535156 C 966.03125 454.335938 1006.082031 490.324219 1038.007812 529.214844 C 1084.445312 587.261719 1151.203125 584.359375 1198.800781 572.171875 C 1250.464844 558.820312 1292.257812 531.539062 1292.835938 530.957031 L 1294 532.117188 C 1293.417969 532.117188 1252.203125 559.980469 1199.960938 573.332031 C 1183.707031 577.394531 1165.714844 580.878906 1146.558594 580.878906 Z M 1146.558594 580.878906" fill="#ffffff"/><path fill-rule="nonzero" fill-opacity="1" d="M 1150.039062 592.488281 C 1111.730469 592.488281 1070.515625 579.71875 1039.167969 537.921875 C 1009.566406 497.871094 971.835938 462.460938 934.105469 438.660156 C 893.46875 413.121094 855.738281 403.253906 826.136719 410.21875 C 792.46875 418.34375 770.988281 446.789062 761.703125 495.546875 C 757.640625 517.605469 748.933594 531.539062 735.582031 537.34375 C 703.074219 552.433594 646.1875 517.605469 580.59375 477.554688 C 496.425781 425.890625 400.648438 367.261719 329.25 398.027344 C 181.808594 460.140625 59.328125 512.382812 57.585938 512.382812 L 57.003906 510.640625 C 58.167969 510.058594 181.226562 458.398438 328.085938 395.707031 C 400.066406 364.941406 496.425781 423.570312 581.175781 475.8125 C 646.769531 515.863281 703.074219 550.113281 735 536.179688 C 747.769531 530.375 755.898438 517.027344 759.960938 495.546875 C 769.25 446.207031 791.308594 416.605469 825.554688 408.476562 C 855.738281 401.511719 893.46875 411.378906 934.683594 436.921875 C 972.996094 460.71875 1010.726562 496.128906 1040.332031 536.179688 C 1085.609375 597.132812 1152.363281 595.96875 1199.960938 583.78125 C 1252.203125 570.429688 1294 542.566406 1294.578125 542.566406 L 1295.738281 543.726562 C 1295.160156 543.726562 1253.367188 572.171875 1201.121094 585.523438 C 1185.449219 590.164062 1168.035156 592.488281 1150.039062 592.488281 Z M 1150.039062 592.488281" fill="#ffffff"/><path fill-rule="nonzero" fill-opacity="1" d="M 1152.941406 603.515625 C 1114.050781 603.515625 1071.675781 590.164062 1040.332031 544.886719 C 1012.46875 504.253906 976.480469 468.847656 939.910156 445.046875 C 901.597656 420.667969 864.445312 410.21875 835.421875 416.601562 C 800.59375 424.148438 777.375 454.335938 768.667969 504.835938 C 764.605469 526.894531 756.476562 540.246094 743.128906 546.050781 C 710.621094 560.5625 653.734375 525.734375 588.140625 485.097656 C 502.230469 432.277344 403.550781 371.90625 330.988281 404.992188 C 181.808594 473.488281 60.488281 523.992188 58.746094 524.570312 L 58.167969 522.832031 C 59.328125 522.25 181.226562 472.328125 329.828125 403.832031 C 403.550781 369.585938 502.230469 430.535156 589.300781 484.519531 C 654.316406 524.570312 710.621094 559.402344 742.546875 545.46875 C 755.316406 539.664062 763.445312 526.894531 766.925781 505.417969 C 776.214844 454.335938 799.433594 423.570312 834.84375 416.023438 C 864.445312 409.636719 901.597656 420.085938 940.488281 444.464844 C 977.640625 468.265625 1013.628906 503.675781 1041.492188 544.886719 C 1065.871094 580.296875 1113.472656 618.027344 1200.542969 596.550781 C 1252.785156 583.78125 1294.578125 555.335938 1295.160156 554.757812 L 1296.320312 555.917969 C 1295.738281 555.917969 1253.367188 584.941406 1201.121094 597.710938 C 1186.609375 601.195312 1170.359375 603.515625 1152.941406 603.515625 Z M 1152.941406 603.515625" fill="#ffffff"/><path fill-rule="nonzero" fill-opacity="1" d="M 1155.265625 615.707031 C 1145.976562 615.707031 1136.109375 615.125 1126.242188 612.804688 C 1091.414062 605.839844 1062.96875 585.523438 1042.074219 552.433594 C 986.347656 465.945312 903.917969 411.378906 844.710938 423.570312 C 808.722656 430.535156 784.339844 462.460938 775.054688 514.703125 C 770.992188 536.179688 762.863281 549.53125 750.09375 555.335938 C 718.167969 569.269531 661.859375 534.441406 596.847656 493.808594 C 508.035156 438.082031 407.03125 375.390625 332.152344 412.539062 C 181.226562 487.421875 61.070312 535.019531 59.90625 535.601562 L 59.328125 533.859375 C 60.488281 533.277344 180.648438 485.679688 331.570312 410.796875 C 407.613281 373.066406 508.617188 436.339844 598.007812 492.066406 C 662.441406 532.699219 718.746094 567.527344 750.09375 553.597656 C 762.28125 548.371094 770.410156 535.019531 773.894531 514.125 C 783.179688 461.300781 808.140625 428.792969 844.710938 421.828125 C 903.917969 410.21875 987.507812 464.78125 1043.8125 551.855469 C 1064.710938 584.359375 1092.574219 604.097656 1126.820312 611.0625 C 1168.617188 619.769531 1212.730469 607 1242.335938 594.808594 C 1274.261719 581.457031 1296.902344 566.367188 1296.902344 566.367188 L 1298.0625 567.527344 C 1298.0625 567.527344 1275.421875 583.199219 1242.917969 596.550781 C 1219.699219 605.839844 1187.773438 615.707031 1155.265625 615.707031 Z M 1155.265625 615.707031" fill="#ffffff"/><path fill-rule="nonzero" fill-opacity="1" d="M 1158.746094 627.316406 C 1148.878906 627.316406 1138.429688 626.15625 1128.5625 624.414062 C 1093.734375 616.867188 1065.292969 595.390625 1044.976562 560.5625 C 993.894531 474.652344 914.367188 419.507812 856.320312 429.953125 C 818.589844 436.921875 793.628906 469.425781 783.761719 523.992188 C 779.699219 545.46875 772.152344 558.238281 759.378906 564.042969 C 727.453125 577.976562 671.730469 542.566406 607.296875 501.933594 C 515.582031 444.464844 412.257812 379.453125 335.054688 420.085938 C 181.808594 500.773438 63.390625 546.628906 62.230469 547.210938 L 61.648438 545.46875 C 62.808594 544.886719 181.226562 499.03125 334.472656 418.34375 C 412.835938 377.132812 516.160156 442.726562 607.875 500.191406 C 672.308594 540.824219 727.453125 575.652344 758.800781 562.304688 C 770.992188 557.078125 778.535156 544.308594 782.601562 523.410156 C 789.566406 484.519531 808.140625 436.921875 856.902344 427.632812 C 916.109375 417.183594 996.214844 472.328125 1047.296875 558.820312 C 1067.613281 593.066406 1095.476562 613.964844 1129.722656 621.511719 C 1170.9375 630.800781 1215.054688 618.027344 1244.660156 605.839844 C 1276.585938 592.488281 1299.222656 577.394531 1299.222656 576.816406 L 1300.382812 577.976562 C 1298.640625 579.71875 1229.566406 627.316406 1158.746094 627.316406 Z M 1158.746094 627.316406" fill="#ffffff"/><path fill-rule="nonzero" fill-opacity="1" d="M 1161.070312 637.765625 C 1150.621094 637.765625 1140.171875 636.605469 1130.304688 634.28125 C 1094.894531 626.15625 1066.453125 603.515625 1046.136719 566.945312 C 997.957031 479.875 923.65625 426.472656 865.027344 435.757812 C 815.6875 443.886719 797.113281 493.226562 790.144531 532.699219 C 786.664062 553.597656 778.535156 566.367188 765.765625 572.171875 C 734.421875 586.101562 678.695312 550.695312 614.84375 509.480469 C 570.144531 481.035156 519.644531 448.53125 471.464844 429.953125 C 415.738281 408.476562 371.625 407.316406 336.792969 427.050781 C 181.808594 514.703125 63.972656 558.820312 62.808594 559.402344 L 62.230469 557.660156 C 63.390625 557.078125 180.648438 512.960938 335.632812 425.890625 C 371.625 405.574219 415.738281 406.734375 472.046875 428.214844 C 520.804688 447.367188 571.308594 479.292969 616.003906 508.320312 C 679.855469 548.953125 735 584.359375 765.765625 571.011719 C 777.957031 565.785156 785.503906 553.015625 788.984375 532.699219 C 799.433594 475.8125 826.136719 440.984375 865.609375 434.019531 C 924.816406 424.148438 999.699219 478.132812 1048.457031 565.785156 C 1068.773438 601.773438 1096.636719 624.414062 1131.464844 632.539062 C 1172.679688 641.828125 1216.214844 629.636719 1245.820312 617.449219 C 1277.746094 604.097656 1300.382812 588.425781 1300.382812 588.425781 L 1301.542969 589.585938 C 1299.804688 590.164062 1231.308594 637.765625 1161.070312 637.765625 Z M 1161.070312 637.765625" fill="#ffffff"/><path fill-rule="nonzero" fill-opacity="1" d="M 1164.550781 649.953125 C 1154.105469 649.953125 1143.074219 648.792969 1132.625 646.472656 C 1096.636719 637.765625 1068.773438 613.964844 1048.457031 575.074219 C 1003.761719 488.582031 932.363281 434.019531 875.476562 442.726562 C 836.003906 448.53125 808.140625 484.519531 797.691406 542.566406 C 794.210938 563.464844 786.082031 575.652344 773.894531 581.457031 C 742.546875 594.808594 687.402344 559.402344 623.550781 517.605469 C 532.996094 458.976562 420.382812 386.417969 339.117188 434.597656 C 181.808594 528.054688 66.292969 569.847656 65.132812 570.429688 L 63.972656 569.269531 C 65.132812 568.6875 180.648438 526.894531 337.957031 433.4375 C 419.800781 384.675781 533.574219 457.816406 624.128906 516.445312 C 687.980469 557.660156 742.546875 593.066406 772.730469 579.71875 C 784.339844 574.492188 791.886719 562.304688 795.371094 541.984375 C 805.820312 482.777344 834.261719 446.789062 874.316406 440.402344 C 932.363281 431.695312 1004.339844 486.261719 1049.039062 573.332031 C 1068.773438 611.644531 1096.636719 635.441406 1132.046875 644.148438 C 1172.679688 654.019531 1216.214844 641.828125 1245.820312 629.636719 C 1277.746094 616.285156 1300.382812 600.613281 1300.382812 600.613281 L 1301.542969 601.773438 C 1301.542969 602.9375 1234.210938 649.953125 1164.550781 649.953125 Z M 1164.550781 649.953125" fill="#ffffff"/><path fill-rule="nonzero" fill-opacity="1" d="M 1167.453125 661.5625 C 1156.425781 661.5625 1145.398438 660.402344 1134.949219 657.5 C 1098.957031 648.214844 1070.515625 622.671875 1050.78125 582.039062 C 1008.40625 494.386719 941.648438 440.984375 885.34375 448.53125 C 844.710938 454.335938 816.265625 490.90625 805.238281 551.855469 C 801.753906 572.171875 793.628906 584.941406 781.4375 590.164062 C 750.671875 603.515625 695.527344 567.527344 631.675781 525.734375 C 538.800781 465.945312 423.867188 390.480469 340.859375 442.144531 C 213.152344 522.25 105.183594 568.6875 66.292969 582.039062 L 65.710938 580.296875 C 104.605469 566.945312 212.574219 520.507812 340.277344 440.402344 C 424.445312 388.160156 539.960938 463.621094 632.835938 523.992188 C 696.109375 565.207031 750.671875 601.195312 780.859375 587.84375 C 792.46875 582.621094 800.015625 571.011719 803.496094 550.691406 C 818.589844 467.683594 860.964844 449.691406 884.761719 446.207031 C 942.230469 438.082031 1009.566406 492.066406 1052.519531 580.878906 C 1072.257812 620.929688 1100.121094 646.472656 1135.527344 655.179688 C 1176.160156 665.628906 1219.117188 653.4375 1248.722656 641.246094 C 1280.648438 627.898438 1302.707031 612.222656 1303.285156 612.222656 L 1304.445312 613.382812 C 1302.707031 614.546875 1235.949219 661.5625 1167.453125 661.5625 Z M 1167.453125 661.5625" fill="#ffffff"/><path fill-rule="nonzero" fill-opacity="1" d="M 1170.359375 672.011719 C 1159.328125 672.011719 1148.300781 670.851562 1137.269531 667.949219 C 1100.699219 658.082031 1072.257812 631.378906 1053.101562 588.425781 C 1013.628906 501.351562 949.777344 447.367188 894.632812 454.335938 C 853.417969 459.558594 823.8125 498.449219 812.203125 560.5625 C 808.722656 580.878906 801.175781 593.066406 788.984375 598.292969 C 758.21875 611.644531 703.65625 575.074219 639.804688 533.277344 C 545.183594 471.167969 427.929688 393.964844 343.179688 449.109375 C 214.3125 533.859375 106.347656 580.296875 68.035156 593.066406 L 67.453125 591.328125 C 106.347656 578.554688 213.734375 532.117188 342.597656 447.367188 C 428.507812 391.0625 546.347656 468.847656 641.542969 531.539062 C 704.816406 573.332031 759.378906 609.320312 788.984375 596.550781 C 800.59375 591.328125 807.558594 579.71875 811.042969 559.980469 C 822.070312 496.710938 852.835938 457.816406 894.632812 452.59375 C 921.332031 449.109375 950.355469 459.558594 978.800781 482.777344 C 1008.40625 506.578125 1034.527344 543.148438 1054.84375 587.84375 C 1074 630.21875 1101.859375 656.339844 1137.851562 666.207031 C 1215.054688 687.105469 1303.867188 623.832031 1305.027344 623.253906 L 1306.1875 624.414062 C 1304.445312 624.996094 1238.273438 672.011719 1170.359375 672.011719 Z M 1170.359375 672.011719" fill="#ffffff"/><path fill-rule="nonzero" fill-opacity="1" d="M 1173.261719 684.203125 C 1161.648438 684.203125 1150.621094 683.042969 1139.59375 679.558594 C 1103.023438 669.109375 1074.578125 641.246094 1055.421875 596.550781 C 1017.691406 507.738281 958.484375 454.914062 904.5 460.71875 C 862.707031 465.363281 831.941406 505.417969 820.332031 570.429688 C 816.847656 590.164062 809.300781 602.355469 797.113281 607.578125 C 766.925781 620.351562 711.78125 583.78125 648.511719 541.40625 C 551.570312 477.554688 431.414062 397.449219 344.921875 456.65625 C 213.734375 546.628906 106.925781 593.066406 68.613281 605.257812 L 68.035156 603.515625 C 106.347656 591.328125 212.574219 544.886719 343.761719 455.496094 C 431.414062 395.125 552.152344 475.8125 649.089844 540.246094 C 712.363281 582.039062 766.347656 618.609375 795.949219 605.839844 C 807.558594 601.195312 814.527344 589.585938 818.007812 569.847656 C 829.617188 504.253906 860.964844 463.621094 903.917969 458.976562 C 959.0625 452.59375 1018.851562 506.578125 1056.585938 595.96875 C 1075.160156 640.085938 1103.023438 667.949219 1139.59375 677.816406 C 1216.214844 699.296875 1305.609375 635.441406 1306.1875 634.863281 L 1307.351562 636.023438 C 1306.1875 637.183594 1240.59375 684.203125 1173.261719 684.203125 Z M 1173.261719 684.203125" fill="#ffffff"/><path fill-rule="nonzero" fill-opacity="1" d="M 1175 695.230469 C 1163.390625 695.230469 1151.78125 694.070312 1140.753906 690.585938 C 1103.601562 679.558594 1075.160156 650.535156 1056.585938 603.515625 C 1038.589844 558.238281 1015.371094 521.089844 988.667969 497.289062 C 964.289062 474.652344 938.167969 464.203125 913.207031 467.105469 C 870.832031 471.167969 839.488281 512.382812 827.296875 579.71875 C 823.8125 599.453125 816.265625 611.0625 804.65625 616.285156 C 774.472656 629.058594 719.910156 592.488281 656.636719 549.53125 C 557.957031 483.359375 435.476562 400.929688 346.664062 464.203125 C 180.648438 582.039062 70.9375 616.285156 69.777344 616.867188 L 69.195312 615.125 C 70.355469 614.546875 179.484375 580.878906 345.5 463.042969 C 435.476562 399.1875 558.535156 481.617188 657.21875 548.371094 C 719.910156 590.746094 774.472656 627.316406 803.496094 615.125 C 814.527344 610.480469 821.492188 598.871094 824.972656 579.71875 C 842.390625 482.777344 891.730469 467.683594 912.625 465.363281 C 937.585938 463.042969 964.289062 473.488281 989.25 496.128906 C 1015.949219 520.507812 1039.75 557.078125 1057.746094 602.9375 C 1076.320312 649.375 1104.183594 678.398438 1140.753906 688.847656 C 1216.796875 710.90625 1305.609375 646.472656 1306.769531 645.890625 L 1307.929688 647.050781 C 1306.769531 648.214844 1241.753906 695.230469 1175 695.230469 Z M 1175 695.230469" fill="#ffffff"/><path fill-rule="nonzero" fill-opacity="1" d="M 1177.902344 707.421875 C 1166.292969 707.421875 1154.683594 705.679688 1143.074219 702.777344 C 1105.34375 691.167969 1076.902344 660.984375 1058.90625 611.644531 C 1025.820312 521.667969 972.996094 468.847656 921.914062 473.488281 C 879.539062 477.554688 847.03125 520.507812 834.84375 589.585938 C 831.359375 608.742188 823.8125 620.929688 812.785156 625.574219 C 783.179688 638.34375 728.617188 601.195312 665.34375 558.238281 C 564.339844 489.164062 439.539062 403.832031 348.984375 471.167969 C 181.226562 595.96875 72.679688 627.898438 72.097656 627.898438 L 71.515625 626.15625 C 72.679688 625.574219 180.648438 594.230469 348.402344 469.425781 C 440.121094 401.511719 565.503906 486.839844 666.503906 555.917969 C 729.195312 598.871094 783.179688 635.441406 812.203125 623.253906 C 823.234375 618.609375 830.199219 607.578125 833.683594 588.425781 C 845.871094 518.765625 879.539062 475.230469 922.496094 471.167969 C 974.738281 466.523438 1027.558594 519.929688 1061.226562 610.480469 C 1079.222656 659.242188 1107.085938 689.425781 1144.234375 700.457031 C 1219.699219 723.09375 1308.511719 658.660156 1309.671875 658.082031 L 1310.832031 659.242188 C 1308.511719 660.402344 1244.078125 707.421875 1177.902344 707.421875 Z M 1177.902344 707.421875" fill="#ffffff"/><g clip-path="url(#b86a9956a9)"><path fill-rule="nonzero" fill-opacity="1" d="M 1180.226562 719.03125 C 1168.617188 719.03125 1156.425781 717.289062 1144.816406 713.808594 C 1106.503906 702.199219 1078.0625 670.269531 1060.066406 618.609375 C 1029.882812 531.539062 982.285156 478.714844 934.683594 478.714844 C 932.941406 478.714844 931.203125 478.714844 929.460938 478.714844 C 887.085938 482.195312 854 526.894531 841.226562 597.710938 C 837.746094 616.867188 830.777344 628.476562 819.167969 633.121094 C 789.566406 645.3125 735.582031 608.160156 672.890625 564.625 C 570.726562 494.96875 443.023438 407.316406 350.726562 478.714844 C 180.648438 609.902344 73.839844 639.507812 72.679688 639.507812 L 72.097656 637.765625 C 73.257812 637.765625 179.484375 607.578125 348.984375 476.972656 C 442.441406 404.992188 570.726562 493.226562 673.46875 563.464844 C 735.582031 606.417969 789.566406 643.570312 818.589844 631.378906 C 829.617188 626.734375 836.003906 615.707031 839.488281 597.132812 C 852.257812 525.152344 885.925781 479.875 929.460938 476.390625 C 953.257812 474.652344 977.640625 485.679688 999.699219 508.320312 C 1024.078125 532.699219 1045.554688 570.429688 1061.808594 617.449219 C 1079.222656 667.949219 1107.667969 699.875 1145.398438 711.484375 C 1220.277344 734.703125 1309.671875 669.691406 1310.253906 669.109375 L 1311.414062 670.269531 C 1310.253906 672.011719 1245.820312 719.03125 1180.226562 719.03125 Z M 1180.226562 719.03125" fill="#ffffff"/></g></g></g></g></g></svg>