<svg xmlns="http://www.w3.org/2000/svg" xmlns:xlink="http://www.w3.org/1999/xlink" width="941" zoomAndPan="magnify" viewBox="0 0 705.75 54.75" height="73" preserveAspectRatio="xMidYMid meet" version="1.0"><defs><clipPath id="f51d71d830"><path d="M 462 2.171875 L 471 2.171875 L 471 11 L 462 11 Z M 462 2.171875 " clip-rule="nonzero"/></clipPath><clipPath id="4a9885437d"><path d="M 462 43 L 471 43 L 471 51.449219 L 462 51.449219 Z M 462 43 " clip-rule="nonzero"/></clipPath><clipPath id="687aa8e5c1"><path d="M 444.257812 33 L 453 33 L 453 42 L 444.257812 42 Z M 444.257812 33 " clip-rule="nonzero"/></clipPath><clipPath id="8e11fbdbb8"><path d="M 444.257812 12 L 453 12 L 453 21 L 444.257812 21 Z M 444.257812 12 " clip-rule="nonzero"/></clipPath><clipPath id="397e08e877"><path d="M 543.503906 2.171875 L 592.777344 2.171875 L 592.777344 30 L 543.503906 30 Z M 543.503906 2.171875 " clip-rule="nonzero"/></clipPath><clipPath id="fb12c0587d"><path d="M 562 46 L 575 46 L 575 51.449219 L 562 51.449219 Z M 562 46 " clip-rule="nonzero"/></clipPath><clipPath id="ba7c320efa"><path d="M 220.234375 2.171875 L 275.480469 2.171875 L 275.480469 51.449219 L 220.234375 51.449219 Z M 220.234375 2.171875 " clip-rule="nonzero"/></clipPath><clipPath id="90a2bc4097"><path d="M 162 17 L 165.394531 17 L 165.394531 23 L 162 23 Z M 162 17 " clip-rule="nonzero"/></clipPath><clipPath id="2e3631a969"><path d="M 162 9 L 165.394531 9 L 165.394531 16 L 162 16 Z M 162 9 " clip-rule="nonzero"/></clipPath><clipPath id="9c6e0844da"><path d="M 124 32 L 165.394531 32 L 165.394531 51.449219 L 124 51.449219 Z M 124 32 " clip-rule="nonzero"/></clipPath><clipPath id="ca6f491b43"><path d="M 152 2.171875 L 156 2.171875 L 156 9 L 152 9 Z M 152 2.171875 " clip-rule="nonzero"/></clipPath><clipPath id="b73e2c08d1"><path d="M 155 2.171875 L 160 2.171875 L 160 9 L 155 9 Z M 155 2.171875 " clip-rule="nonzero"/></clipPath><clipPath id="a37237a764"><path d="M 116.117188 32 L 123 32 L 123 50 L 116.117188 50 Z M 116.117188 32 " clip-rule="nonzero"/></clipPath><clipPath id="c347caed06"><path d="M 147 2.171875 L 151 2.171875 L 151 9 L 147 9 Z M 147 2.171875 " clip-rule="nonzero"/></clipPath><clipPath id="d2292f7256"><path d="M 330 3 L 389.511719 3 L 389.511719 51.449219 L 330 51.449219 Z M 330 3 " clip-rule="nonzero"/></clipPath><clipPath id="07e9e5e2d3"><path d="M 1.480469 2.171875 L 61.953125 2.171875 L 61.953125 51 L 1.480469 51 Z M 1.480469 2.171875 " clip-rule="nonzero"/></clipPath><clipPath id="1e72f09b0e"><path d="M 674 0 L 703.613281 0 L 703.613281 52 L 674 52 Z M 674 0 " clip-rule="nonzero"/></clipPath><clipPath id="392b8ae7cb"><path d="M 647.617188 10 L 677 10 L 677 53.753906 L 647.617188 53.753906 Z M 647.617188 10 " clip-rule="nonzero"/></clipPath></defs><path fill="#1a2056" d="M 466.839844 15.886719 C 466.410156 15.886719 466.066406 15.542969 466.066406 15.113281 L 466.066406 9.445312 C 466.066406 9.015625 466.410156 8.667969 466.839844 8.667969 C 467.269531 8.667969 467.613281 9.015625 467.613281 9.445312 L 467.613281 15.113281 C 467.613281 15.542969 467.269531 15.886719 466.839844 15.886719 Z M 466.839844 15.886719 " fill-opacity="1" fill-rule="evenodd"/><g clip-path="url(#f51d71d830)"><path fill="#1a2056" d="M 466.839844 10.21875 C 464.625 10.21875 462.820312 8.417969 462.820312 6.199219 C 462.820312 3.984375 464.625 2.179688 466.839844 2.179688 C 469.054688 2.179688 470.859375 3.984375 470.859375 6.199219 C 470.859375 8.417969 469.054688 10.21875 466.839844 10.21875 Z M 466.839844 10.21875 " fill-opacity="1" fill-rule="evenodd"/></g><path fill="#1a2056" d="M 477.121094 21.820312 C 476.851562 21.820312 476.589844 21.683594 476.449219 21.433594 C 476.234375 21.0625 476.359375 20.589844 476.730469 20.375 L 481.640625 17.542969 C 482.011719 17.328125 482.484375 17.453125 482.699219 17.824219 C 482.914062 18.195312 482.785156 18.667969 482.414062 18.882812 L 477.507812 21.71875 C 477.382812 21.789062 477.25 21.820312 477.121094 21.820312 Z M 477.121094 21.820312 " fill-opacity="1" fill-rule="evenodd"/><path fill="#1a2056" d="M 484.839844 20.609375 C 483.40625 20.609375 482.070312 19.839844 481.355469 18.597656 C 480.25 16.679688 480.90625 14.21875 482.828125 13.109375 C 483.4375 12.757812 484.132812 12.570312 484.832031 12.570312 C 486.265625 12.570312 487.601562 13.339844 488.316406 14.582031 C 488.851562 15.511719 488.996094 16.59375 488.71875 17.628906 C 488.441406 18.667969 487.773438 19.535156 486.84375 20.070312 C 486.234375 20.421875 485.539062 20.609375 484.839844 20.609375 Z M 484.839844 20.609375 " fill-opacity="1" fill-rule="evenodd"/><path fill="#1a2056" d="M 466.839844 39.621094 C 459.867188 39.621094 454.199219 33.949219 454.199219 26.980469 C 454.199219 20.007812 459.871094 14.339844 466.839844 14.339844 C 473.808594 14.339844 479.480469 20.007812 479.480469 26.980469 C 479.480469 29.191406 478.902344 31.363281 477.808594 33.265625 C 477.808594 33.269531 477.789062 33.304688 477.785156 33.308594 C 475.535156 37.199219 471.339844 39.621094 466.839844 39.621094 Z M 466.839844 34.371094 C 465.199219 34.371094 463.863281 33.035156 463.863281 31.394531 C 463.863281 29.753906 465.199219 28.417969 466.839844 28.417969 C 468.480469 28.417969 469.816406 29.753906 469.816406 31.394531 C 469.816406 33.035156 468.480469 34.371094 466.839844 34.371094 Z M 466.839844 29.96875 C 466.054688 29.96875 465.414062 30.609375 465.414062 31.394531 C 465.414062 32.179688 466.054688 32.820312 466.839844 32.820312 C 467.625 32.820312 468.265625 32.179688 468.265625 31.394531 C 468.265625 30.609375 467.625 29.96875 466.839844 29.96875 Z M 463.078125 27.113281 C 462.882812 27.113281 462.683594 27.035156 462.53125 26.886719 C 462.226562 26.582031 462.226562 26.089844 462.53125 25.789062 C 463.683594 24.636719 465.210938 24.003906 466.839844 24.003906 C 468.46875 24.003906 469.996094 24.636719 471.148438 25.789062 C 471.449219 26.089844 471.449219 26.582031 471.148438 26.882812 C 470.84375 27.1875 470.355469 27.1875 470.050781 26.882812 C 469.195312 26.027344 468.054688 25.554688 466.839844 25.554688 C 465.625 25.554688 464.484375 26.027344 463.628906 26.882812 C 463.476562 27.035156 463.277344 27.113281 463.078125 27.113281 Z M 473.722656 23.988281 C 473.523438 23.988281 473.324219 23.914062 473.175781 23.761719 C 471.484375 22.070312 469.234375 21.140625 466.839844 21.140625 C 464.449219 21.140625 462.199219 22.070312 460.507812 23.761719 C 460.203125 24.066406 459.710938 24.066406 459.410156 23.761719 C 459.105469 23.460938 459.105469 22.96875 459.410156 22.667969 C 461.394531 20.683594 464.035156 19.589844 466.839844 19.589844 C 469.648438 19.589844 472.285156 20.683594 474.269531 22.667969 C 474.574219 22.96875 474.574219 23.460938 474.269531 23.761719 C 474.117188 23.914062 473.921875 23.988281 473.722656 23.988281 Z M 473.722656 23.988281 " fill-opacity="1" fill-rule="evenodd"/><path fill="#1a2056" d="M 482.027344 36.523438 C 481.894531 36.523438 481.761719 36.492188 481.640625 36.421875 L 476.730469 33.585938 C 476.359375 33.371094 476.234375 32.898438 476.449219 32.527344 C 476.660156 32.15625 477.132812 32.027344 477.507812 32.242188 L 482.414062 35.078125 C 482.785156 35.292969 482.910156 35.765625 482.699219 36.136719 C 482.554688 36.386719 482.292969 36.523438 482.027344 36.523438 Z M 482.027344 36.523438 " fill-opacity="1" fill-rule="evenodd"/><path fill="#1a2056" d="M 484.832031 41.390625 C 484.132812 41.390625 483.4375 41.203125 482.828125 40.851562 C 480.90625 39.742188 480.246094 37.28125 481.355469 35.359375 C 482.070312 34.121094 483.40625 33.351562 484.839844 33.351562 C 485.539062 33.351562 486.234375 33.539062 486.84375 33.890625 C 487.773438 34.425781 488.441406 35.292969 488.71875 36.332031 C 488.996094 37.367188 488.851562 38.449219 488.316406 39.378906 C 487.601562 40.621094 486.265625 41.390625 484.832031 41.390625 Z M 484.832031 41.390625 " fill-opacity="1" fill-rule="evenodd"/><path fill="#1a2056" d="M 466.839844 45.292969 C 466.410156 45.292969 466.066406 44.945312 466.066406 44.515625 L 466.066406 38.847656 C 466.066406 38.417969 466.410156 38.074219 466.839844 38.074219 C 467.269531 38.074219 467.613281 38.417969 467.613281 38.847656 L 467.613281 44.515625 C 467.613281 44.945312 467.269531 45.292969 466.839844 45.292969 Z M 466.839844 45.292969 " fill-opacity="1" fill-rule="evenodd"/><g clip-path="url(#4a9885437d)"><path fill="#1a2056" d="M 466.839844 51.777344 C 464.625 51.777344 462.820312 49.976562 462.820312 47.761719 C 462.820312 45.542969 464.625 43.742188 466.839844 43.742188 C 469.054688 43.742188 470.859375 45.542969 470.859375 47.761719 C 470.859375 49.976562 469.054688 51.777344 466.839844 51.777344 Z M 466.839844 51.777344 " fill-opacity="1" fill-rule="evenodd"/></g><path fill="#1a2056" d="M 451.652344 36.523438 C 451.386719 36.523438 451.125 36.386719 450.980469 36.136719 C 450.769531 35.765625 450.894531 35.292969 451.265625 35.078125 L 456.171875 32.242188 C 456.542969 32.03125 457.019531 32.15625 457.234375 32.527344 C 457.445312 32.898438 457.320312 33.371094 456.949219 33.585938 L 452.039062 36.421875 C 451.917969 36.488281 451.785156 36.523438 451.652344 36.523438 Z M 451.652344 36.523438 " fill-opacity="1" fill-rule="evenodd"/><g clip-path="url(#687aa8e5c1)"><path fill="#1a2056" d="M 448.847656 41.390625 C 447.414062 41.390625 446.078125 40.621094 445.363281 39.378906 C 444.828125 38.449219 444.683594 37.367188 444.960938 36.332031 C 445.238281 35.292969 445.90625 34.425781 446.835938 33.890625 C 447.445312 33.539062 448.136719 33.351562 448.839844 33.351562 C 450.273438 33.351562 451.609375 34.121094 452.324219 35.359375 C 452.859375 36.289062 453.003906 37.375 452.726562 38.410156 C 452.449219 39.445312 451.78125 40.3125 450.851562 40.851562 C 450.242188 41.203125 449.546875 41.390625 448.847656 41.390625 Z M 448.847656 41.390625 " fill-opacity="1" fill-rule="evenodd"/></g><path fill="#1a2056" d="M 456.558594 21.820312 C 456.429688 21.820312 456.296875 21.789062 456.171875 21.71875 L 451.265625 18.882812 C 450.894531 18.667969 450.765625 18.195312 450.980469 17.824219 C 451.195312 17.453125 451.667969 17.328125 452.039062 17.539062 L 456.949219 20.375 C 457.320312 20.589844 457.445312 21.0625 457.230469 21.433594 C 457.089844 21.683594 456.828125 21.820312 456.558594 21.820312 Z M 456.558594 21.820312 " fill-opacity="1" fill-rule="evenodd"/><g clip-path="url(#8e11fbdbb8)"><path fill="#1a2056" d="M 448.839844 20.609375 C 448.140625 20.609375 447.445312 20.421875 446.835938 20.070312 C 444.914062 18.960938 444.253906 16.5 445.363281 14.582031 C 446.078125 13.339844 447.414062 12.570312 448.847656 12.570312 C 449.546875 12.570312 450.242188 12.757812 450.851562 13.109375 C 452.769531 14.21875 453.429688 16.679688 452.324219 18.601562 C 451.609375 19.839844 450.273438 20.609375 448.839844 20.609375 Z M 448.839844 20.609375 " fill-opacity="1" fill-rule="evenodd"/></g><g clip-path="url(#397e08e877)"><path fill="#1a2056" d="M 545.273438 20.777344 C 545.273438 17.34375 547.726562 14.414062 551.109375 13.808594 C 551.59375 13.726562 552.050781 14.042969 552.136719 14.523438 C 552.222656 15.003906 551.902344 15.464844 551.421875 15.550781 C 548.886719 16.007812 547.046875 18.203125 547.046875 20.777344 C 547.046875 21.265625 546.648438 21.664062 546.160156 21.664062 C 545.671875 21.664062 545.273438 21.265625 545.273438 20.777344 Z M 562.460938 5.898438 C 564.15625 4.621094 566.175781 3.945312 568.308594 3.945312 C 568.796875 3.945312 569.195312 4.34375 569.195312 4.832031 C 569.195312 5.320312 568.796875 5.71875 568.308594 5.71875 C 566.566406 5.71875 564.910156 6.265625 563.527344 7.3125 C 563.367188 7.433594 563.179688 7.492188 562.992188 7.492188 C 562.726562 7.492188 562.460938 7.371094 562.285156 7.140625 C 561.988281 6.75 562.070312 6.191406 562.460938 5.898438 Z M 550.589844 29.453125 L 550.589844 19.890625 C 550.589844 18.425781 551.78125 17.234375 553.246094 17.234375 L 583.371094 17.234375 C 584.835938 17.234375 586.027344 18.425781 586.027344 19.890625 L 586.027344 29.453125 C 590.128906 28.636719 593.117188 25.066406 593.117188 20.777344 C 593.117188 16.207031 589.542969 12.332031 584.984375 11.960938 C 584.964844 11.957031 584.953125 11.949219 584.941406 11.945312 C 584.128906 11.886719 583.28125 11.933594 582.46875 12.097656 C 582.40625 12.113281 582.347656 12.117188 582.289062 12.117188 C 581.878906 12.117188 581.511719 11.828125 581.425781 11.410156 C 581.324219 10.929688 581.636719 10.460938 582.113281 10.363281 C 582.8125 10.21875 583.539062 10.148438 584.257812 10.148438 C 584.257812 7.703125 582.269531 5.71875 579.824219 5.71875 C 579.144531 5.71875 578.492188 5.871094 577.886719 6.167969 C 577.882812 6.171875 577.878906 6.171875 577.871094 6.171875 C 577.082031 6.5625 576.429688 7.171875 575.988281 7.933594 C 575.824219 8.214844 575.527344 8.375 575.21875 8.375 C 575.070312 8.375 574.917969 8.335938 574.777344 8.257812 C 574.355469 8.011719 574.210938 7.46875 574.453125 7.046875 C 574.871094 6.328125 575.429688 5.714844 576.085938 5.21875 C 573.964844 3.273438 571.1875 2.171875 568.308594 2.171875 C 564.710938 2.171875 561.378906 3.847656 559.203125 6.679688 C 559.945312 7.144531 560.585938 7.753906 561.074219 8.488281 C 561.347656 8.898438 561.234375 9.449219 560.828125 9.71875 C 560.675781 9.816406 560.503906 9.867188 560.335938 9.867188 C 560.046875 9.867188 559.769531 9.726562 559.597656 9.46875 C 559.101562 8.722656 558.394531 8.148438 557.558594 7.8125 C 557.558594 7.808594 557.558594 7.808594 557.558594 7.808594 C 557.015625 7.597656 556.460938 7.488281 555.90625 7.488281 C 554.113281 7.488281 552.546875 8.589844 551.855469 10.171875 C 552.027344 10.164062 552.191406 10.148438 552.363281 10.148438 C 552.847656 10.148438 553.246094 10.542969 553.246094 11.03125 C 553.246094 11.519531 552.847656 11.917969 552.363281 11.917969 C 551.835938 11.917969 551.308594 11.972656 550.792969 12.0625 C 546.566406 12.820312 543.503906 16.488281 543.503906 20.777344 C 543.503906 25.066406 546.488281 28.636719 550.589844 29.453125 " fill-opacity="1" fill-rule="nonzero"/></g><path fill="#1a2056" d="M 584.257812 43.8125 L 584.257812 42.925781 L 552.363281 42.925781 L 552.363281 43.8125 C 552.363281 44.300781 552.757812 44.699219 553.246094 44.699219 L 583.371094 44.699219 C 583.859375 44.699219 584.257812 44.300781 584.257812 43.8125 " fill-opacity="1" fill-rule="nonzero"/><g clip-path="url(#fb12c0587d)"><path fill="#1a2056" d="M 570.328125 46.472656 L 566.289062 46.472656 C 565.445312 48.789062 563.597656 49.96875 562.5 50.476562 C 562.257812 50.589844 562.105469 50.828125 562.105469 51.097656 C 562.105469 51.480469 562.414062 51.785156 562.796875 51.785156 L 573.820312 51.785156 C 574.203125 51.785156 574.511719 51.480469 574.511719 51.097656 C 574.511719 50.828125 574.359375 50.589844 574.117188 50.476562 C 573.019531 49.96875 571.171875 48.789062 570.328125 46.472656 " fill-opacity="1" fill-rule="nonzero"/></g><path fill="#1a2056" d="M 570.707031 25.835938 L 560.960938 35.578125 C 560.789062 35.753906 560.5625 35.839844 560.335938 35.839844 C 560.105469 35.839844 559.882812 35.753906 559.707031 35.578125 C 559.363281 35.234375 559.363281 34.671875 559.707031 34.328125 L 569.453125 24.582031 C 569.800781 24.234375 570.359375 24.234375 570.707031 24.582031 C 571.054688 24.929688 571.054688 25.488281 570.707031 25.835938 Z M 558.5625 32.296875 C 558.335938 32.296875 558.109375 32.210938 557.9375 32.035156 C 557.589844 31.691406 557.589844 31.128906 557.9375 30.785156 L 564.136719 24.582031 C 564.484375 24.234375 565.046875 24.234375 565.390625 24.582031 C 565.738281 24.929688 565.738281 25.488281 565.390625 25.835938 L 559.191406 32.035156 C 559.015625 32.210938 558.792969 32.296875 558.5625 32.296875 Z M 557.9375 25.46875 L 558.824219 24.582031 C 559.167969 24.234375 559.730469 24.234375 560.074219 24.582031 C 560.421875 24.929688 560.421875 25.488281 560.074219 25.835938 L 559.191406 26.71875 C 559.015625 26.894531 558.792969 26.980469 558.5625 26.980469 C 558.335938 26.980469 558.109375 26.894531 557.9375 26.71875 C 557.589844 26.375 557.589844 25.8125 557.9375 25.46875 Z M 555.90625 22.550781 L 555.90625 37.613281 L 580.714844 37.613281 L 580.710938 22.550781 L 555.90625 22.550781 " fill-opacity="1" fill-rule="nonzero"/><path fill="#1a2056" d="M 582.484375 37.613281 C 582.484375 38.585938 581.6875 39.382812 580.710938 39.382812 L 555.90625 39.382812 C 554.929688 39.382812 554.132812 38.585938 554.132812 37.613281 L 554.132812 22.550781 C 554.132812 21.574219 554.929688 20.777344 555.90625 20.777344 L 580.710938 20.777344 C 581.6875 20.777344 582.484375 21.574219 582.484375 22.550781 Z M 584.257812 19.890625 C 584.257812 19.40625 583.859375 19.007812 583.371094 19.007812 L 553.246094 19.007812 C 552.757812 19.007812 552.363281 19.40625 552.363281 19.890625 L 552.363281 41.15625 L 584.257812 41.15625 L 584.257812 19.890625 " fill-opacity="1" fill-rule="nonzero"/><g clip-path="url(#ba7c320efa)"><path fill="#1a2056" d="M 255.621094 51.707031 L 255.621094 36.613281 L 258.554688 36.613281 C 258.933594 37.855469 260.089844 38.746094 261.4375 38.746094 C 263.097656 38.746094 264.449219 37.394531 264.449219 35.734375 C 264.449219 34.070312 263.097656 32.71875 261.4375 32.71875 C 260.089844 32.71875 258.933594 33.609375 258.554688 34.851562 L 254.738281 34.851562 C 254.253906 34.851562 253.859375 35.246094 253.859375 35.730469 L 253.859375 51.707031 L 251.238281 51.707031 L 251.238281 27.984375 L 254.171875 27.984375 C 254.550781 29.230469 255.710938 30.121094 257.054688 30.121094 C 258.71875 30.121094 260.070312 28.769531 260.070312 27.105469 C 260.070312 25.445312 258.71875 24.089844 257.054688 24.089844 C 255.710938 24.089844 254.554688 24.980469 254.171875 26.226562 L 250.359375 26.226562 C 249.871094 26.226562 249.476562 26.621094 249.476562 27.105469 L 249.476562 51.707031 L 246.234375 51.707031 L 246.234375 27.105469 C 246.234375 26.621094 245.839844 26.226562 245.355469 26.226562 L 241.539062 26.226562 C 241.160156 24.980469 240.003906 24.089844 238.65625 24.089844 C 236.996094 24.089844 235.644531 25.445312 235.644531 27.105469 C 235.644531 28.769531 236.996094 30.121094 238.65625 30.121094 C 240.003906 30.121094 241.160156 29.230469 241.539062 27.984375 L 244.472656 27.984375 L 244.472656 51.707031 L 241.515625 51.707031 L 241.515625 35.730469 C 241.515625 35.246094 241.121094 34.851562 240.636719 34.851562 L 236.820312 34.851562 C 236.441406 33.609375 235.285156 32.71875 233.9375 32.71875 C 232.277344 32.71875 230.925781 34.070312 230.925781 35.734375 C 230.925781 37.394531 232.277344 38.746094 233.9375 38.746094 C 235.285156 38.746094 236.441406 37.855469 236.820312 36.613281 L 239.757812 36.613281 L 239.757812 51.707031 L 238.199219 51.707031 C 232.222656 51.707031 227.167969 51.265625 227.167969 45.582031 L 227.167969 31.015625 L 223.304688 31.015625 C 222.152344 31.015625 221.117188 30.328125 220.679688 29.273438 C 220.238281 28.21875 220.480469 27.007812 221.292969 26.199219 L 227.226562 20.3125 C 227.195312 20.128906 227.167969 19.949219 227.167969 19.742188 L 227.167969 11.957031 C 227.167969 9.886719 228.855469 8.210938 230.941406 8.210938 L 230.960938 8.210938 C 232.960938 8.210938 234.574219 9.746094 234.714844 11.695312 C 234.714844 12.480469 234.738281 12.84375 234.792969 12.792969 C 234.875 12.710938 235.246094 12.34375 235.382812 12.207031 C 237.238281 10.363281 240.023438 7.597656 243.738281 3.90625 C 244.8125 2.839844 246.242188 2.253906 247.757812 2.253906 C 249.277344 2.253906 250.703125 2.839844 251.777344 3.90625 L 274.222656 26.199219 C 275.035156 27.007812 275.277344 28.21875 274.839844 29.273438 C 274.398438 30.328125 273.363281 31.015625 272.214844 31.015625 L 268.835938 31.015625 L 268.835938 45.582031 C 268.835938 51.359375 264.0625 51.707031 258.199219 51.707031 Z M 255.621094 51.707031 " fill-opacity="1" fill-rule="nonzero"/></g><path fill="#1a2056" d="M 159.269531 4.25 C 160.167969 5.375 160.933594 6.6875 161.539062 8.152344 L 163.269531 8.152344 C 162.207031 6.601562 160.84375 5.277344 159.269531 4.25 " fill-opacity="1" fill-rule="nonzero"/><g clip-path="url(#90a2bc4097)"><path fill="#1a2056" d="M 165.6875 17.011719 L 163.042969 17.011719 C 162.96875 18.886719 162.675781 20.679688 162.179688 22.328125 L 164.28125 22.328125 C 165.078125 20.707031 165.570312 18.910156 165.6875 17.011719 " fill-opacity="1" fill-rule="nonzero"/></g><g clip-path="url(#2e3631a969)"><path fill="#1a2056" d="M 164.28125 9.925781 L 162.179688 9.925781 C 162.675781 11.574219 162.96875 13.367188 163.042969 15.242188 L 165.6875 15.242188 C 165.570312 13.34375 165.078125 11.546875 164.28125 9.925781 " fill-opacity="1" fill-rule="nonzero"/></g><path fill="#1a2056" d="M 163.269531 24.101562 L 161.539062 24.101562 C 160.933594 25.566406 160.167969 26.878906 159.269531 28.003906 C 160.84375 26.976562 162.207031 25.652344 163.269531 24.101562 " fill-opacity="1" fill-rule="nonzero"/><path fill="#1a2056" d="M 152.441406 29.917969 C 153.425781 29.132812 154.460938 27.113281 155.15625 24.101562 L 152.441406 24.101562 L 152.441406 29.917969 " fill-opacity="1" fill-rule="nonzero"/><path fill="#1a2056" d="M 150.671875 17.011719 L 147.144531 17.011719 C 147.183594 18.976562 147.347656 20.753906 147.609375 22.328125 L 150.671875 22.328125 L 150.671875 17.011719 " fill-opacity="1" fill-rule="nonzero"/><path fill="#1a2056" d="M 147.824219 29.0625 C 147.117188 27.71875 146.5625 26.003906 146.15625 24.101562 L 143.804688 24.101562 C 144.800781 26.261719 146.191406 27.988281 147.824219 29.0625 " fill-opacity="1" fill-rule="nonzero"/><path fill="#1a2056" d="M 160.324219 22.328125 C 160.863281 20.707031 161.191406 18.910156 161.269531 17.011719 L 157.742188 17.011719 C 157.707031 18.816406 157.550781 20.617188 157.285156 22.328125 L 160.324219 22.328125 " fill-opacity="1" fill-rule="nonzero"/><g clip-path="url(#9c6e0844da)"><path fill="#1a2056" d="M 129.710938 33.140625 L 124.09375 35.335938 L 124.09375 45.597656 L 142.945312 51.480469 C 143.550781 51.667969 144.210938 51.542969 144.703125 51.144531 L 165.332031 34.527344 C 165.574219 34.335938 165.714844 34.058594 165.726562 33.75 C 165.746094 33.4375 165.636719 33.148438 165.417969 32.929688 C 165.058594 32.574219 164.496094 32.511719 164.078125 32.78125 L 146.769531 43.742188 C 145.914062 44.289062 144.796875 44.289062 143.941406 43.753906 L 138.015625 40.046875 L 134.722656 40.046875 C 134.234375 40.046875 133.835938 39.648438 133.835938 39.160156 C 133.835938 38.675781 134.234375 38.277344 134.722656 38.277344 L 151.800781 38.277344 C 151.984375 38.277344 152.164062 38.222656 152.316406 38.132812 L 152.367188 38.097656 C 152.636719 37.914062 152.816406 37.609375 152.816406 37.253906 C 152.816406 36.746094 152.453125 36.320312 151.953125 36.246094 L 131.113281 32.988281 C 130.644531 32.914062 130.160156 32.96875 129.710938 33.140625 " fill-opacity="1" fill-rule="nonzero"/></g><g clip-path="url(#ca6f491b43)"><path fill="#1a2056" d="M 152.441406 2.335938 L 152.441406 8.152344 L 155.15625 8.152344 C 154.460938 5.140625 153.425781 3.121094 152.441406 2.335938 " fill-opacity="1" fill-rule="nonzero"/></g><path fill="#1a2056" d="M 152.441406 15.242188 L 155.96875 15.242188 C 155.929688 13.277344 155.765625 11.5 155.503906 9.925781 L 152.441406 9.925781 L 152.441406 15.242188 " fill-opacity="1" fill-rule="nonzero"/><path fill="#1a2056" d="M 152.441406 22.328125 L 155.503906 22.328125 C 155.765625 20.753906 155.929688 18.976562 155.96875 17.011719 L 152.441406 17.011719 L 152.441406 22.328125 " fill-opacity="1" fill-rule="nonzero"/><g clip-path="url(#b73e2c08d1)"><path fill="#1a2056" d="M 155.109375 2.886719 C 155.898438 4.273438 156.515625 6.097656 156.957031 8.152344 L 159.636719 8.152344 C 158.535156 5.777344 156.957031 3.925781 155.109375 2.886719 " fill-opacity="1" fill-rule="nonzero"/></g><path fill="#1a2056" d="M 161.269531 15.242188 C 161.191406 13.34375 160.863281 11.546875 160.324219 9.925781 L 157.285156 9.925781 C 157.550781 11.636719 157.707031 13.4375 157.742188 15.242188 L 161.269531 15.242188 " fill-opacity="1" fill-rule="nonzero"/><path fill="#1a2056" d="M 155.109375 29.367188 C 156.957031 28.328125 158.535156 26.476562 159.636719 24.101562 L 156.957031 24.101562 C 156.515625 26.15625 155.898438 27.980469 155.109375 29.367188 " fill-opacity="1" fill-rule="nonzero"/><g clip-path="url(#a37237a764)"><path fill="#1a2056" d="M 117.003906 49.792969 L 121.433594 49.792969 C 121.921875 49.792969 122.320312 49.394531 122.320312 48.90625 L 122.320312 46.25 L 119.664062 46.25 C 119.175781 46.25 118.777344 45.851562 118.777344 45.363281 C 118.777344 44.875 119.175781 44.476562 119.664062 44.476562 L 122.320312 44.476562 L 122.320312 37.390625 L 119.664062 37.390625 C 119.175781 37.390625 118.777344 36.992188 118.777344 36.503906 C 118.777344 36.015625 119.175781 35.617188 119.664062 35.617188 L 122.320312 35.617188 L 122.320312 32.960938 C 122.320312 32.472656 121.921875 32.074219 121.433594 32.074219 L 117.003906 32.074219 C 116.515625 32.074219 116.117188 32.472656 116.117188 32.960938 L 116.117188 48.90625 C 116.117188 49.394531 116.515625 49.792969 117.003906 49.792969 " fill-opacity="1" fill-rule="nonzero"/></g><path fill="#1a2056" d="M 139.84375 24.101562 C 141.042969 25.851562 142.625 27.3125 144.464844 28.382812 C 143.441406 27.183594 142.574219 25.730469 141.902344 24.101562 L 139.84375 24.101562 " fill-opacity="1" fill-rule="nonzero"/><path fill="#1a2056" d="M 145.828125 9.925781 L 143.117188 9.925781 C 142.578125 11.546875 142.246094 13.34375 142.167969 15.242188 L 145.371094 15.242188 C 145.40625 13.4375 145.5625 11.636719 145.828125 9.925781 " fill-opacity="1" fill-rule="nonzero"/><path fill="#1a2056" d="M 143.117188 22.328125 L 145.828125 22.328125 C 145.5625 20.617188 145.40625 18.816406 145.371094 17.011719 L 142.167969 17.011719 C 142.246094 18.910156 142.578125 20.707031 143.117188 22.328125 " fill-opacity="1" fill-rule="nonzero"/><path fill="#1a2056" d="M 138.832031 22.328125 L 141.261719 22.328125 C 140.761719 20.679688 140.472656 18.886719 140.398438 17.011719 L 137.425781 17.011719 C 137.542969 18.910156 138.035156 20.707031 138.832031 22.328125 " fill-opacity="1" fill-rule="nonzero"/><path fill="#1a2056" d="M 137.425781 15.242188 L 140.398438 15.242188 C 140.472656 13.367188 140.761719 11.574219 141.261719 9.925781 L 138.832031 9.925781 C 138.035156 11.546875 137.542969 13.34375 137.425781 15.242188 " fill-opacity="1" fill-rule="nonzero"/><path fill="#1a2056" d="M 150.671875 29.917969 L 150.671875 24.101562 L 147.957031 24.101562 C 148.652344 27.113281 149.6875 29.132812 150.671875 29.917969 " fill-opacity="1" fill-rule="nonzero"/><g clip-path="url(#c347caed06)"><path fill="#1a2056" d="M 150.671875 2.335938 C 149.6875 3.121094 148.652344 5.140625 147.957031 8.152344 L 150.671875 8.152344 L 150.671875 2.335938 " fill-opacity="1" fill-rule="nonzero"/></g><path fill="#1a2056" d="M 147.144531 15.242188 L 150.671875 15.242188 L 150.671875 9.925781 L 147.609375 9.925781 C 147.347656 11.5 147.183594 13.277344 147.144531 15.242188 " fill-opacity="1" fill-rule="nonzero"/><path fill="#1a2056" d="M 139.84375 8.152344 L 141.902344 8.152344 C 142.574219 6.523438 143.441406 5.070312 144.464844 3.871094 C 142.625 4.941406 141.042969 6.402344 139.84375 8.152344 " fill-opacity="1" fill-rule="nonzero"/><path fill="#1a2056" d="M 143.804688 8.152344 L 146.15625 8.152344 C 146.5625 6.25 147.117188 4.535156 147.824219 3.191406 C 146.191406 4.265625 144.800781 5.992188 143.804688 8.152344 " fill-opacity="1" fill-rule="nonzero"/><g clip-path="url(#d2292f7256)"><path fill="#1a2056" d="M 357.457031 45.136719 C 357.648438 45.34375 357.792969 45.574219 357.894531 45.835938 C 357.992188 46.097656 358.042969 46.367188 358.039062 46.648438 C 358.035156 46.929688 357.980469 47.199219 357.875 47.457031 C 357.769531 47.714844 357.621094 47.945312 357.425781 48.148438 C 356.714844 48.929688 355.964844 49.671875 355.175781 50.371094 C 354.792969 50.640625 354.382812 50.855469 353.941406 51.015625 C 353.480469 51.054688 353.042969 50.964844 352.632812 50.742188 C 352.222656 50.519531 351.910156 50.199219 351.691406 49.789062 C 351.476562 49.425781 351.382812 49.035156 351.417969 48.613281 C 351.453125 48.195312 351.605469 47.824219 351.878906 47.503906 C 352.683594 46.570312 353.546875 45.703125 354.476562 44.898438 C 354.691406 44.714844 354.929688 44.582031 355.195312 44.496094 C 355.464844 44.410156 355.738281 44.375 356.015625 44.398438 C 356.296875 44.421875 356.5625 44.496094 356.8125 44.625 C 357.058594 44.753906 357.277344 44.921875 357.457031 45.136719 Z M 343.066406 30.988281 C 342.875 30.574219 342.585938 30.242188 342.203125 29.988281 C 341.820312 29.738281 341.402344 29.609375 340.945312 29.597656 C 340.464844 29.757812 340.019531 29.980469 339.597656 30.261719 C 338.769531 30.992188 337.988281 31.773438 337.25 32.597656 C 337.050781 32.804688 336.898438 33.039062 336.796875 33.308594 C 336.691406 33.574219 336.644531 33.851562 336.652344 34.136719 C 336.660156 34.425781 336.726562 34.699219 336.84375 34.960938 C 336.964844 35.222656 337.128906 35.449219 337.339844 35.644531 C 337.535156 35.84375 337.761719 36 338.019531 36.109375 C 338.277344 36.222656 338.546875 36.28125 338.828125 36.289062 C 339.109375 36.292969 339.378906 36.246094 339.640625 36.148438 C 339.90625 36.050781 340.140625 35.90625 340.34375 35.714844 C 341.183594 34.957031 341.980469 34.15625 342.738281 33.316406 C 343.042969 33.007812 343.226562 32.636719 343.285156 32.207031 C 343.347656 31.777344 343.273438 31.371094 343.066406 30.988281 Z M 347.496094 35.199219 C 347.285156 35.003906 347.046875 34.855469 346.78125 34.753906 C 346.515625 34.652344 346.238281 34.605469 345.953125 34.605469 C 345.664062 34.609375 345.390625 34.664062 345.125 34.773438 C 344.863281 34.882812 344.625 35.035156 344.417969 35.230469 C 343.640625 35.941406 342.898438 36.691406 342.199219 37.484375 C 341.941406 37.839844 341.738281 38.226562 341.589844 38.640625 C 341.535156 39.121094 341.621094 39.570312 341.851562 39.992188 C 342.082031 40.414062 342.414062 40.734375 342.84375 40.945312 C 343.234375 41.160156 343.652344 41.238281 344.097656 41.179688 C 344.539062 41.125 344.921875 40.941406 345.25 40.636719 C 346.066406 39.898438 346.855469 39.121094 347.597656 38.304688 C 347.804688 38.097656 347.960938 37.855469 348.070312 37.582031 C 348.175781 37.308594 348.222656 37.023438 348.214844 36.730469 C 348.203125 36.433594 348.136719 36.15625 348.011719 35.890625 C 347.886719 35.621094 347.714844 35.390625 347.496094 35.195312 Z M 353.144531 42.03125 C 353.058594 40.824219 352.675781 40.101562 351.796875 39.707031 C 351.386719 39.503906 350.953125 39.445312 350.5 39.527344 C 350.050781 39.605469 349.664062 39.8125 349.347656 40.144531 C 348.609375 40.828125 347.902344 41.550781 347.207031 42.273438 C 346.992188 42.480469 346.820312 42.71875 346.699219 42.992188 C 346.582031 43.265625 346.519531 43.554688 346.511719 43.851562 C 346.507812 44.152344 346.5625 44.4375 346.675781 44.714844 C 346.785156 44.992188 346.949219 45.238281 347.160156 45.449219 C 347.371094 45.660156 347.617188 45.820312 347.894531 45.933594 C 348.171875 46.042969 348.460938 46.097656 348.757812 46.09375 C 349.058594 46.09375 349.34375 46.03125 349.621094 45.914062 C 349.894531 45.792969 350.136719 45.628906 350.34375 45.414062 C 351.074219 44.753906 351.765625 44.054688 352.417969 43.320312 C 352.710938 42.917969 352.953125 42.488281 353.144531 42.027344 Z M 386.324219 10.15625 C 385.882812 9.515625 385.390625 8.917969 384.851562 8.355469 C 384.316406 7.777344 383.742188 7.246094 383.125 6.757812 C 382.320312 6.136719 381.457031 5.617188 380.527344 5.199219 C 378 4.015625 375.34375 3.386719 372.554688 3.304688 C 369.703125 3.378906 367.03125 4.097656 364.53125 5.464844 C 362.550781 6.640625 360.792969 8.089844 359.257812 9.808594 C 356.933594 12.144531 354.578125 14.449219 352.261719 16.789062 C 352.105469 16.933594 351.96875 17.09375 351.847656 17.269531 C 351.726562 17.445312 351.625 17.632812 351.546875 17.832031 C 351.46875 18.03125 351.410156 18.234375 351.378906 18.445312 C 351.34375 18.65625 351.335938 18.867188 351.347656 19.082031 C 351.363281 19.292969 351.402344 19.503906 351.460938 19.707031 C 351.523438 19.910156 351.605469 20.105469 351.707031 20.292969 C 351.8125 20.480469 351.9375 20.652344 352.078125 20.8125 C 352.222656 20.96875 352.378906 21.109375 352.554688 21.234375 C 352.824219 21.433594 353.121094 21.578125 353.441406 21.671875 C 353.765625 21.765625 354.09375 21.804688 354.429688 21.78125 C 354.761719 21.757812 355.082031 21.679688 355.390625 21.542969 C 355.695312 21.40625 355.972656 21.222656 356.210938 20.988281 C 357.292969 19.96875 362.761719 14.644531 364.332031 13.066406 C 372.574219 21.230469 378.605469 27.257812 380.058594 28.75 C 381.066406 29.785156 382 30.75 382 30.75 C 382.648438 31.433594 383.308594 32.132812 384 32.855469 C 384.46875 32.261719 384.992188 31.671875 385.496094 31.058594 C 386.007812 30.441406 386.484375 29.800781 386.921875 29.128906 C 388.4375 26.714844 389.328125 24.089844 389.589844 21.253906 C 389.78125 18.128906 389.136719 15.1875 387.660156 12.429688 C 387.265625 11.640625 386.820312 10.882812 386.324219 10.15625 Z M 364.328125 16.570312 C 362.050781 18.785156 358.519531 22.246094 357.636719 23.019531 C 357.382812 23.230469 357.113281 23.414062 356.824219 23.574219 C 356.539062 23.738281 356.238281 23.871094 355.925781 23.976562 C 355.613281 24.082031 355.292969 24.15625 354.96875 24.203125 C 354.640625 24.25 354.316406 24.269531 353.984375 24.253906 C 353.65625 24.242188 353.332031 24.199219 353.007812 24.125 C 352.6875 24.050781 352.375 23.949219 352.074219 23.820312 C 351.769531 23.6875 351.484375 23.53125 351.210938 23.347656 C 350.933594 23.164062 350.679688 22.957031 350.445312 22.726562 C 350.210938 22.496094 349.996094 22.246094 349.808594 21.976562 C 349.617188 21.707031 349.453125 21.421875 349.316406 21.121094 C 349.183594 20.820312 349.074219 20.511719 348.996094 20.191406 C 348.917969 19.871094 348.867188 19.546875 348.851562 19.21875 C 348.832031 18.886719 348.847656 18.558594 348.890625 18.234375 C 348.933594 17.90625 349.003906 17.585938 349.109375 17.273438 C 349.210938 16.960938 349.34375 16.660156 349.5 16.371094 C 349.660156 16.082031 349.84375 15.808594 350.054688 15.554688 C 350.75 14.730469 351.539062 13.980469 352.304688 13.214844 C 354.207031 11.304688 356.125 9.398438 358.082031 7.445312 C 357.011719 6.480469 355.832031 5.671875 354.546875 5.023438 C 353.261719 4.371094 351.914062 3.898438 350.5 3.605469 C 349.089844 3.3125 347.664062 3.210938 346.226562 3.296875 C 344.785156 3.382812 343.382812 3.652344 342.019531 4.113281 C 335.160156 6.441406 331.183594 11.339844 330.375 18.554688 C 330.234375 19.714844 330.226562 20.875 330.34375 22.039062 C 330.460938 23.203125 330.707031 24.335938 331.074219 25.445312 C 331.445312 26.554688 331.929688 27.609375 332.53125 28.613281 C 333.132812 29.613281 333.835938 30.539062 334.640625 31.382812 C 335.757812 30.367188 336.777344 29.40625 337.824219 28.480469 C 338.09375 28.222656 338.390625 28 338.714844 27.8125 C 339.039062 27.625 339.382812 27.480469 339.742188 27.375 C 340.101562 27.269531 340.46875 27.210938 340.839844 27.191406 C 341.214844 27.175781 341.585938 27.203125 341.953125 27.277344 C 342.320312 27.351562 342.671875 27.464844 343.011719 27.621094 C 343.351562 27.78125 343.667969 27.976562 343.960938 28.210938 C 344.25 28.441406 344.511719 28.707031 344.742188 29.003906 C 344.96875 29.300781 345.160156 29.617188 345.3125 29.960938 C 345.574219 30.644531 345.773438 31.34375 345.914062 32.0625 C 348.871094 32.324219 350.484375 33.980469 350.75 36.960938 C 353.78125 37.238281 355.417969 38.875 355.664062 41.851562 C 355.75 41.878906 355.835938 41.898438 355.925781 41.910156 C 356.289062 41.921875 356.644531 41.972656 356.992188 42.0625 C 357.34375 42.15625 357.675781 42.285156 357.996094 42.453125 C 358.316406 42.621094 358.613281 42.824219 358.886719 43.058594 C 359.164062 43.292969 359.40625 43.558594 359.621094 43.847656 C 359.832031 44.140625 360.011719 44.453125 360.152344 44.785156 C 360.296875 45.117188 360.398438 45.460938 360.464844 45.816406 C 360.527344 46.171875 360.550781 46.53125 360.53125 46.890625 C 360.515625 47.253906 360.453125 47.605469 360.355469 47.953125 C 360.308594 48.171875 360.351562 48.367188 360.488281 48.542969 C 361.363281 49.441406 362.234375 50.34375 363.175781 51.175781 C 363.363281 51.324219 363.574219 51.441406 363.804688 51.519531 C 364.03125 51.597656 364.269531 51.632812 364.511719 51.632812 C 364.753906 51.628906 364.988281 51.585938 365.214844 51.503906 C 365.441406 51.421875 365.648438 51.300781 365.835938 51.148438 C 365.96875 51.046875 366.089844 50.929688 366.195312 50.800781 C 366.300781 50.671875 366.394531 50.535156 366.46875 50.386719 C 366.542969 50.238281 366.601562 50.082031 366.640625 49.917969 C 366.679688 49.757812 366.703125 49.589844 366.707031 49.425781 C 366.707031 49.257812 366.691406 49.09375 366.660156 48.929688 C 366.625 48.765625 366.574219 48.605469 366.503906 48.457031 C 366.433594 48.304688 366.347656 48.160156 366.246094 48.027344 C 366.140625 47.898438 366.027344 47.777344 365.898438 47.671875 C 363.691406 45.460938 361.472656 43.265625 359.265625 41.054688 C 359.167969 40.953125 359.082031 40.847656 359.003906 40.730469 L 355.164062 36.894531 C 355.054688 36.78125 354.96875 36.648438 354.910156 36.503906 C 354.851562 36.355469 354.824219 36.203125 354.824219 36.046875 C 354.828125 35.886719 354.859375 35.734375 354.917969 35.589844 C 354.980469 35.445312 355.066406 35.316406 355.179688 35.203125 C 355.289062 35.089844 355.417969 35.003906 355.566406 34.945312 C 355.710938 34.882812 355.863281 34.851562 356.019531 34.851562 C 356.179688 34.847656 356.332031 34.878906 356.480469 34.9375 C 356.625 34.996094 356.753906 35.078125 356.871094 35.1875 L 360.726562 39.046875 C 360.832031 39.121094 360.929688 39.199219 361.023438 39.289062 C 361.71875 39.949219 362.417969 40.605469 363.097656 41.277344 C 364.691406 42.851562 366.257812 44.449219 367.867188 46.003906 C 368.082031 46.230469 368.335938 46.398438 368.628906 46.515625 C 368.917969 46.632812 369.21875 46.683594 369.53125 46.671875 C 369.84375 46.664062 370.140625 46.585938 370.421875 46.449219 C 370.699219 46.3125 370.941406 46.125 371.140625 45.886719 C 371.328125 45.660156 371.460938 45.40625 371.550781 45.128906 C 371.636719 44.847656 371.667969 44.5625 371.644531 44.269531 C 371.621094 43.980469 371.542969 43.703125 371.414062 43.441406 C 371.285156 43.179688 371.109375 42.953125 370.890625 42.757812 C 368.640625 40.492188 366.367188 38.238281 364.105469 35.980469 C 363.027344 34.902344 361.933594 33.839844 360.882812 32.734375 C 360.761719 32.625 360.671875 32.492188 360.605469 32.34375 C 360.539062 32.195312 360.503906 32.039062 360.503906 31.878906 C 360.503906 31.714844 360.535156 31.558594 360.597656 31.40625 C 360.660156 31.257812 360.753906 31.125 360.871094 31.015625 C 360.984375 30.898438 361.117188 30.8125 361.265625 30.746094 C 361.414062 30.683594 361.570312 30.652344 361.734375 30.648438 C 361.894531 30.644531 362.054688 30.675781 362.203125 30.730469 C 362.355469 30.789062 362.488281 30.875 362.609375 30.988281 C 362.757812 31.113281 362.902344 31.246094 363.035156 31.386719 C 366.242188 34.582031 369.441406 37.78125 372.664062 40.957031 C 373.015625 41.300781 373.429688 41.542969 373.90625 41.679688 C 374.378906 41.796875 374.835938 41.761719 375.28125 41.566406 C 375.730469 41.375 376.070312 41.066406 376.304688 40.636719 C 376.550781 40.207031 376.636719 39.742188 376.570312 39.25 C 376.503906 38.757812 376.292969 38.335938 375.941406 37.984375 C 373.484375 35.503906 371.007812 33.042969 368.535156 30.578125 C 367.652344 29.691406 366.746094 28.820312 365.875 27.917969 C 365.746094 27.808594 365.644531 27.679688 365.570312 27.527344 C 365.492188 27.375 365.449219 27.214844 365.441406 27.046875 C 365.429688 26.875 365.453125 26.710938 365.507812 26.550781 C 365.566406 26.394531 365.652344 26.25 365.765625 26.125 C 365.886719 26.003906 366.03125 25.90625 366.191406 25.839844 C 366.355469 25.773438 366.523438 25.742188 366.699219 25.746094 C 366.871094 25.746094 367.039062 25.78125 367.199219 25.851562 C 367.359375 25.917969 367.503906 26.015625 367.625 26.144531 C 367.734375 26.238281 367.832031 26.351562 367.933594 26.457031 C 371.121094 29.632812 374.308594 32.808594 377.5 35.984375 C 377.8125 36.347656 378.199219 36.59375 378.660156 36.730469 C 379.121094 36.863281 379.578125 36.863281 380.039062 36.722656 L 380.101562 36.703125 C 380.28125 36.628906 380.449219 36.535156 380.605469 36.417969 C 380.761719 36.300781 380.898438 36.167969 381.019531 36.015625 C 381.140625 35.863281 381.238281 35.695312 381.316406 35.519531 C 381.394531 35.339844 381.449219 35.15625 381.476562 34.964844 C 381.507812 34.769531 381.511719 34.578125 381.492188 34.386719 C 381.472656 34.191406 381.425781 34.003906 381.355469 33.824219 C 381.289062 33.640625 381.195312 33.472656 381.082031 33.3125 C 380.96875 33.15625 380.835938 33.015625 380.6875 32.890625 C 377.078125 29.28125 368.933594 21.148438 364.328125 16.570312 Z M 364.328125 16.570312 " fill-opacity="1" fill-rule="nonzero"/></g><g clip-path="url(#07e9e5e2d3)"><path fill="#1a2056" d="M 19.207031 9.601562 C 16.550781 6.941406 12.242188 6.941406 9.585938 9.601562 C 6.929688 12.257812 6.929688 16.566406 9.585938 19.222656 C 12.242188 21.878906 16.550781 21.878906 19.207031 19.222656 C 21.867188 16.566406 21.867188 12.257812 19.207031 9.601562 Z M 19.453125 20.457031 C 16.519531 22.917969 12.242188 22.90625 9.316406 20.441406 C 6.53125 21.734375 3.957031 26.425781 2.097656 30.285156 C 1.515625 31.488281 2.554688 32.734375 3.773438 32.363281 C 4.128906 32.253906 4.441406 32.015625 4.628906 31.667969 L 7.503906 26.277344 C 7.773438 25.714844 8.539062 25.933594 8.539062 26.488281 L 8.539062 47.882812 C 8.539062 50.449219 11.863281 51.785156 13.8125 49.929688 C 14.363281 49.402344 14.707031 48.679688 14.707031 47.882812 L 14.710938 47.882812 L 14.710938 37.671875 C 14.710938 36.960938 15.792969 36.960938 15.792969 37.671875 L 15.792969 48.0625 C 15.839844 48.785156 16.171875 49.441406 16.679688 49.929688 C 18.628906 51.78125 21.949219 50.449219 21.949219 47.882812 L 21.949219 25.09375 C 21.949219 24.960938 21.996094 24.832031 22.089844 24.730469 L 30.832031 15.046875 C 31.363281 14.457031 31.316406 13.539062 30.726562 13.011719 L 30.726562 13.007812 C 30.082031 12.480469 29.203125 12.496094 28.703125 13.097656 C 25.992188 16.378906 22.820312 19.449219 19.453125 20.457031 Z M 54.160156 20.4375 C 52.789062 21.597656 51.015625 22.292969 49.078125 22.292969 C 47.152344 22.292969 45.390625 21.605469 44.019531 20.457031 C 42.800781 20.089844 41.457031 19.417969 39.945312 18.261719 C 38.410156 17.097656 36.703125 15.433594 34.769531 13.09375 C 34.269531 12.496094 33.394531 12.480469 32.746094 13.007812 L 32.75 13.011719 C 32.160156 13.539062 32.113281 14.457031 32.644531 15.046875 L 41.386719 24.726562 C 41.476562 24.832031 41.523438 24.960938 41.523438 25.089844 L 41.523438 47.882812 C 41.523438 50.445312 44.84375 51.78125 46.792969 49.925781 C 47.304688 49.441406 47.636719 48.785156 47.683594 48.0625 L 47.683594 37.671875 C 47.683594 36.960938 48.761719 36.960938 48.761719 37.671875 L 48.761719 47.882812 L 48.769531 47.882812 C 48.769531 50.445312 52.085938 51.785156 54.039062 49.925781 C 54.589844 49.398438 54.933594 48.675781 54.933594 47.882812 L 54.933594 26.488281 C 54.933594 25.933594 55.699219 25.714844 55.972656 26.277344 L 58.847656 31.667969 C 59.433594 32.769531 61.105469 32.648438 61.476562 31.429688 C 61.585938 31.066406 61.558594 30.65625 61.378906 30.285156 C 59.519531 26.425781 56.949219 21.734375 54.160156 20.4375 Z M 49.078125 7.605469 C 45.320312 7.605469 42.273438 10.652344 42.273438 14.410156 C 42.273438 18.167969 45.320312 21.214844 49.078125 21.214844 C 52.839844 21.214844 55.882812 18.167969 55.882812 14.410156 C 55.882812 10.652344 52.839844 7.605469 49.078125 7.605469 Z M 28.277344 7.035156 C 28.671875 7.625 27.78125 8.222656 27.386719 7.632812 L 24.90625 3.941406 C 24.511719 3.355469 25.40625 2.753906 25.800781 3.34375 Z M 32.277344 7.269531 C 32.277344 7.980469 31.199219 7.980469 31.199219 7.269531 L 31.199219 2.878906 C 31.199219 2.167969 32.277344 2.167969 32.277344 2.878906 Z M 37.671875 3.34375 C 38.066406 2.753906 38.960938 3.355469 38.566406 3.941406 L 36.089844 7.632812 C 35.695312 8.222656 34.804688 7.621094 35.195312 7.035156 Z M 37.671875 3.34375 " fill-opacity="1" fill-rule="nonzero"/></g><g clip-path="url(#1e72f09b0e)"><path fill="#1a2056" d="M 702.296875 38.992188 C 703.003906 39.296875 703.460938 39.992188 703.460938 40.761719 L 703.460938 45.183594 C 703.460938 45.902344 702.984375 46.234375 702.335938 46.234375 C 700.914062 46.234375 699.328125 45.195312 698.875 43.53125 L 698.644531 42.691406 L 690.226562 39.324219 C 689.496094 39.03125 689.019531 38.324219 689.019531 37.535156 L 689.019531 30.828125 C 689.019531 30.296875 688.585938 29.863281 688.054688 29.863281 C 687.523438 29.863281 687.089844 30.296875 687.089844 30.828125 L 687.089844 37.542969 C 687.089844 39.117188 688.050781 40.53125 689.511719 41.117188 L 695.507812 43.515625 C 696.242188 43.808594 696.71875 44.515625 696.71875 45.304688 L 696.71875 50.277344 C 696.71875 50.8125 696.3125 51.046875 695.738281 51.046875 C 694.453125 51.046875 692.597656 49.960938 692.121094 48.058594 L 691.90625 47.199219 L 684.835938 44.265625 C 682.703125 43.382812 681.316406 41.304688 681.316406 38.996094 L 681.316406 17.351562 L 674.835938 4.390625 C 674.660156 4.046875 674.574219 3.679688 674.574219 3.316406 C 674.574219 1.929688 675.734375 0.984375 676.875 0.984375 C 677.703125 0.984375 678.496094 1.390625 678.933594 2.152344 L 682.882812 9.285156 C 684.007812 11.3125 686.128906 12.535156 688.054688 12.535156 C 690.074219 12.535156 692.144531 11.796875 693.496094 9.949219 L 698.746094 2.761719 C 699.15625 2.230469 699.8125 1.945312 700.398438 1.945312 C 701.457031 1.945312 702.496094 2.792969 702.496094 3.949219 C 702.496094 4.390625 702.394531 4.835938 702.128906 5.222656 L 693.832031 17.890625 L 693.832031 35.34375 L 702.292969 38.992188 Z M 702.296875 38.992188 " fill-opacity="1" fill-rule="nonzero"/></g><g clip-path="url(#392b8ae7cb)"><path fill="#1a2056" d="M 668.800781 25.050781 C 668.800781 25.050781 674.269531 16.660156 676.132812 13.886719 C 676.386719 13.511719 676.503906 13.082031 676.503906 12.660156 C 676.503906 11.550781 675.582031 10.609375 674.375 10.609375 C 673.820312 10.609375 673.152344 10.898438 672.753906 11.425781 C 671.871094 12.585938 670.019531 15.246094 668.570312 17.339844 C 667.230469 19.28125 664.949219 20.238281 663.023438 20.238281 C 660.917969 20.238281 658.8125 19.25 657.484375 17.292969 C 656.066406 15.203125 654.160156 12.574219 653.296875 11.421875 C 652.875 10.867188 652.191406 10.609375 651.570312 10.609375 C 650.617188 10.609375 649.546875 11.4375 649.546875 12.671875 C 649.546875 13.089844 649.664062 13.511719 649.914062 13.886719 C 651.761719 16.652344 657.246094 25.050781 657.246094 25.050781 L 657.246094 38.230469 L 648.785156 41.878906 C 648.078125 42.183594 647.621094 42.878906 647.621094 43.648438 L 647.621094 48.070312 C 647.621094 48.789062 648.09375 49.121094 648.742188 49.121094 C 650.167969 49.121094 651.753906 48.082031 652.207031 46.417969 L 652.433594 45.578125 L 660.851562 42.210938 C 661.582031 41.917969 662.0625 41.210938 662.0625 40.421875 L 662.0625 34.675781 C 662.0625 34.148438 662.496094 33.714844 663.027344 33.714844 C 663.554688 33.714844 663.988281 34.148438 663.988281 34.675781 L 663.988281 40.425781 C 663.988281 42.003906 663.03125 43.417969 661.566406 44.003906 L 655.570312 46.402344 C 654.839844 46.695312 654.359375 47.402344 654.359375 48.191406 L 654.359375 53.164062 C 654.359375 53.695312 654.769531 53.933594 655.34375 53.933594 C 656.628906 53.933594 658.484375 52.847656 658.960938 50.945312 L 659.175781 50.082031 L 666.246094 47.152344 C 667.792969 46.511719 668.804688 45 668.804688 43.324219 L 668.804688 25.050781 Z M 668.800781 25.050781 " fill-opacity="1" fill-rule="nonzero"/></g><path fill="#1a2056" d="M 650.988281 35.644531 C 650.191406 35.644531 649.542969 34.996094 649.542969 34.199219 L 649.542969 26.496094 C 649.542969 25.699219 650.191406 25.054688 650.988281 25.054688 C 651.785156 25.054688 652.433594 25.699219 652.433594 26.496094 L 652.433594 34.199219 C 652.433594 34.996094 651.785156 35.644531 650.988281 35.644531 Z M 650.988281 35.644531 " fill-opacity="1" fill-rule="nonzero"/><path fill="#1a2056" d="M 673.132812 49.121094 C 672.335938 49.121094 671.6875 48.476562 671.6875 47.679688 L 671.6875 38.050781 C 671.6875 37.253906 672.335938 36.605469 673.132812 36.605469 C 673.929688 36.605469 674.574219 37.253906 674.574219 38.050781 L 674.574219 47.679688 C 674.574219 48.476562 673.929688 49.121094 673.132812 49.121094 Z M 673.132812 49.121094 " fill-opacity="1" fill-rule="nonzero"/><path fill="#1a2056" d="M 677.945312 30.828125 C 677.148438 30.828125 676.503906 30.179688 676.503906 29.382812 L 676.503906 21.683594 C 676.503906 20.886719 677.148438 20.238281 677.945312 20.238281 C 678.742188 20.238281 679.390625 20.886719 679.390625 21.683594 L 679.390625 29.382812 C 679.390625 30.179688 678.742188 30.828125 677.945312 30.828125 Z M 677.945312 30.828125 " fill-opacity="1" fill-rule="nonzero"/><path fill="#1a2056" d="M 698.164062 29.867188 C 697.367188 29.867188 696.722656 29.21875 696.722656 28.421875 L 696.722656 20.71875 C 696.722656 19.921875 697.367188 19.277344 698.164062 19.277344 C 698.960938 19.277344 699.609375 19.921875 699.609375 20.71875 L 699.609375 28.421875 C 699.609375 29.21875 698.960938 29.867188 698.164062 29.867188 Z M 698.164062 29.867188 " fill-opacity="1" fill-rule="nonzero"/><path fill="#1a2056" d="M 688.539062 10.609375 C 686.144531 10.609375 684.203125 8.671875 684.203125 6.277344 L 684.203125 4.351562 C 684.203125 1.957031 686.144531 0.0195312 688.539062 0.0195312 C 690.929688 0.0195312 692.871094 1.957031 692.871094 4.351562 L 692.871094 6.277344 C 692.871094 8.671875 690.929688 10.609375 688.539062 10.609375 Z M 688.539062 10.609375 " fill-opacity="1" fill-rule="nonzero"/><path fill="#1a2056" d="M 662.542969 18.3125 C 660.148438 18.3125 658.207031 16.371094 658.207031 13.980469 L 658.207031 12.054688 C 658.207031 9.660156 660.148438 7.722656 662.542969 7.722656 C 664.933594 7.722656 666.875 9.660156 666.875 12.054688 L 666.875 13.980469 C 666.875 16.371094 664.933594 18.3125 662.542969 18.3125 Z M 662.542969 18.3125 " fill-opacity="1" fill-rule="nonzero"/></svg>