<svg xmlns="http://www.w3.org/2000/svg" xmlns:xlink="http://www.w3.org/1999/xlink" width="484" zoomAndPan="magnify" viewBox="0 0 363 266.250005" height="355" preserveAspectRatio="xMidYMid meet" version="1.0"><defs><g/><clipPath id="5b6713b2d4"><path d="M 20.65625 33.78125 L 230.863281 33.78125 L 230.863281 116.523438 L 20.65625 116.523438 Z M 20.65625 33.78125 " clip-rule="nonzero"/></clipPath><clipPath id="dfd493494a"><path d="M 62.210938 33.78125 L 189.320312 33.78125 C 212.273438 33.78125 230.875 52.382812 230.875 75.335938 C 230.875 98.285156 212.273438 116.890625 189.320312 116.890625 L 62.210938 116.890625 C 39.261719 116.890625 20.65625 98.285156 20.65625 75.335938 C 20.65625 52.382812 39.261719 33.78125 62.210938 33.78125 Z M 62.210938 33.78125 " clip-rule="nonzero"/></clipPath><clipPath id="5aac29b680"><path d="M 99.917969 142.808594 L 362 142.808594 L 362 238.007812 L 99.917969 238.007812 Z M 99.917969 142.808594 " clip-rule="nonzero"/></clipPath><clipPath id="af3e1484d4"><path d="M 147.515625 142.808594 L 314.25 142.808594 C 326.875 142.808594 338.980469 147.824219 347.910156 156.75 C 356.835938 165.675781 361.851562 177.78125 361.851562 190.40625 C 361.851562 203.03125 356.835938 215.136719 347.910156 224.066406 C 338.980469 232.992188 326.875 238.007812 314.25 238.007812 L 147.515625 238.007812 C 134.890625 238.007812 122.785156 232.992188 113.859375 224.066406 C 104.933594 215.136719 99.917969 203.03125 99.917969 190.40625 C 99.917969 177.78125 104.933594 165.675781 113.859375 156.75 C 122.785156 147.824219 134.890625 142.808594 147.515625 142.808594 Z M 147.515625 142.808594 " clip-rule="nonzero"/></clipPath><clipPath id="467711eccd"><path d="M 99.921875 142.808594 L 361.679688 142.808594 L 361.679688 237.789062 L 99.921875 237.789062 Z M 99.921875 142.808594 " clip-rule="nonzero"/></clipPath><clipPath id="c4a876d5b7"><path d="M 147.519531 142.808594 L 314.242188 142.808594 C 326.867188 142.808594 338.972656 147.824219 347.898438 156.75 C 356.824219 165.675781 361.839844 177.78125 361.839844 190.40625 C 361.839844 203.027344 356.824219 215.132812 347.898438 224.058594 C 338.972656 232.984375 326.867188 238 314.242188 238 L 147.519531 238 C 134.894531 238 122.789062 232.984375 113.863281 224.058594 C 104.9375 215.132812 99.921875 203.027344 99.921875 190.40625 C 99.921875 177.78125 104.9375 165.675781 113.863281 156.75 C 122.789062 147.824219 134.894531 142.808594 147.519531 142.808594 Z M 147.519531 142.808594 " clip-rule="nonzero"/></clipPath></defs><g clip-path="url(#5b6713b2d4)"><g clip-path="url(#dfd493494a)"><path stroke-linecap="butt" transform="matrix(1.118137, 0, 0, 1.118137, 20.655419, 33.77989)" fill="none" stroke-linejoin="miter" d="M 37.164945 0.00121623 L 150.844503 0.00121623 C 171.372501 0.00121623 188.008704 16.637419 188.008704 37.165418 C 188.008704 57.689923 171.372501 74.32962 150.844503 74.32962 L 37.164945 74.32962 C 16.64044 74.32962 0.000743526 57.689923 0.000743526 37.165418 C 0.000743526 16.637419 16.64044 0.00121623 37.164945 0.00121623 Z M 37.164945 0.00121623 " stroke="#2f3288" stroke-width="2.675497" stroke-opacity="1" stroke-miterlimit="4"/></g></g><g fill="#1a2056" fill-opacity="1"><g transform="translate(64.46437, 98.257494)"><g><path d="M 35.09375 -46.546875 L 35.09375 -40.328125 L 22.703125 -40.328125 L 22.703125 0 L 15.078125 0 L 15.078125 -40.328125 L 2.609375 -40.328125 L 2.609375 -46.546875 Z M 35.09375 -46.546875 "/></g></g></g><g fill="#1a2056" fill-opacity="1"><g transform="translate(102.242412, 98.257494)"><g><path d="M 24.109375 -37.515625 C 26.921875 -37.515625 29.429688 -36.910156 31.640625 -35.703125 C 33.859375 -34.492188 35.601562 -32.707031 36.875 -30.34375 C 38.144531 -27.976562 38.78125 -25.117188 38.78125 -21.765625 L 38.78125 0 L 31.21875 0 L 31.21875 -20.625 C 31.21875 -23.9375 30.390625 -26.472656 28.734375 -28.234375 C 27.085938 -29.992188 24.832031 -30.875 21.96875 -30.875 C 19.113281 -30.875 16.847656 -29.992188 15.171875 -28.234375 C 13.492188 -26.472656 12.65625 -23.9375 12.65625 -20.625 L 12.65625 0 L 5.03125 0 L 5.03125 -49.5625 L 12.65625 -49.5625 L 12.65625 -32.625 C 13.957031 -34.1875 15.597656 -35.390625 17.578125 -36.234375 C 19.566406 -37.085938 21.742188 -37.515625 24.109375 -37.515625 Z M 24.109375 -37.515625 "/></g></g></g><g fill="#1a2056" fill-opacity="1"><g transform="translate(145.713955, 98.257494)"><g><path d="M 38.84375 -19.359375 C 38.84375 -17.972656 38.753906 -16.722656 38.578125 -15.609375 L 10.375 -15.609375 C 10.601562 -12.660156 11.695312 -10.289062 13.65625 -8.5 C 15.625 -6.71875 18.039062 -5.828125 20.90625 -5.828125 C 25.007812 -5.828125 27.910156 -7.546875 29.609375 -10.984375 L 37.84375 -10.984375 C 36.726562 -7.585938 34.707031 -4.804688 31.78125 -2.640625 C 28.851562 -0.472656 25.226562 0.609375 20.90625 0.609375 C 17.375 0.609375 14.210938 -0.179688 11.421875 -1.765625 C 8.628906 -3.359375 6.441406 -5.59375 4.859375 -8.46875 C 3.273438 -11.351562 2.484375 -14.691406 2.484375 -18.484375 C 2.484375 -22.285156 3.25 -25.625 4.78125 -28.5 C 6.320312 -31.382812 8.488281 -33.609375 11.28125 -35.171875 C 14.070312 -36.734375 17.28125 -37.515625 20.90625 -37.515625 C 24.382812 -37.515625 27.484375 -36.753906 30.203125 -35.234375 C 32.929688 -33.710938 35.050781 -31.578125 36.5625 -28.828125 C 38.082031 -26.085938 38.84375 -22.929688 38.84375 -19.359375 Z M 30.875 -21.765625 C 30.832031 -24.578125 29.828125 -26.832031 27.859375 -28.53125 C 25.898438 -30.226562 23.46875 -31.078125 20.5625 -31.078125 C 17.925781 -31.078125 15.671875 -30.238281 13.796875 -28.5625 C 11.921875 -26.894531 10.804688 -24.628906 10.453125 -21.765625 Z M 30.875 -21.765625 "/></g></g></g><g clip-path="url(#5aac29b680)"><g clip-path="url(#af3e1484d4)"><path fill="#1a2056" d="M 99.917969 142.808594 L 361.710938 142.808594 L 361.710938 238.007812 L 99.917969 238.007812 Z M 99.917969 142.808594 " fill-opacity="1" fill-rule="nonzero"/></g></g><g clip-path="url(#467711eccd)"><g clip-path="url(#c4a876d5b7)"><path stroke-linecap="butt" transform="matrix(0.747893, 0, 0, 0.747893, 99.921624, 142.808135)" fill="none" stroke-linejoin="miter" d="M 63.64265 0.00061306 L 286.565718 0.00061306 C 303.446469 0.00061306 319.632561 6.706951 331.567127 18.641517 C 343.501693 30.576083 350.208031 46.762175 350.208031 63.642927 C 350.208031 80.518455 343.501693 96.704547 331.567127 108.639113 C 319.632561 120.573679 303.446469 127.280017 286.565718 127.280017 L 63.64265 127.280017 C 46.761898 127.280017 30.575806 120.573679 18.64124 108.639113 C 6.706674 96.704547 0.000336063 80.518455 0.000336063 63.642927 C 0.000336063 46.762175 6.706674 30.576083 18.64124 18.641517 C 30.575806 6.706951 46.761898 0.00061306 63.64265 0.00061306 Z M 63.64265 0.00061306 " stroke="#2f3288" stroke-width="4" stroke-opacity="1" stroke-miterlimit="4"/></g></g><g fill="#ffffff" fill-opacity="1"><g transform="translate(143.396423, 213.094652)"><g><path d="M 12.53125 -6.09375 L 28.109375 -6.09375 L 28.109375 0 L 4.96875 0 L 4.96875 -46.078125 L 12.53125 -46.078125 Z M 12.53125 -6.09375 "/></g></g></g><g fill="#ffffff" fill-opacity="1"><g transform="translate(172.832942, 213.094652)"><g><path d="M 20.8125 0.59375 C 17.363281 0.59375 14.25 -0.1875 11.46875 -1.75 C 8.6875 -3.320312 6.5 -5.53125 4.90625 -8.375 C 3.3125 -11.226562 2.515625 -14.535156 2.515625 -18.296875 C 2.515625 -22.003906 3.332031 -25.296875 4.96875 -28.171875 C 6.601562 -31.046875 8.832031 -33.253906 11.65625 -34.796875 C 14.488281 -36.347656 17.65625 -37.125 21.15625 -37.125 C 24.644531 -37.125 27.800781 -36.347656 30.625 -34.796875 C 33.457031 -33.253906 35.691406 -31.046875 37.328125 -28.171875 C 38.960938 -25.296875 39.78125 -22.003906 39.78125 -18.296875 C 39.78125 -14.585938 38.9375 -11.296875 37.25 -8.421875 C 35.570312 -5.546875 33.285156 -3.320312 30.390625 -1.75 C 27.492188 -0.1875 24.300781 0.59375 20.8125 0.59375 Z M 20.8125 -5.96875 C 22.757812 -5.96875 24.582031 -6.429688 26.28125 -7.359375 C 27.988281 -8.285156 29.367188 -9.675781 30.421875 -11.53125 C 31.484375 -13.382812 32.015625 -15.640625 32.015625 -18.296875 C 32.015625 -20.953125 31.503906 -23.195312 30.484375 -25.03125 C 29.472656 -26.863281 28.128906 -28.242188 26.453125 -29.171875 C 24.773438 -30.097656 22.960938 -30.5625 21.015625 -30.5625 C 19.066406 -30.5625 17.265625 -30.097656 15.609375 -29.171875 C 13.953125 -28.242188 12.632812 -26.863281 11.65625 -25.03125 C 10.6875 -23.195312 10.203125 -20.953125 10.203125 -18.296875 C 10.203125 -14.359375 11.207031 -11.316406 13.21875 -9.171875 C 15.238281 -7.035156 17.769531 -5.96875 20.8125 -5.96875 Z M 20.8125 -5.96875 "/></g></g></g><g fill="#ffffff" fill-opacity="1"><g transform="translate(215.131363, 213.094652)"><g><path d="M 19.6875 -37.125 C 22.519531 -37.125 25.03125 -36.5625 27.21875 -35.4375 C 29.40625 -34.3125 31.117188 -32.90625 32.359375 -31.21875 L 32.359375 -36.53125 L 39.984375 -36.53125 L 39.984375 0.59375 C 39.984375 3.957031 39.273438 6.953125 37.859375 9.578125 C 36.441406 12.210938 34.394531 14.28125 31.71875 15.78125 C 29.050781 17.28125 25.859375 18.03125 22.140625 18.03125 C 17.191406 18.03125 13.082031 16.867188 9.8125 14.546875 C 6.539062 12.234375 4.6875 9.085938 4.25 5.109375 L 11.734375 5.109375 C 12.304688 7.003906 13.53125 8.535156 15.40625 9.703125 C 17.289062 10.878906 19.535156 11.46875 22.140625 11.46875 C 25.191406 11.46875 27.65625 10.539062 29.53125 8.6875 C 31.414062 6.832031 32.359375 4.132812 32.359375 0.59375 L 32.359375 -5.5 C 31.078125 -3.78125 29.335938 -2.332031 27.140625 -1.15625 C 24.953125 0.0078125 22.46875 0.59375 19.6875 0.59375 C 16.507812 0.59375 13.601562 -0.210938 10.96875 -1.828125 C 8.34375 -3.441406 6.265625 -5.691406 4.734375 -8.578125 C 3.210938 -11.472656 2.453125 -14.757812 2.453125 -18.4375 C 2.453125 -22.101562 3.210938 -25.347656 4.734375 -28.171875 C 6.265625 -31.003906 8.34375 -33.203125 10.96875 -34.765625 C 13.601562 -36.335938 16.507812 -37.125 19.6875 -37.125 Z M 32.359375 -18.296875 C 32.359375 -20.816406 31.835938 -23.003906 30.796875 -24.859375 C 29.753906 -26.710938 28.394531 -28.125 26.71875 -29.09375 C 25.039062 -30.070312 23.226562 -30.5625 21.28125 -30.5625 C 19.332031 -30.5625 17.519531 -30.085938 15.84375 -29.140625 C 14.164062 -28.191406 12.804688 -26.796875 11.765625 -24.953125 C 10.722656 -23.117188 10.203125 -20.945312 10.203125 -18.4375 C 10.203125 -15.914062 10.722656 -13.703125 11.765625 -11.796875 C 12.804688 -9.898438 14.175781 -8.453125 15.875 -7.453125 C 17.582031 -6.460938 19.382812 -5.96875 21.28125 -5.96875 C 23.226562 -5.96875 25.039062 -6.453125 26.71875 -7.421875 C 28.394531 -8.398438 29.753906 -9.828125 30.796875 -11.703125 C 31.835938 -13.578125 32.359375 -15.773438 32.359375 -18.296875 Z M 32.359375 -18.296875 "/></g></g></g><g fill="#ffffff" fill-opacity="1"><g transform="translate(260.08173, 213.094652)"><g><path d="M 20.8125 0.59375 C 17.363281 0.59375 14.25 -0.1875 11.46875 -1.75 C 8.6875 -3.320312 6.5 -5.53125 4.90625 -8.375 C 3.3125 -11.226562 2.515625 -14.535156 2.515625 -18.296875 C 2.515625 -22.003906 3.332031 -25.296875 4.96875 -28.171875 C 6.601562 -31.046875 8.832031 -33.253906 11.65625 -34.796875 C 14.488281 -36.347656 17.65625 -37.125 21.15625 -37.125 C 24.644531 -37.125 27.800781 -36.347656 30.625 -34.796875 C 33.457031 -33.253906 35.691406 -31.046875 37.328125 -28.171875 C 38.960938 -25.296875 39.78125 -22.003906 39.78125 -18.296875 C 39.78125 -14.585938 38.9375 -11.296875 37.25 -8.421875 C 35.570312 -5.546875 33.285156 -3.320312 30.390625 -1.75 C 27.492188 -0.1875 24.300781 0.59375 20.8125 0.59375 Z M 20.8125 -5.96875 C 22.757812 -5.96875 24.582031 -6.429688 26.28125 -7.359375 C 27.988281 -8.285156 29.367188 -9.675781 30.421875 -11.53125 C 31.484375 -13.382812 32.015625 -15.640625 32.015625 -18.296875 C 32.015625 -20.953125 31.503906 -23.195312 30.484375 -25.03125 C 29.472656 -26.863281 28.128906 -28.242188 26.453125 -29.171875 C 24.773438 -30.097656 22.960938 -30.5625 21.015625 -30.5625 C 19.066406 -30.5625 17.265625 -30.097656 15.609375 -29.171875 C 13.953125 -28.242188 12.632812 -26.863281 11.65625 -25.03125 C 10.6875 -23.195312 10.203125 -20.953125 10.203125 -18.296875 C 10.203125 -14.359375 11.207031 -11.316406 13.21875 -9.171875 C 15.238281 -7.035156 17.769531 -5.96875 20.8125 -5.96875 Z M 20.8125 -5.96875 "/></g></g></g><g fill="#ffffff" fill-opacity="1"><g transform="translate(302.380151, 213.094652)"><g><path d="M 8.015625 0.46875 C 6.648438 0.46875 5.503906 0.00390625 4.578125 -0.921875 C 3.648438 -1.859375 3.1875 -3.007812 3.1875 -4.375 C 3.1875 -5.75 3.648438 -6.898438 4.578125 -7.828125 C 5.503906 -8.753906 6.648438 -9.21875 8.015625 -9.21875 C 9.347656 -9.21875 10.476562 -8.753906 11.40625 -7.828125 C 12.332031 -6.898438 12.796875 -5.75 12.796875 -4.375 C 12.796875 -3.007812 12.332031 -1.859375 11.40625 -0.921875 C 10.476562 0.00390625 9.347656 0.46875 8.015625 0.46875 Z M 8.015625 0.46875 "/></g></g></g></svg>