<svg xmlns="http://www.w3.org/2000/svg" xmlns:xlink="http://www.w3.org/1999/xlink" width="683" zoomAndPan="magnify" viewBox="0 0 512.25 152.249993" height="203" preserveAspectRatio="xMidYMid meet" version="1.0"><defs><g/></defs><path stroke-linecap="butt" transform="matrix(0.563196, 0, 0, 0.563196, 184.2256, 39.884643)" fill="none" stroke-linejoin="miter" d="M 80.880823 69.632829 L 80.880823 63.709601 C 80.880823 48.21488 76.753983 40.342674 68.881777 33.13631 C 62.708858 27.469709 53.29689 24.223725 45.043211 24.223725 C 23.757044 24.223725 9.053011 40.217828 9.053011 62.135159 L 9.053011 72.462662 C 9.053011 84.586552 11.757998 92.583604 18.464979 99.956428 C 24.762744 106.788254 34.341173 111.28963 45.799221 111.28963 C 60.884726 111.28963 72.502299 103.292579 79.465906 88.082228 L 77.003675 86.917003 C 69.672466 101.877662 59.719501 108.584643 46.180693 108.584643 C 36.130626 108.584643 29.805117 103.798897 26.843503 96.335907 C 24.637898 90.794151 24.388207 83.677954 24.388207 74.134205 L 24.388207 69.632829 Z M 65.670472 66.920906 L 24.388207 66.920906 L 24.388207 56.843095 C 24.388207 44.469513 26.468967 38.171748 30.464025 33.635693 C 34.181648 29.390944 38.967394 26.928712 45.043211 26.928712 C 51.597603 26.928712 57.014513 29.890326 60.378408 34.551227 C 64.380401 39.968137 65.670472 45.759584 65.670472 57.883475 Z M 182.643825 28.093937 L 182.643825 25.38895 L 161.107966 25.38895 L 161.107966 28.093937 L 169.861027 28.093937 L 140.480705 89.372299 L 112.862093 28.093937 L 121.490309 28.093937 L 121.490309 25.38895 L 87.324241 25.38895 L 87.324241 28.093937 L 95.827611 28.093937 L 133.489354 110.915094 L 173.356703 28.093937 Z M 259.63192 69.632829 L 259.63192 63.709601 C 259.63192 48.21488 255.505081 40.342674 247.632874 33.13631 C 241.459955 27.469709 232.047987 24.223725 223.794309 24.223725 C 202.508141 24.223725 187.804108 40.217828 187.804108 62.135159 L 187.804108 72.462662 C 187.804108 84.586552 190.509095 92.583604 197.216076 99.956428 C 203.513841 106.788254 213.09227 111.28963 224.550318 111.28963 C 239.635823 111.28963 251.253396 103.292579 258.217004 88.082228 L 255.754772 86.917003 C 248.423563 101.877662 238.470598 108.584643 224.93179 108.584643 C 214.881723 108.584643 208.556214 103.798897 205.5946 96.335907 C 203.388996 90.794151 203.139304 83.677954 203.139304 74.134205 L 203.139304 69.632829 Z M 244.421569 66.920906 L 203.139304 66.920906 L 203.139304 56.843095 C 203.139304 44.469513 205.220064 38.171748 209.215122 33.635693 C 212.932745 29.390944 217.718491 26.928712 223.794309 26.928712 C 230.3487 26.928712 235.758675 29.890326 239.129505 34.551227 C 243.131498 39.968137 244.421569 45.759584 244.421569 57.883475 Z M 362.684993 109.99956 L 362.684993 107.294572 L 354.029034 107.294572 L 354.029034 63.300385 C 354.029034 57.00262 353.023334 50.801957 351.192266 46.141056 C 345.900201 33.13631 332.77061 24.223725 318.066577 24.223725 C 303.362545 24.223725 290.198274 33.13631 284.90621 46.141056 C 283.116757 50.801957 282.076377 57.00262 282.076377 63.300385 L 282.076377 107.294572 L 273.163791 107.294572 L 273.163791 109.99956 L 306.067532 109.99956 L 306.067532 107.294572 L 297.411573 107.294572 L 297.411573 53.257253 C 297.411573 36.722152 306.067532 26.928712 318.066577 26.928712 C 330.065623 26.928712 338.693838 36.722152 338.693838 53.257253 L 338.693838 107.294572 L 330.065623 107.294572 L 330.065623 109.99956 Z M 414.925924 99.165739 C 414.516708 103.674051 411.555093 106.503884 407.684881 106.503884 C 404.216949 106.503884 400.471582 104.083267 400.471582 97.875669 L 400.471582 28.093937 L 415.050769 28.093937 L 415.050769 25.38895 L 400.471582 25.38895 L 400.471582 -8.652273 L 385.101707 -8.652273 L 385.101707 25.38895 L 376.2238 25.38895 L 376.2238 28.093937 L 385.101707 28.093937 L 385.101707 88.838237 C 385.101707 94.379993 385.642704 99.040894 387.307312 102.508826 C 390.268926 108.584643 395.56099 111.28963 403.682887 111.28963 C 411.804785 111.28963 417.34654 105.997566 417.755756 99.165739 Z M 478.895401 44.094976 L 478.895401 23.467715 L 476.183478 23.467715 L 476.183478 33.386002 C 473.069275 27.594555 467.021201 24.223725 459.024149 24.223725 C 445.610188 24.223725 434.526676 35.466761 434.526676 49.380105 C 434.526676 80.459713 479.65141 69.126511 479.65141 91.293533 C 479.65141 101.086974 471.023195 108.584643 459.148995 108.584643 C 445.859879 108.584643 435.532377 98.916048 434.526676 85.377241 L 431.814753 85.377241 L 431.814753 111.28963 L 434.526676 111.28963 L 434.526676 97.091916 C 439.402589 106.129347 448.44002 111.28963 459.024149 111.28963 C 474.893407 111.28963 487.398771 99.165739 487.398771 84.08717 C 487.398771 52.466564 443.279737 64.46561 443.279737 42.298587 C 443.279737 33.767474 450.236409 27.060493 459.530467 27.060493 C 469.067281 27.060493 475.524571 33.510847 476.308323 44.094976 Z M 520.919803 102.252199 C 520.919803 97.216762 516.917809 93.249447 511.882372 93.249447 C 506.874678 93.249447 502.872684 97.216762 502.872684 102.252199 C 502.872684 107.294572 506.874678 111.28963 511.882372 111.28963 C 516.917809 111.28963 520.919803 107.294572 520.919803 102.252199 Z M 520.919803 102.252199 " stroke="#2f3288" stroke-width="2.41845" stroke-opacity="1" stroke-miterlimit="4"/><g fill="#1a2056" fill-opacity="1"><g transform="translate(184.2344, 101.836186)"><g><path d="M 45.546875 -22.734375 L 45.546875 -26.078125 C 45.546875 -34.796875 43.21875 -39.21875 38.796875 -43.296875 C 35.296875 -46.484375 30 -48.3125 25.359375 -48.3125 C 13.359375 -48.3125 5.078125 -39.296875 5.078125 -26.953125 L 5.078125 -21.140625 C 5.078125 -14.3125 6.609375 -9.8125 10.390625 -5.671875 C 13.953125 -1.8125 19.328125 0.71875 25.78125 0.71875 C 34.28125 0.71875 40.828125 -3.78125 44.75 -12.34375 L 43.359375 -13 C 39.21875 -4.578125 33.625 -0.796875 26 -0.796875 C 20.34375 -0.796875 16.78125 -3.484375 15.109375 -7.703125 C 13.875 -10.828125 13.734375 -14.8125 13.734375 -20.1875 L 13.734375 -22.734375 Z M 36.96875 -24.265625 L 13.734375 -24.265625 L 13.734375 -29.921875 C 13.734375 -36.90625 14.890625 -40.453125 17.140625 -43 C 19.25 -45.40625 21.9375 -46.78125 25.359375 -46.78125 C 29.0625 -46.78125 32.109375 -45.109375 34 -42.5 C 36.25 -39.4375 36.96875 -36.171875 36.96875 -29.34375 Z M 36.96875 -24.265625 "/></g></g></g><g fill="#1a2056" fill-opacity="1"><g transform="translate(233.408051, 101.836186)"><g><path d="M 53.6875 -46.125 L 53.6875 -47.65625 L 41.546875 -47.65625 L 41.546875 -46.125 L 46.484375 -46.125 L 29.921875 -11.625 L 14.390625 -46.125 L 19.25 -46.125 L 19.25 -47.65625 L 0 -47.65625 L 0 -46.125 L 4.796875 -46.125 L 26 0.515625 L 48.453125 -46.125 Z M 53.6875 -46.125 "/></g></g></g><g fill="#1a2056" fill-opacity="1"><g transform="translate(284.90601, 101.836186)"><g><path d="M 45.546875 -22.734375 L 45.546875 -26.078125 C 45.546875 -34.796875 43.21875 -39.21875 38.796875 -43.296875 C 35.296875 -46.484375 30 -48.3125 25.359375 -48.3125 C 13.359375 -48.3125 5.078125 -39.296875 5.078125 -26.953125 L 5.078125 -21.140625 C 5.078125 -14.3125 6.609375 -9.8125 10.390625 -5.671875 C 13.953125 -1.8125 19.328125 0.71875 25.78125 0.71875 C 34.28125 0.71875 40.828125 -3.78125 44.75 -12.34375 L 43.359375 -13 C 39.21875 -4.578125 33.625 -0.796875 26 -0.796875 C 20.34375 -0.796875 16.78125 -3.484375 15.109375 -7.703125 C 13.875 -10.828125 13.734375 -14.8125 13.734375 -20.1875 L 13.734375 -22.734375 Z M 36.96875 -24.265625 L 13.734375 -24.265625 L 13.734375 -29.921875 C 13.734375 -36.90625 14.890625 -40.453125 17.140625 -43 C 19.25 -45.40625 21.9375 -46.78125 25.359375 -46.78125 C 29.0625 -46.78125 32.109375 -45.109375 34 -42.5 C 36.25 -39.4375 36.96875 -36.171875 36.96875 -29.34375 Z M 36.96875 -24.265625 "/></g></g></g><g fill="#1a2056" fill-opacity="1"><g transform="translate(334.07966, 101.836186)"><g><path d="M 54.40625 0 L 54.40625 -1.53125 L 49.546875 -1.53125 L 49.546875 -26.296875 C 49.546875 -29.859375 48.953125 -33.34375 47.9375 -35.953125 C 44.96875 -43.296875 37.5625 -48.3125 29.28125 -48.3125 C 21 -48.3125 13.578125 -43.296875 10.609375 -35.953125 C 9.59375 -33.34375 9 -29.859375 9 -26.296875 L 9 -1.53125 L 4 -1.53125 L 4 0 L 22.515625 0 L 22.515625 -1.53125 L 17.65625 -1.53125 L 17.65625 -31.96875 C 17.65625 -41.265625 22.515625 -46.78125 29.28125 -46.78125 C 36.03125 -46.78125 40.890625 -41.265625 40.890625 -31.96875 L 40.890625 -1.53125 L 36.03125 -1.53125 L 36.03125 0 Z M 54.40625 0 "/></g></g></g><g fill="#1a2056" fill-opacity="1"><g transform="translate(392.47792, 101.836186)"><g><path d="M 25.421875 -6.109375 C 25.203125 -3.5625 23.53125 -1.96875 21.359375 -1.96875 C 19.390625 -1.96875 17.28125 -3.34375 17.28125 -6.828125 L 17.28125 -46.125 L 25.5 -46.125 L 25.5 -47.65625 L 17.28125 -47.65625 L 17.28125 -66.828125 L 8.640625 -66.828125 L 8.640625 -47.65625 L 3.625 -47.65625 L 3.625 -46.125 L 8.640625 -46.125 L 8.640625 -11.90625 C 8.640625 -8.796875 8.9375 -6.171875 9.875 -4.21875 C 11.546875 -0.796875 14.53125 0.71875 19.109375 0.71875 C 23.6875 0.71875 26.796875 -2.25 27.015625 -6.109375 Z M 25.421875 -6.109375 "/></g></g></g><g fill="#1a2056" fill-opacity="1"><g transform="translate(421.677049, 101.836186)"><g><path d="M 32.25 -37.125 L 32.25 -48.734375 L 30.734375 -48.734375 L 30.734375 -43.15625 C 28.984375 -46.421875 25.5625 -48.3125 21.0625 -48.3125 C 13.515625 -48.3125 7.265625 -41.984375 7.265625 -34.140625 C 7.265625 -16.640625 32.6875 -23.03125 32.6875 -10.53125 C 32.6875 -5.015625 27.828125 -0.796875 21.140625 -0.796875 C 13.65625 -0.796875 7.84375 -6.25 7.265625 -13.875 L 5.734375 -13.875 L 5.734375 0.71875 L 7.265625 0.71875 L 7.265625 -7.265625 C 10.03125 -2.171875 15.109375 0.71875 21.0625 0.71875 C 30 0.71875 37.046875 -6.109375 37.046875 -14.59375 C 37.046875 -32.390625 12.203125 -25.640625 12.203125 -38.140625 C 12.203125 -42.9375 16.125 -46.703125 21.359375 -46.703125 C 26.734375 -46.703125 30.359375 -43.078125 30.796875 -37.125 Z M 32.25 -37.125 "/></g></g></g><g fill="#1a2056" fill-opacity="1"><g transform="translate(462.352463, 101.836186)"><g><path d="M 15.25 -4.359375 C 15.25 -7.1875 13 -9.4375 10.171875 -9.4375 C 7.34375 -9.4375 5.078125 -7.1875 5.078125 -4.359375 C 5.078125 -1.53125 7.34375 0.71875 10.171875 0.71875 C 13 0.71875 15.25 -1.53125 15.25 -4.359375 Z M 15.25 -4.359375 "/></g></g></g><g fill="#1a2056" fill-opacity="1"><g transform="translate(36.631502, 98.682091)"><g><path d="M 23.21875 0.46875 C 19.226562 0.46875 15.71875 -0.359375 12.6875 -2.015625 C 9.65625 -3.679688 7.304688 -6.015625 5.640625 -9.015625 C 3.984375 -12.023438 3.15625 -15.484375 3.15625 -19.390625 C 3.15625 -24.910156 4.34375 -29.832031 6.71875 -34.15625 C 9.101562 -38.488281 12.414062 -41.863281 16.65625 -44.28125 C 20.894531 -46.707031 25.707031 -47.921875 31.09375 -47.921875 C 35.132812 -47.921875 38.679688 -47.101562 41.734375 -45.46875 C 44.785156 -43.832031 47.140625 -41.519531 48.796875 -38.53125 C 50.460938 -35.550781 51.296875 -32.128906 51.296875 -28.265625 C 51.296875 -22.742188 50.101562 -17.796875 47.71875 -13.421875 C 45.34375 -9.046875 42.023438 -5.632812 37.765625 -3.1875 C 33.503906 -0.75 28.65625 0.46875 23.21875 0.46875 Z M 24.96875 -10.171875 C 27.9375 -10.171875 30.539062 -10.929688 32.78125 -12.453125 C 35.019531 -13.972656 36.753906 -16.023438 37.984375 -18.609375 C 39.222656 -21.191406 39.84375 -23.988281 39.84375 -27 C 39.84375 -30.226562 38.945312 -32.757812 37.15625 -34.59375 C 35.363281 -36.4375 32.851562 -37.359375 29.625 -37.359375 C 26.65625 -37.359375 24.035156 -36.59375 21.765625 -35.0625 C 19.503906 -33.539062 17.753906 -31.507812 16.515625 -28.96875 C 15.285156 -26.4375 14.671875 -23.644531 14.671875 -20.59375 C 14.671875 -17.363281 15.566406 -14.816406 17.359375 -12.953125 C 19.160156 -11.097656 21.695312 -10.171875 24.96875 -10.171875 Z M 24.96875 -10.171875 "/></g></g></g><g fill="#1a2056" fill-opacity="1"><g transform="translate(89.539326, 98.682091)"><g><path d="M 44.421875 -37.5625 L 37.828125 0 L 26.3125 0 L 27.1875 -5.109375 C 25.707031 -3.453125 23.898438 -2.117188 21.765625 -1.109375 C 19.640625 -0.0976562 17.363281 0.40625 14.9375 0.40625 C 11.175781 0.40625 8.21875 -0.65625 6.0625 -2.78125 C 3.90625 -4.914062 2.828125 -7.894531 2.828125 -11.71875 C 2.828125 -13.144531 2.9375 -14.441406 3.15625 -15.609375 L 7.0625 -37.5625 L 18.515625 -37.5625 L 14.9375 -17.171875 C 14.800781 -16.453125 14.734375 -15.753906 14.734375 -15.078125 C 14.734375 -13.191406 15.257812 -11.742188 16.3125 -10.734375 C 17.375 -9.722656 18.847656 -9.21875 20.734375 -9.21875 C 22.890625 -9.21875 24.71875 -9.859375 26.21875 -11.140625 C 27.71875 -12.421875 28.71875 -14.25 29.21875 -16.625 L 32.921875 -37.5625 Z M 44.421875 -37.5625 "/></g></g></g><g fill="#1a2056" fill-opacity="1"><g transform="translate(134.908133, 98.682091)"><g><path d="M 17.640625 -30.765625 C 19.390625 -33.003906 21.394531 -34.765625 23.65625 -36.046875 C 25.925781 -37.328125 28.296875 -37.96875 30.765625 -37.96875 L 28.609375 -25.78125 L 25.4375 -25.78125 C 22.570312 -25.78125 20.304688 -25.160156 18.640625 -23.921875 C 16.984375 -22.691406 15.882812 -20.53125 15.34375 -17.4375 L 12.25 0 L 0.734375 0 L 7.34375 -37.5625 L 18.84375 -37.5625 Z M 17.640625 -30.765625 "/></g></g></g></svg>