<svg xmlns="http://www.w3.org/2000/svg" xmlns:xlink="http://www.w3.org/1999/xlink" width="1750" zoomAndPan="magnify" viewBox="0 0 1312.5 755.249977" height="1007" preserveAspectRatio="xMidYMid meet" version="1.0"><defs><filter x="0%" y="0%" width="100%" height="100%" id="0589d390eb"><feColorMatrix values="0 0 0 0 1 0 0 0 0 1 0 0 0 0 1 0 0 0 1 0" color-interpolation-filters="sRGB"/></filter><clipPath id="bf1491c411"><path d="M 0.402344 19 L 1311.597656 19 L 1311.597656 740 L 0.402344 740 Z M 0.402344 19 " clip-rule="nonzero"/></clipPath><mask id="5d7a97b5b2"><g filter="url(#0589d390eb)"><rect x="-131.25" width="1575" fill="#000000" y="-75.524998" height="906.299972" fill-opacity="0.17"/></g></mask><clipPath id="2076387c86"><path d="M 0.402344 0.660156 L 1240 0.660156 L 1240 270 L 0.402344 270 Z M 0.402344 0.660156 " clip-rule="nonzero"/></clipPath><clipPath id="3e6681d80c"><path d="M 71 444 L 1310.851562 444 L 1310.851562 707 L 71 707 Z M 71 444 " clip-rule="nonzero"/></clipPath><clipPath id="00c50fd187"><path d="M 72 449 L 1310.851562 449 L 1310.851562 719 L 72 719 Z M 72 449 " clip-rule="nonzero"/></clipPath><clipPath id="fade1a56dc"><rect x="0" width="1312" y="0" height="721"/></clipPath><clipPath id="a99817be67"><path d="M 296.570312 183.613281 L 318.300781 183.613281 L 318.300781 194.851562 L 296.570312 194.851562 Z M 296.570312 183.613281 " clip-rule="nonzero"/></clipPath></defs><g clip-path="url(#bf1491c411)"><g mask="url(#5d7a97b5b2)"><g transform="matrix(1, 0, 0, 1, 0.000000000000000056, 19)"><g clip-path="url(#fade1a56dc)"><g clip-path="url(#2076387c86)"><path fill="#ffffff" d="M 881.765625 269.335938 C 802.273438 269.335938 713.5 207.832031 637.488281 155.609375 C 575.40625 112.675781 521.445312 75.539062 492.433594 87.726562 C 481.410156 92.367188 475.027344 103.390625 471.542969 121.957031 C 458.78125 193.324219 425.125 238.582031 382.191406 242.066406 C 358.402344 243.804688 334.03125 232.78125 311.984375 210.152344 C 287.613281 185.78125 266.144531 148.066406 249.898438 101.070312 C 231.910156 50.589844 204.058594 19.257812 166.347656 7.652344 C 91.496094 -15.554688 2.140625 48.851562 1.5625 49.429688 L 0.402344 48.269531 C 1.5625 47.6875 90.917969 -17.875 166.925781 5.914062 C 205.222656 17.515625 233.652344 49.429688 251.640625 101.070312 C 282.972656 191.003906 332.871094 244.386719 382.191406 240.324219 C 424.546875 236.84375 457.617188 192.164062 470.382812 121.378906 C 473.867188 102.230469 480.828125 90.625 492.433594 85.984375 C 522.023438 73.800781 575.984375 110.933594 638.648438 154.449219 C 740.769531 224.65625 868.417969 312.851562 960.675781 241.484375 C 1130.679688 110.355469 1237.441406 80.761719 1238.601562 80.761719 L 1239.183594 82.503906 C 1238.023438 82.503906 1131.839844 112.675781 962.414062 243.226562 C 936.886719 261.210938 910.195312 269.335938 881.765625 269.335938 Z M 881.765625 269.335938 " fill-opacity="1" fill-rule="nonzero"/></g><path fill="#ffffff" d="M 886.984375 274.558594 C 809.234375 274.558594 720.460938 214.214844 645.613281 163.734375 C 582.949219 120.796875 528.988281 84.242188 499.976562 96.429688 C 488.953125 101.070312 481.988281 112.09375 478.507812 131.242188 C 466.324219 200.867188 432.667969 244.386719 389.734375 248.445312 C 337.511719 253.089844 284.710938 199.707031 251.058594 109.191406 C 233.070312 60.453125 205.222656 30.28125 168.085938 19.257812 C 93.238281 -3.371094 3.882812 60.453125 3.300781 61.035156 L 2.140625 59.875 C 3.300781 59.292969 92.65625 -5.691406 168.667969 17.515625 C 206.382812 29.121094 234.8125 59.292969 252.800781 108.613281 C 284.710938 194.484375 334.609375 246.707031 383.351562 246.707031 C 385.671875 246.707031 387.410156 246.707031 389.734375 246.707031 C 432.089844 242.644531 464.582031 199.707031 476.765625 130.660156 C 480.246094 111.515625 487.789062 99.328125 498.816406 94.6875 C 528.40625 81.921875 582.949219 119.058594 646.191406 161.992188 C 746.570312 230.460938 871.320312 315.171875 961.835938 248.445312 C 1129.519531 123.699219 1238.023438 91.785156 1238.601562 91.785156 L 1239.183594 93.527344 C 1238.023438 94.105469 1130.101562 125.4375 962.414062 250.1875 C 939.785156 267.015625 913.675781 274.558594 886.984375 274.558594 Z M 886.984375 274.558594 " fill-opacity="1" fill-rule="nonzero"/><path fill="#ffffff" d="M 891.046875 279.199219 C 813.878906 279.199219 726.84375 220.597656 653.15625 170.695312 C 590.492188 128.339844 536.53125 91.785156 507.519531 104.550781 C 496.496094 109.191406 489.53125 120.796875 486.050781 139.945312 C 473.867188 208.410156 441.953125 249.609375 399.015625 254.25 C 374.066406 256.570312 347.375 246.125 322.425781 223.496094 C 295.734375 199.128906 271.945312 162.574219 253.960938 116.734375 C 235.972656 70.316406 208.121094 41.308594 171.566406 30.863281 C 94.398438 8.234375 5.042969 72.058594 4.460938 72.640625 L 3.300781 71.476562 C 4.460938 70.898438 94.398438 6.492188 170.988281 28.542969 C 208.121094 39.566406 236.554688 68.578125 254.539062 115.574219 C 273.105469 160.832031 296.316406 197.96875 323.007812 221.757812 C 347.957031 244.386719 374.066406 254.828125 398.4375 251.929688 C 440.792969 247.867188 472.125 206.671875 484.308594 138.785156 C 487.789062 119.058594 495.332031 107.453125 506.9375 102.230469 C 537.109375 89.464844 591.652344 126.019531 654.894531 168.957031 C 753.535156 235.101562 875.960938 318.074219 964.734375 254.25 C 1130.679688 135.882812 1240.34375 102.230469 1240.921875 102.230469 L 1241.503906 103.972656 C 1240.34375 104.550781 1131.261719 137.625 965.316406 255.988281 C 942.105469 272.238281 917.15625 279.199219 891.046875 279.199219 Z M 891.046875 279.199219 " fill-opacity="1" fill-rule="nonzero"/><path fill="#ffffff" d="M 897.429688 285.582031 C 822 285.582031 735.546875 228.140625 662.4375 179.398438 C 599.195312 137.625 545.234375 101.070312 515.640625 113.835938 C 504.617188 118.476562 497.074219 130.082031 493.59375 149.808594 C 481.988281 214.792969 450.65625 255.410156 407.71875 260.050781 C 353.179688 265.855469 292.835938 212.472656 255.699219 123.699219 C 237.132812 79.601562 209.28125 51.75 172.726562 41.886719 C 96.136719 20.417969 6.785156 83.664062 6.203125 84.242188 L 5.042969 83.082031 C 6.203125 82.503906 96.136719 18.097656 173.308594 40.144531 C 209.863281 50.589844 238.292969 78.441406 257.441406 123.117188 C 294.574219 211.3125 353.757812 264.695312 407.71875 258.890625 C 449.496094 254.25 480.246094 214.214844 492.433594 149.808594 C 495.914062 130.082031 503.457031 117.894531 515.0625 112.675781 C 545.234375 99.910156 600.355469 136.464844 663.597656 178.238281 C 759.917969 242.644531 880.023438 322.714844 967.058594 262.953125 C 1098.1875 173.597656 1204.949219 127.179688 1242.664062 114.996094 L 1243.246094 116.734375 C 1204.949219 128.921875 1098.769531 175.339844 967.636719 264.695312 C 946.167969 279.199219 922.378906 285.582031 897.429688 285.582031 Z M 897.429688 285.582031 " fill-opacity="1" fill-rule="nonzero"/><path fill="#ffffff" d="M 901.492188 290.804688 C 827.222656 290.804688 741.929688 234.523438 669.980469 187.523438 C 607.316406 145.746094 552.777344 109.773438 523.183594 122.539062 C 511.578125 127.179688 504.617188 139.363281 501.136719 159.09375 C 489.53125 222.335938 458.78125 261.792969 417.003906 267.015625 C 390.3125 270.496094 361.300781 260.050781 333.449219 236.84375 C 304.441406 213.054688 277.75 176.5 257.441406 131.820312 C 238.292969 88.886719 209.863281 62.195312 173.890625 52.910156 C 97.300781 32.023438 7.945312 95.269531 7.363281 95.847656 L 6.203125 94.6875 C 7.363281 94.105469 96.71875 30.28125 174.46875 51.171875 C 211.023438 61.035156 239.453125 87.726562 258.601562 130.660156 C 278.910156 175.339844 305.019531 211.3125 334.03125 235.101562 C 361.882812 257.730469 390.3125 268.175781 416.421875 264.695312 C 457.617188 259.472656 487.789062 221.175781 498.816406 158.511719 C 502.296875 138.203125 509.839844 126.019531 522.023438 120.796875 C 552.777344 107.453125 607.316406 144.007812 671.140625 185.78125 C 765.71875 247.867188 883.503906 325.617188 968.21875 269.914062 C 1097.027344 185.203125 1204.949219 138.785156 1243.246094 126.019531 L 1243.824219 127.761719 C 1204.949219 140.523438 1097.609375 186.941406 968.796875 271.65625 C 948.488281 285 925.28125 290.804688 901.492188 290.804688 Z M 901.492188 290.804688 " fill-opacity="1" fill-rule="nonzero"/><path fill="#ffffff" d="M 906.714844 297.1875 C 833.605469 297.1875 749.472656 242.066406 678.105469 196.226562 C 614.859375 155.03125 559.738281 119.058594 530.148438 131.820312 C 518.542969 137.042969 511 148.648438 507.519531 168.957031 C 492.433594 251.929688 449.496094 269.914062 425.707031 273.398438 C 368.84375 280.941406 301.539062 226.980469 258.601562 138.785156 C 239.453125 98.75 211.601562 73.800781 176.210938 64.515625 C 135.59375 54.070312 92.078125 66.257812 63.066406 78.441406 C 31.152344 91.785156 8.523438 107.453125 8.523438 107.453125 L 7.363281 106.292969 C 8.523438 105.710938 98.460938 42.46875 176.789062 62.773438 C 212.765625 72.058594 241.195312 97.589844 260.34375 138.203125 C 302.699219 225.820312 369.425781 279.199219 425.707031 271.65625 C 466.324219 265.855469 494.753906 229.300781 505.777344 168.375 C 509.257812 148.066406 517.382812 135.304688 529.566406 130.082031 C 560.320312 116.734375 615.441406 152.710938 679.265625 194.484375 C 772.101562 254.828125 886.984375 330.257812 969.957031 278.039062 C 1097.609375 198.546875 1205.53125 151.550781 1244.40625 138.203125 L 1244.984375 139.945312 C 1206.109375 153.871094 1098.1875 200.289062 970.539062 279.78125 C 951.390625 291.964844 929.34375 297.1875 906.714844 297.1875 Z M 906.714844 297.1875 " fill-opacity="1" fill-rule="nonzero"/><path fill="#ffffff" d="M 912.515625 302.988281 C 840.566406 302.988281 757.015625 249.027344 686.808594 203.769531 C 622.984375 162.574219 567.863281 127.179688 537.691406 140.523438 C 526.085938 145.746094 518.542969 157.933594 515.0625 178.238281 C 504.617188 237.421875 476.765625 273.398438 436.152344 279.199219 C 378.128906 287.902344 306.179688 233.359375 261.503906 146.328125 C 241.773438 108.03125 213.925781 84.242188 178.53125 75.539062 C 137.914062 65.675781 94.398438 77.859375 64.804688 90.046875 C 32.894531 103.390625 10.265625 119.058594 10.265625 119.058594 L 9.105469 117.894531 C 10.265625 117.316406 100.199219 54.652344 179.109375 73.800781 C 215.085938 82.503906 242.9375 106.292969 263.242188 145.167969 C 307.921875 231.621094 379.289062 286.160156 436.152344 277.457031 C 475.605469 271.65625 503.457031 235.683594 513.902344 177.660156 C 517.382812 156.773438 525.503906 144.007812 537.691406 138.785156 C 569.023438 125.4375 624.144531 160.832031 688.546875 202.609375 C 779.0625 261.210938 891.628906 333.742188 972.859375 285.582031 C 1130.101562 192.164062 1245.566406 150.390625 1246.726562 149.808594 L 1247.304688 151.550781 C 1246.144531 152.128906 1130.679688 193.90625 973.441406 287.324219 C 954.292969 298.347656 933.984375 302.988281 912.515625 302.988281 Z M 912.515625 302.988281 " fill-opacity="1" fill-rule="nonzero"/><path fill="#ffffff" d="M 917.15625 307.628906 C 893.949219 307.628906 867.839844 301.828125 838.828125 290.804688 C 790.667969 271.65625 739.609375 239.742188 694.929688 211.3125 C 631.105469 170.695312 575.40625 135.304688 545.234375 148.648438 C 533.046875 153.871094 525.503906 166.636719 522.023438 186.941406 C 511.578125 243.804688 484.890625 278.617188 445.433594 285.582031 C 386.25 295.445312 311.402344 241.484375 262.664062 153.871094 C 242.9375 116.734375 215.085938 94.6875 180.269531 86.5625 C 139.074219 77.28125 95.558594 89.464844 65.964844 101.648438 C 34.054688 114.996094 11.425781 130.660156 11.425781 130.660156 L 10.265625 129.5 C 11.425781 128.921875 100.78125 66.835938 180.269531 84.824219 C 215.664062 92.945312 244.097656 115.574219 264.402344 152.128906 C 312.5625 239.164062 387.410156 292.542969 445.433594 283.261719 C 494.753906 275.136719 513.320312 225.820312 520.285156 186.363281 C 523.765625 165.476562 531.886719 152.710938 544.652344 146.90625 C 575.984375 132.980469 631.6875 168.375 696.089844 209.570312 C 740.769531 238.003906 791.25 270.496094 839.40625 289.0625 C 894.527344 310.53125 938.625 311.691406 973.441406 291.964844 C 1128.941406 204.929688 1245.566406 160.832031 1246.726562 160.253906 L 1247.304688 161.992188 C 1246.144531 162.574219 1129.519531 206.671875 974.019531 293.703125 C 957.773438 302.988281 938.625 307.628906 917.15625 307.628906 Z M 917.15625 307.628906 " fill-opacity="1" fill-rule="nonzero"/><path fill="#ffffff" d="M 922.378906 314.59375 C 853.914062 314.59375 775.003906 264.695312 703.632812 220.015625 C 639.230469 179.398438 584.109375 144.585938 552.777344 157.933594 C 540.589844 163.152344 533.046875 175.917969 528.988281 196.808594 C 522.023438 235.683594 503.457031 283.261719 455.296875 291.964844 C 396.113281 302.988281 316.042969 247.867188 264.402344 160.832031 C 244.097656 126.601562 216.246094 105.710938 182.011719 98.167969 C 140.816406 88.886719 96.71875 101.648438 67.128906 113.835938 C 35.214844 127.179688 12.585938 142.265625 12.585938 142.847656 L 12.003906 141.105469 C 13.167969 140.523438 103.101562 79.019531 183.171875 96.429688 C 217.984375 103.972656 246.417969 125.4375 266.726562 160.253906 C 317.785156 246.125 397.277344 301.246094 455.878906 290.222656 C 493.59375 283.261719 518.542969 250.769531 528.40625 196.226562 C 532.46875 174.757812 540.011719 161.992188 552.777344 156.191406 C 584.6875 142.265625 640.390625 177.660156 704.796875 218.277344 C 795.890625 275.71875 899.171875 340.703125 976.339844 300.085938 C 1129.519531 219.4375 1247.886719 173.597656 1249.046875 173.019531 L 1249.625 174.757812 C 1248.464844 175.339844 1130.101562 221.175781 976.921875 301.828125 C 960.09375 310.53125 941.527344 314.59375 922.378906 314.59375 Z M 922.378906 314.59375 " fill-opacity="1" fill-rule="nonzero"/><path fill="#ffffff" d="M 928.183594 320.394531 C 860.875 320.394531 783.125 271.65625 712.917969 227.558594 C 648.511719 186.941406 592.230469 152.128906 560.898438 166.054688 C 548.714844 171.277344 540.589844 184.621094 537.109375 205.511719 C 527.828125 258.890625 502.875 290.804688 465.742188 298.347656 C 406.558594 309.949219 323.007812 255.410156 267.304688 168.375 C 246.417969 135.882812 218.566406 116.15625 184.332031 109.191406 C 142.554688 100.488281 98.460938 113.253906 68.867188 125.4375 C 36.957031 138.785156 14.328125 153.871094 14.328125 153.871094 L 13.167969 152.710938 C 13.167969 152.710938 35.796875 137.042969 68.289062 123.699219 C 97.878906 111.515625 142.554688 98.75 184.914062 107.453125 C 219.726562 114.414062 247.578125 134.722656 269.046875 167.214844 C 323.585938 253.667969 406.558594 308.210938 465.160156 296.605469 C 501.136719 289.644531 525.503906 257.730469 534.789062 205.511719 C 538.851562 184.042969 546.972656 170.695312 559.738281 164.894531 C 591.652344 150.390625 647.933594 185.78125 712.917969 226.398438 C 801.691406 282.101562 902.652344 344.765625 977.5 307.628906 C 1128.359375 232.78125 1248.464844 185.203125 1249.625 184.621094 L 1250.207031 186.363281 C 1249.046875 186.941406 1128.941406 234.523438 978.082031 309.371094 C 962.996094 316.914062 945.589844 320.394531 928.183594 320.394531 Z M 928.183594 320.394531 " fill-opacity="1" fill-rule="nonzero"/><path fill="#ffffff" d="M 933.402344 326.199219 C 867.257812 326.199219 790.667969 278.617188 721.042969 235.683594 C 656.636719 195.066406 600.355469 160.832031 569.023438 174.757812 C 556.257812 180.5625 548.132812 193.324219 544.652344 214.792969 C 535.371094 265.855469 512.160156 297.1875 476.765625 304.730469 C 447.175781 311.113281 410.039062 300.667969 371.164062 276.296875 C 334.03125 252.507812 298.058594 216.535156 269.625 175.917969 C 244.675781 140.523438 197.679688 102.8125 110.644531 124.277344 C 58.425781 137.042969 16.648438 165.476562 16.066406 166.054688 L 14.90625 164.894531 C 15.488281 164.894531 57.84375 135.882812 110.0625 123.117188 C 158.804688 110.933594 226.109375 110.351562 270.785156 175.917969 C 298.636719 216.535156 334.609375 251.929688 371.746094 275.71875 C 410.039062 300.085938 447.175781 310.53125 475.605469 304.148438 C 510.417969 296.605469 533.628906 265.855469 542.332031 215.375 C 546.394531 193.324219 554.515625 179.980469 567.863281 173.597656 C 600.355469 159.09375 656.636719 193.90625 722.203125 234.523438 C 808.65625 287.902344 907.292969 348.828125 980.402344 315.171875 C 1129.519531 246.707031 1250.789062 196.808594 1251.949219 196.226562 L 1252.527344 197.96875 C 1251.367188 198.546875 1130.101562 248.445312 980.984375 316.914062 C 966.476562 322.714844 950.230469 326.199219 933.402344 326.199219 Z M 933.402344 326.199219 " fill-opacity="1" fill-rule="nonzero"/><path fill="#ffffff" d="M 939.207031 332 C 874.222656 332 798.210938 285.582031 729.746094 243.804688 C 664.179688 203.769531 607.898438 169.535156 575.984375 184.042969 C 563.21875 189.84375 555.097656 203.191406 551.035156 224.65625 C 542.332031 273.976562 520.285156 303.570312 486.050781 311.691406 C 455.878906 318.074219 418.164062 308.210938 376.96875 282.679688 C 338.671875 258.890625 300.957031 223.496094 271.367188 182.882812 C 226.109375 121.957031 159.382812 123.117188 111.804688 135.304688 C 59.585938 148.648438 17.808594 176.5 17.226562 176.5 L 16.066406 175.339844 C 16.648438 175.339844 58.425781 146.90625 110.644531 133.5625 C 158.804688 121.378906 226.6875 119.636719 272.527344 181.722656 C 327.066406 254.828125 419.90625 324.457031 485.46875 309.371094 C 519.121094 301.246094 540.589844 272.816406 549.292969 224.078125 C 553.355469 202.027344 561.480469 188.105469 574.824219 182.300781 C 607.898438 167.796875 664.179688 202.027344 730.324219 242.644531 C 815.039062 294.285156 910.195312 352.886719 982.144531 322.714844 C 1128.941406 260.050781 1251.949219 208.410156 1253.109375 207.832031 L 1253.6875 209.570312 C 1252.527344 210.152344 1129.519531 261.792969 982.722656 324.457031 C 969.378906 329.097656 954.871094 332 939.207031 332 Z M 939.207031 332 " fill-opacity="1" fill-rule="nonzero"/><path fill="#ffffff" d="M 945.007812 337.800781 C 881.183594 337.800781 806.335938 292.542969 739.027344 251.929688 C 673.464844 211.894531 616.601562 177.660156 584.109375 192.164062 C 570.761719 197.96875 562.640625 211.894531 558.578125 233.941406 C 549.875 281.519531 528.988281 309.949219 495.914062 318.074219 C 465.742188 325.617188 426.867188 315.753906 383.351562 289.0625 C 344.476562 265.273438 304.441406 229.300781 273.105469 190.425781 C 226.6875 132.402344 159.964844 134.722656 112.386719 146.90625 C 60.746094 160.253906 18.96875 187.523438 18.386719 188.105469 L 17.226562 186.941406 C 17.808594 186.941406 59.585938 159.09375 111.222656 145.746094 C 159.382812 133.5625 226.6875 130.660156 274.269531 189.84375 C 305.601562 228.71875 345.636719 264.695312 383.929688 287.902344 C 426.867188 314.011719 465.742188 323.875 495.332031 316.332031 C 527.828125 308.210938 548.132812 280.359375 556.835938 233.363281 C 560.898438 210.734375 569.601562 196.808594 583.527344 190.425781 C 616.601562 175.339844 674.042969 210.152344 740.1875 250.1875 C 822 300.085938 915.417969 355.789062 985.042969 329.097656 C 1130.101562 272.816406 1254.269531 218.855469 1255.429688 218.277344 L 1256.007812 220.015625 C 1254.847656 220.597656 1130.679688 274.558594 985.625 330.839844 C 972.859375 335.480469 959.515625 337.800781 945.007812 337.800781 Z M 945.007812 337.800781 " fill-opacity="1" fill-rule="nonzero"/><path fill="#ffffff" d="M 950.8125 343.605469 C 888.726562 343.605469 814.457031 298.925781 747.730469 259.472656 C 681.585938 220.015625 624.722656 185.78125 591.652344 200.289062 C 578.304688 206.089844 570.183594 220.015625 566.121094 242.644531 C 558 287.902344 537.691406 315.171875 506.359375 323.875 C 441.953125 341.285156 340.992188 273.398438 274.847656 197.386719 C 227.269531 142.847656 160.542969 146.328125 112.964844 159.09375 C 61.324219 173.019531 20.128906 199.707031 19.546875 199.707031 L 18.386719 198.546875 C 18.96875 198.546875 60.164062 171.277344 112.386719 157.351562 C 160.542969 144.585938 227.851562 141.105469 276.007812 196.226562 C 342.734375 272.238281 442.53125 340.121094 506.359375 322.714844 C 537.109375 314.59375 556.257812 287.324219 564.378906 242.644531 C 568.441406 219.4375 577.144531 205.511719 591.070312 199.128906 C 624.722656 184.042969 682.167969 218.277344 748.890625 258.3125 C 828.964844 305.890625 918.898438 360.429688 986.203125 336.640625 C 1128.941406 286.742188 1255.429688 231.039062 1256.589844 230.460938 L 1257.171875 232.199219 C 1256.007812 232.78125 1129.519531 288.484375 986.785156 338.382812 C 975.761719 341.863281 963.574219 343.605469 950.8125 343.605469 Z M 950.8125 343.605469 " fill-opacity="1" fill-rule="nonzero"/><path fill="#ffffff" d="M 957.191406 349.988281 C 896.269531 349.988281 823.160156 306.46875 757.015625 267.59375 C 693.191406 229.878906 632.847656 193.90625 599.195312 208.992188 C 585.847656 215.375 577.144531 229.300781 573.082031 251.929688 C 565.539062 295.445312 546.394531 322.136719 516.800781 330.839844 C 509.257812 333.160156 501.714844 334.320312 493.011719 334.320312 C 428.027344 334.320312 338.671875 271.074219 276.589844 204.929688 C 227.851562 153.871094 161.125 157.933594 113.546875 170.695312 C 61.90625 184.621094 21.289062 210.734375 20.710938 211.3125 L 19.546875 210.152344 C 20.128906 210.152344 60.746094 183.460938 112.964844 169.535156 C 161.125 156.773438 228.429688 152.128906 277.75 203.769531 C 313.722656 242.066406 357.238281 277.457031 397.277344 300.667969 C 444.855469 328.519531 486.050781 338.382812 515.640625 329.097656 C 544.652344 320.394531 563.21875 294.285156 570.761719 251.929688 C 574.824219 228.71875 583.527344 214.214844 598.035156 207.832031 C 632.265625 192.164062 690.289062 226.398438 757.015625 266.433594 C 834.183594 312.273438 922.378906 364.492188 987.363281 344.183594 C 1127.78125 300.667969 1256.007812 242.644531 1257.167969 242.066406 L 1257.75 243.804688 C 1256.589844 244.386719 1128.359375 302.410156 987.945312 345.925781 C 978.660156 348.828125 968.21875 349.988281 957.191406 349.988281 Z M 957.191406 349.988281 " fill-opacity="1" fill-rule="nonzero"/><path fill="#ffffff" d="M 962.996094 356.371094 C 903.230469 356.371094 830.703125 314.011719 766.300781 275.71875 C 701.894531 238.003906 640.96875 202.027344 607.316406 217.695312 C 593.390625 224.078125 584.6875 238.582031 580.625 261.792969 C 573.082031 303.570312 555.097656 329.097656 527.246094 337.800781 C 496.496094 347.664062 455.296875 337.800781 404.238281 308.789062 C 349.695312 278.039062 302.699219 235.101562 279.488281 212.472656 C 229.589844 164.316406 162.863281 169.535156 115.285156 182.882812 C 63.644531 196.808594 23.609375 222.917969 23.03125 223.496094 L 21.871094 221.757812 C 22.449219 221.757812 62.484375 195.648438 114.707031 181.140625 C 162.863281 167.796875 230.171875 162.574219 280.648438 211.3125 C 303.859375 233.941406 350.859375 276.296875 405.398438 307.050781 C 455.296875 335.480469 497.65625 345.34375 527.246094 336.0625 C 554.515625 327.359375 571.921875 301.828125 579.464844 261.210938 C 583.527344 237.421875 592.8125 222.917969 607.316406 215.953125 C 641.550781 200.289062 700.152344 234.523438 767.460938 273.976562 C 842.308594 318.074219 927.601562 367.972656 990.847656 350.566406 C 1129.519531 313.433594 1258.910156 253.089844 1260.070312 252.507812 L 1260.652344 254.25 C 1259.492188 254.828125 1130.101562 315.171875 991.425781 352.308594 C 982.144531 355.207031 972.859375 356.371094 962.996094 356.371094 Z M 962.996094 356.371094 " fill-opacity="1" fill-rule="nonzero"/><path fill="#ffffff" d="M 969.378906 363.332031 C 911.355469 363.332031 839.40625 321.554688 775.582031 284.421875 C 710.597656 246.707031 649.09375 210.734375 614.859375 226.398438 C 600.933594 232.78125 591.652344 247.285156 587.589844 271.074219 C 580.628906 310.53125 563.800781 335.480469 537.109375 344.765625 C 506.9375 355.207031 464 345.34375 410.621094 315.171875 C 360.140625 286.742188 311.984375 247.867188 280.648438 220.015625 C 230.171875 174.757812 162.863281 181.140625 115.285156 194.484375 C 64.226562 208.992188 24.191406 234.523438 24.191406 234.523438 L 23.03125 232.78125 C 23.609375 232.78125 63.644531 207.25 115.285156 192.746094 C 162.863281 179.398438 230.75 173.019531 282.390625 218.277344 C 313.722656 246.707031 361.300781 285.582031 411.78125 314.011719 C 465.160156 343.605469 506.9375 353.46875 536.53125 343.023438 C 562.058594 334.320312 578.886719 309.949219 585.847656 271.074219 C 589.910156 246.707031 599.195312 231.621094 614.28125 225.238281 C 649.09375 208.992188 711.175781 244.964844 776.742188 283.261719 C 849.269531 325.617188 931.664062 373.195312 992.585938 359.269531 C 1128.941406 328.519531 1259.492188 265.855469 1261.230469 265.273438 L 1261.8125 267.015625 C 1260.652344 267.59375 1129.519531 330.257812 993.167969 361.011719 C 985.042969 362.171875 977.5 363.332031 969.378906 363.332031 Z M 969.378906 363.332031 " fill-opacity="1" fill-rule="nonzero"/><path fill="#ffffff" d="M 976.339844 369.714844 C 919.480469 369.714844 848.691406 329.097656 785.445312 292.542969 C 719.882812 254.828125 657.796875 218.855469 622.984375 235.101562 C 608.476562 241.484375 599.773438 256.570312 595.132812 280.941406 C 588.167969 318.65625 572.503906 343.023438 547.554688 352.308594 C 517.382812 363.332031 473.867188 353.46875 418.164062 322.714844 C 367.683594 294.867188 317.203125 255.410156 283.550781 228.71875 C 255.121094 205.511719 202.898438 183.460938 117.027344 207.832031 C 65.96875 221.175781 25.929688 246.125 25.929688 246.125 L 24.769531 244.386719 C 25.351562 244.386719 64.804688 219.4375 116.445312 204.351562 C 202.898438 179.980469 255.699219 202.609375 284.710938 225.820312 C 318.363281 253.089844 368.84375 291.964844 419.324219 319.816406 C 475.027344 350.566406 517.960938 360.429688 547.554688 349.40625 C 571.921875 340.121094 587.589844 316.914062 593.972656 279.78125 C 598.613281 255.410156 607.898438 239.742188 622.402344 232.78125 C 657.796875 215.953125 720.460938 252.507812 786.605469 290.222656 C 856.8125 330.839844 935.726562 376.675781 994.90625 365.652344 C 1129.519531 340.703125 1261.230469 276.296875 1262.972656 275.71875 L 1263.550781 277.457031 C 1262.390625 278.039062 1130.101562 342.445312 995.488281 367.394531 C 989.105469 369.132812 982.722656 369.714844 976.339844 369.714844 Z M 976.339844 369.714844 " fill-opacity="1" fill-rule="nonzero"/><path fill="#ffffff" d="M 981.5625 375.515625 C 927.023438 375.515625 859.714844 337.222656 794.730469 300.085938 C 728.585938 262.371094 665.921875 226.398438 630.527344 242.644531 C 616.019531 249.609375 606.738281 264.695312 602.09375 289.0625 C 595.710938 325.617188 580.625 348.828125 557.417969 358.109375 C 548.714844 361.589844 539.429688 363.332031 529.566406 363.332031 C 461.679688 363.332031 362.460938 290.804688 293.996094 240.902344 L 285.292969 234.523438 C 256.28125 213.054688 202.898438 193.324219 117.605469 218.277344 C 66.546875 233.363281 27.089844 257.730469 27.089844 257.730469 L 25.929688 255.988281 C 26.511719 255.988281 65.386719 231.039062 117.027344 215.953125 C 203.480469 191.003906 256.859375 211.3125 286.453125 232.78125 L 295.15625 239.164062 C 372.90625 296.605469 491.273438 383.058594 556.257812 356.949219 C 578.886719 347.664062 593.972656 325.035156 600.355469 289.0625 C 604.996094 264.113281 614.28125 248.445312 629.367188 241.484375 C 665.339844 224.65625 728.585938 260.632812 795.308594 298.925781 C 866.097656 339.542969 939.207031 381.320312 996.070312 373.195312 C 1128.359375 354.046875 1261.8125 288.484375 1263.550781 287.902344 L 1264.132812 289.644531 C 1262.972656 290.222656 1128.941406 355.789062 996.648438 374.9375 C 992.007812 375.515625 986.785156 375.515625 981.5625 375.515625 Z M 981.5625 375.515625 " fill-opacity="1" fill-rule="nonzero"/><path fill="#ffffff" d="M 988.527344 383.058594 C 935.144531 383.058594 869 345.34375 804.59375 308.789062 C 737.289062 270.496094 674.042969 234.523438 638.070312 251.347656 C 622.984375 258.3125 613.699219 273.976562 609.058594 298.925781 C 602.675781 333.742188 588.167969 355.789062 566.121094 365.652344 C 506.9375 390.601562 400.757812 318.65625 323.007812 266.433594 C 310.242188 257.730469 298.058594 249.609375 287.03125 242.066406 C 257.441406 222.917969 204.058594 204.929688 118.1875 229.878906 C 67.128906 244.964844 28.253906 268.753906 27.671875 269.335938 L 26.511719 267.59375 C 27.089844 267.59375 65.964844 243.226562 117.027344 228.140625 C 202.898438 202.609375 256.859375 220.597656 287.03125 240.324219 C 298.058594 247.867188 310.242188 255.988281 323.007812 264.695312 C 400.175781 316.914062 506.359375 388.28125 564.960938 363.910156 C 586.429688 354.628906 600.355469 332.578125 606.738281 298.925781 C 611.378906 273.398438 621.242188 257.730469 636.328125 250.1875 C 672.882812 232.78125 736.707031 269.335938 804.015625 307.628906 C 871.898438 346.503906 942.105469 386.539062 997.230469 381.320312 C 1127.78125 368.554688 1262.390625 300.667969 1263.550781 300.085938 L 1264.132812 301.828125 C 1262.972656 302.40625 1127.78125 370.292969 996.648438 383.058594 C 994.90625 383.058594 991.425781 383.058594 988.527344 383.058594 Z M 988.527344 383.058594 " fill-opacity="1" fill-rule="nonzero"/><path fill="#ffffff" d="M 994.328125 390.023438 C 942.6875 390.023438 877.121094 353.46875 814.457031 317.492188 C 746.570312 279.199219 682.167969 242.644531 645.613281 260.050781 C 630.527344 267.015625 620.664062 283.261719 616.019531 308.210938 C 610.21875 341.863281 596.292969 363.332031 574.824219 372.617188 C 519.121094 396.984375 421.644531 334.320312 343.894531 283.839844 C 324.167969 271.074219 305.601562 258.890625 288.773438 249.609375 C 183.753906 188.105469 31.152344 280.359375 29.992188 280.941406 L 28.832031 279.199219 C 29.414062 279.199219 67.707031 255.410156 118.765625 239.742188 C 204.640625 213.632812 258.601562 229.878906 289.355469 247.867188 C 306.179688 257.730469 324.746094 269.914062 344.476562 282.101562 C 422.804688 333.160156 519.703125 395.246094 574.246094 371.453125 C 595.132812 362.171875 608.476562 341.285156 614.28125 308.210938 C 618.921875 282.101562 628.785156 265.855469 644.453125 258.3125 C 682.167969 240.902344 746.570312 276.878906 815.039062 315.753906 C 877.703125 351.148438 942.6875 388.28125 994.328125 388.28125 C 996.066406 388.28125 997.808594 388.28125 1000.128906 388.28125 C 1128.359375 381.898438 1264.710938 311.691406 1265.875 311.113281 L 1266.453125 312.851562 C 1265.292969 313.433594 1128.359375 383.640625 999.550781 390.023438 C 998.390625 390.023438 996.648438 390.023438 994.328125 390.023438 Z M 994.328125 390.023438 " fill-opacity="1" fill-rule="nonzero"/><path fill="#ffffff" d="M 1001.871094 398.144531 C 951.390625 398.144531 886.984375 362.171875 824.902344 326.777344 C 756.433594 287.902344 691.449219 251.347656 653.734375 269.335938 C 638.070312 276.878906 628.207031 293.125 623.5625 318.65625 C 617.761719 351.148438 604.417969 372.035156 583.527344 381.320312 C 531.308594 404.527344 442.535156 349.40625 364.203125 301.246094 C 337.511719 285 311.984375 269.335938 290.515625 257.730469 C 259.761719 241.484375 204.640625 228.140625 119.929688 254.25 C 68.867188 269.914062 31.152344 292.542969 30.574219 293.125 L 29.414062 291.382812 C 29.992188 291.382812 67.707031 268.175781 118.765625 252.507812 C 204.058594 226.398438 259.183594 239.742188 290.515625 255.988281 C 312.5625 267.015625 337.511719 282.679688 364.203125 299.507812 C 442.535156 347.664062 530.726562 402.207031 581.789062 379.578125 C 601.515625 370.875 614.859375 349.988281 620.664062 318.074219 C 625.304688 291.382812 635.75 275.136719 651.414062 267.59375 C 689.710938 249.609375 754.695312 286.160156 824.320312 325.617188 C 886.40625 360.429688 950.230469 396.984375 1000.710938 396.984375 C 1000.710938 396.984375 1001.289062 396.984375 1001.289062 396.984375 C 1127.199219 396.984375 1265.292969 324.457031 1266.453125 323.875 L 1267.035156 325.617188 C 1267.035156 325.617188 1128.941406 398.144531 1001.871094 398.144531 C 1002.449219 398.144531 1001.871094 398.144531 1001.871094 398.144531 Z M 1001.871094 398.144531 " fill-opacity="1" fill-rule="nonzero"/><path fill="#ffffff" d="M 1018.117188 405.6875 C 1013.476562 405.6875 1008.832031 405.6875 1004.191406 405.109375 C 956.613281 402.789062 895.6875 368.554688 837.085938 335.480469 C 766.878906 296.027344 700.734375 258.890625 662.4375 276.878906 C 646.191406 284.421875 636.328125 300.667969 631.6875 327.359375 C 625.882812 358.691406 613.121094 379.578125 592.8125 388.28125 C 543.492188 410.910156 457.617188 359.269531 382.191406 314.011719 C 349.695312 294.867188 319.527344 276.296875 293.414062 264.695312 C 236.554688 239.164062 168.667969 251.347656 122.25 265.855469 C 71.769531 281.519531 34.054688 304.148438 33.472656 304.148438 L 32.3125 302.410156 C 32.894531 302.410156 70.609375 279.78125 121.667969 264.113281 C 168.667969 249.609375 237.132812 237.421875 294.574219 262.953125 C 320.6875 274.558594 351.4375 293.125 383.351562 312.273438 C 458.78125 357.53125 544.074219 408.589844 592.8125 386.539062 C 612.539062 377.835938 624.722656 358.109375 630.527344 326.777344 C 635.167969 299.507812 645.613281 282.679688 662.4375 275.136719 C 701.894531 256.570312 768.039062 294.285156 838.828125 333.742188 C 897.429688 366.8125 958.355469 401.046875 1005.351562 403.367188 C 1129.519531 409.167969 1268.773438 334.902344 1269.933594 334.320312 L 1270.515625 336.0625 C 1268.195312 337.222656 1138.804688 405.6875 1018.117188 405.6875 Z M 1018.117188 405.6875 " fill-opacity="1" fill-rule="nonzero"/><path fill="#ffffff" d="M 1033.203125 412.652344 C 1023.917969 412.652344 1014.636719 412.070312 1005.933594 411.492188 C 960.675781 406.847656 903.230469 374.355469 847.53125 343.023438 C 776.742188 302.988281 709.4375 265.273438 669.980469 283.839844 C 653.734375 291.382812 643.292969 308.210938 638.648438 335.480469 C 632.847656 366.8125 621.242188 385.960938 601.515625 395.246094 C 554.515625 417.292969 475.027344 370.875 398.4375 325.617188 C 360.722656 303.570312 325.328125 282.679688 295.15625 271.074219 C 183.753906 228.140625 35.796875 314.011719 34.054688 315.171875 L 32.894531 314.011719 C 34.632812 312.851562 183.171875 226.398438 295.15625 269.914062 C 325.328125 281.519531 360.722656 302.40625 398.4375 324.457031 C 475.027344 369.132812 553.9375 415.550781 600.355469 394.082031 C 618.921875 385.378906 631.105469 366.234375 636.328125 336.0625 C 641.550781 308.210938 651.996094 291.382812 668.820312 283.261719 C 708.855469 264.113281 776.164062 302.410156 848.109375 342.445312 C 903.8125 373.777344 961.253906 406.269531 1005.933594 410.332031 C 1127.78125 422.515625 1268.773438 346.503906 1269.933594 345.925781 L 1270.515625 347.664062 C 1269.355469 347.664062 1148.085938 412.652344 1033.203125 412.652344 Z M 1033.203125 412.652344 " fill-opacity="1" fill-rule="nonzero"/><path fill="#ffffff" d="M 1046.546875 421.933594 C 1033.78125 421.933594 1020.4375 421.355469 1007.671875 419.035156 C 965.316406 412.652344 911.355469 381.898438 859.136719 352.886719 C 790.089844 314.011719 718.71875 273.398438 678.105469 292.542969 C 661.277344 300.667969 650.835938 317.492188 645.613281 345.34375 C 640.390625 375.515625 628.207031 394.664062 609.636719 403.367188 C 564.378906 424.253906 487.789062 380.160156 413.523438 337.222656 C 371.164062 312.851562 330.550781 289.644531 297.476562 278.617188 C 183.753906 242.066406 37.535156 325.617188 35.796875 326.777344 L 34.632812 325.617188 C 36.375 325.035156 183.171875 240.324219 297.476562 277.457031 C 331.128906 287.902344 371.746094 311.113281 414.101562 336.0625 C 487.789062 378.417969 564.378906 422.515625 609.058594 402.207031 C 627.042969 393.503906 638.648438 374.9375 643.871094 345.34375 C 649.09375 316.914062 659.539062 299.507812 676.945312 291.382812 C 718.140625 271.65625 787.1875 310.53125 859.714844 351.726562 C 911.9375 381.320312 965.898438 411.492188 1007.671875 417.875 C 1127.78125 436.441406 1269.933594 358.691406 1271.09375 357.53125 L 1271.675781 359.269531 C 1271.09375 359.851562 1157.371094 421.933594 1046.546875 421.933594 Z M 1046.546875 421.933594 " fill-opacity="1" fill-rule="nonzero"/><path fill="#ffffff" d="M 1058.152344 431.796875 C 1041.90625 431.796875 1025.660156 430.636719 1009.992188 427.15625 C 970.539062 419.035156 920.058594 390.601562 871.320312 362.75 C 800.53125 322.714844 727.425781 281.519531 686.226562 300.667969 C 668.820312 308.789062 658.378906 326.199219 653.15625 354.628906 C 647.933594 384.21875 636.328125 402.789062 618.339844 411.492188 C 574.246094 431.796875 499.394531 388.863281 426.285156 347.664062 C 379.867188 320.976562 335.773438 296.027344 299.21875 286.160156 C 183.753906 255.410156 38.695312 337.222656 36.957031 338.382812 L 35.796875 337.222656 C 37.535156 336.640625 183.171875 253.667969 299.21875 285 C 335.773438 294.867188 379.867188 319.816406 426.285156 346.503906 C 498.816406 387.703125 573.664062 430.636719 616.601562 410.332031 C 634.585938 402.207031 645.613281 383.640625 650.835938 354.628906 C 656.054688 325.617188 667.082031 307.628906 685.066406 299.507812 C 727.425781 279.78125 801.113281 320.976562 871.898438 361.589844 C 920.640625 388.863281 970.539062 417.292969 1009.992188 425.996094 C 1127.78125 450.367188 1271.09375 370.875 1272.835938 369.714844 L 1273.417969 371.453125 C 1272.253906 371.453125 1164.332031 431.796875 1058.152344 431.796875 Z M 1058.152344 431.796875 " fill-opacity="1" fill-rule="nonzero"/><path fill="#ffffff" d="M 1068.015625 441.664062 C 1048.867188 441.664062 1029.722656 439.339844 1011.152344 434.699219 C 974.601562 424.835938 929.921875 399.886719 883.503906 373.195312 C 811.558594 332 736.707031 289.644531 693.769531 309.949219 C 675.785156 318.074219 664.757812 336.640625 659.539062 365.074219 C 654.316406 394.082031 643.292969 412.070312 625.304688 420.195312 C 582.949219 439.921875 509.257812 398.726562 438.472656 358.109375 C 389.734375 330.839844 339.832031 302.40625 300.378906 293.703125 C 182.59375 269.335938 39.277344 348.828125 37.535156 349.988281 L 36.957031 348.828125 C 38.117188 348.246094 182.59375 267.59375 300.957031 292.542969 C 340.414062 300.667969 390.894531 329.097656 439.632812 356.949219 C 510.417969 396.984375 583.527344 438.179688 624.722656 419.035156 C 642.128906 410.910156 652.574219 393.503906 657.796875 365.074219 C 663.019531 335.480469 674.625 316.914062 692.609375 308.210938 C 736.128906 287.902344 811.554688 330.257812 884.085938 372.035156 C 931.082031 398.726562 975.179688 423.675781 1011.734375 433.539062 C 1127.199219 464.292969 1272.253906 382.480469 1273.996094 381.320312 L 1274.578125 383.058594 C 1273.996094 383.058594 1170.136719 441.664062 1068.015625 441.664062 Z M 1068.015625 441.664062 " fill-opacity="1" fill-rule="nonzero"/><path fill="#ffffff" d="M 1077.878906 451.527344 C 1056.410156 451.527344 1034.363281 448.625 1013.476562 442.242188 C 979.820312 431.21875 939.785156 408.007812 897.429688 383.640625 C 823.160156 340.703125 746.570312 296.605469 701.894531 317.492188 C 683.90625 326.199219 672.300781 344.765625 667.082031 374.355469 C 661.859375 402.789062 651.414062 420.195312 634.007812 428.316406 C 592.8125 447.464844 524.34375 409.167969 451.816406 367.972656 C 399.597656 338.382812 345.636719 308.210938 303.277344 301.828125 C 183.753906 283.261719 41.015625 361.011719 39.855469 361.589844 L 38.695312 360.429688 C 39.855469 359.851562 183.171875 281.519531 303.277344 300.085938 C 345.636719 306.46875 400.175781 337.222656 452.398438 366.8125 C 521.445312 405.6875 592.8125 445.722656 633.425781 427.15625 C 650.253906 419.035156 660.699219 402.207031 665.921875 374.355469 C 671.140625 344.183594 683.328125 325.035156 701.894531 316.332031 C 747.152344 295.445312 824.320312 339.542969 899.171875 383.058594 C 941.527344 407.429688 981.5625 430.636719 1014.636719 441.082031 C 1128.359375 478.214844 1274.578125 394.082031 1276.316406 392.921875 L 1277.476562 394.664062 C 1275.738281 394.664062 1176.519531 451.527344 1077.878906 451.527344 Z M 1077.878906 451.527344 " fill-opacity="1" fill-rule="nonzero"/><path fill="#ffffff" d="M 1085.421875 460.808594 C 1061.632812 460.808594 1037.84375 457.328125 1015.214844 448.625 C 985.042969 437.019531 949.648438 416.132812 911.9375 394.082031 C 835.347656 349.40625 756.433594 302.988281 710.015625 324.457031 C 691.449219 333.160156 679.265625 352.308594 674.042969 382.480469 C 668.820312 410.332031 658.378906 427.738281 641.550781 435.28125 C 601.515625 454.425781 533.628906 416.132812 462.261719 376.097656 C 406.558594 345.925781 349.695312 314.011719 305.019531 309.371094 C 183.171875 296.605469 42.175781 372.617188 41.015625 373.195312 L 39.855469 372.035156 C 41.015625 371.453125 182.59375 294.867188 305.019531 307.628906 C 350.277344 312.273438 407.71875 344.765625 462.839844 375.515625 C 534.207031 415.550781 601.515625 453.265625 640.96875 434.699219 C 657.214844 427.15625 667.660156 410.332031 672.300781 383.058594 C 678.105469 351.726562 689.710938 332.578125 709.4375 323.296875 C 756.433594 301.246094 835.925781 347.664062 912.515625 392.921875 C 950.230469 414.972656 985.625 435.859375 1015.796875 447.464844 C 1127.199219 490.402344 1275.15625 404.527344 1276.898438 403.367188 L 1278.058594 405.109375 C 1276.898438 405.6875 1181.160156 460.808594 1085.421875 460.808594 Z M 1085.421875 460.808594 " fill-opacity="1" fill-rule="nonzero"/><path fill="#ffffff" d="M 1094.707031 471.835938 C 1068.597656 471.835938 1042.488281 467.773438 1018.117188 456.75 C 992.007812 445.144531 960.675781 426.578125 928.183594 406.847656 C 852.753906 361.589844 768.039062 311.113281 719.300781 333.160156 C 699.574219 341.863281 687.386719 361.589844 682.167969 392.921875 C 677.523438 420.195312 667.082031 437.019531 650.253906 444.5625 C 611.378906 463.128906 545.234375 425.414062 475.027344 385.960938 C 415.84375 352.886719 354.917969 318.074219 307.339844 316.332031 C 183.171875 310.53125 43.917969 384.800781 42.757812 385.378906 L 41.597656 383.640625 C 42.757812 383.058594 182.59375 308.789062 307.339844 314.59375 C 355.5 316.914062 416.421875 351.148438 475.605469 384.800781 C 545.234375 424.253906 611.378906 461.390625 649.09375 443.402344 C 664.757812 435.859375 675.203125 419.613281 679.84375 392.921875 C 685.648438 361.589844 698.414062 340.703125 718.140625 332 C 767.460938 309.371094 852.753906 361.011719 928.761719 406.269531 C 961.253906 425.996094 992.007812 443.984375 1018.695312 456.167969 C 1076.140625 481.699219 1143.445312 469.511719 1190.445312 455.007812 C 1240.921875 439.339844 1278.636719 416.710938 1279.21875 416.710938 L 1280.378906 418.453125 C 1279.796875 418.453125 1242.085938 441.082031 1191.605469 456.75 C 1163.753906 463.710938 1129.519531 471.835938 1094.707031 471.835938 Z M 1094.707031 471.835938 " fill-opacity="1" fill-rule="nonzero"/><path fill="#ffffff" d="M 1102.25 482.277344 C 1065.695312 482.277344 1038.425781 473.574219 1019.859375 464.292969 C 997.808594 453.265625 972.859375 437.601562 946.167969 420.773438 C 867.839844 372.617188 779.0625 317.492188 728.003906 340.703125 C 708.277344 349.40625 694.929688 370.292969 689.128906 402.207031 C 684.488281 428.898438 674.042969 445.144531 657.796875 452.6875 C 619.503906 470.671875 553.9375 433.539062 484.890625 394.664062 C 422.804688 359.851562 358.980469 323.875 309.660156 323.875 C 309.660156 323.875 309.082031 323.875 309.082031 323.875 C 183.171875 324.457031 45.078125 395.824219 43.917969 396.40625 L 42.757812 395.246094 C 43.917969 394.664062 182.59375 322.714844 309.082031 322.136719 C 309.082031 322.136719 309.660156 322.136719 309.660156 322.136719 C 359.5625 322.136719 423.964844 358.109375 486.050781 393.503906 C 555.097656 432.378906 620.082031 468.933594 657.796875 451.527344 C 673.464844 443.984375 683.328125 427.738281 687.96875 402.207031 C 693.769531 369.714844 707.117188 348.828125 727.425781 339.542969 C 779.644531 316.332031 868.417969 371.453125 947.328125 419.613281 C 974.019531 435.859375 998.96875 451.527344 1021.019531 463.128906 C 1051.769531 479.378906 1106.890625 492.722656 1191.605469 466.613281 C 1242.664062 450.945312 1280.378906 428.316406 1280.960938 427.738281 L 1282.121094 429.476562 C 1281.539062 429.476562 1243.824219 452.6875 1192.765625 468.351562 C 1156.789062 478.214844 1127.199219 482.277344 1102.25 482.277344 Z M 1102.25 482.277344 " fill-opacity="1" fill-rule="nonzero"/><path fill="#ffffff" d="M 1108.050781 492.722656 C 1068.597656 492.722656 1040.746094 482.277344 1021.597656 471.253906 C 1004.773438 461.390625 985.625 449.207031 965.316406 435.859375 C 888.144531 385.960938 791.25 324.457031 737.289062 348.246094 C 716.398438 357.53125 703.054688 378.417969 697.253906 411.492188 C 692.609375 437.601562 682.746094 453.847656 666.5 461.390625 C 628.785156 478.796875 564.378906 442.242188 495.914062 403.949219 C 433.25 368.554688 368.265625 332 316.625 332 C 314.882812 332 313.144531 332 311.402344 332 C 183.171875 337.222656 46.820312 407.429688 45.660156 408.007812 L 44.5 406.847656 C 45.660156 406.269531 182.59375 336.0625 311.402344 329.679688 C 364.203125 326.777344 431.507812 365.074219 496.496094 402.207031 C 564.378906 440.5 628.785156 477.054688 665.339844 459.648438 C 680.425781 452.6875 690.289062 436.441406 694.929688 410.910156 C 700.734375 377.257812 714.660156 355.789062 736.128906 346.503906 C 791.25 322.136719 888.144531 384.800781 965.898438 434.699219 C 986.203125 447.464844 1005.351562 460.230469 1022.179688 470.09375 C 1127.199219 531.597656 1279.796875 439.921875 1280.960938 438.761719 L 1282.121094 440.5 C 1281.539062 440.5 1243.246094 464.292969 1192.183594 479.957031 C 1160.273438 488.660156 1131.839844 492.722656 1108.050781 492.722656 Z M 1108.050781 492.722656 " fill-opacity="1" fill-rule="nonzero"/><path fill="#ffffff" d="M 1113.855469 503.746094 C 1072.078125 503.746094 1042.488281 491.5625 1023.339844 478.796875 C 1012.894531 471.835938 1001.289062 464.292969 989.105469 455.585938 C 911.355469 402.789062 804.59375 330.257812 745.992188 355.207031 C 724.523438 364.492188 710.015625 386.539062 704.214844 420.773438 C 699.574219 446.304688 689.710938 461.96875 674.625 469.511719 C 638.070312 486.917969 574.246094 450.367188 506.9375 412.070312 C 439.050781 373.195312 368.84375 333.160156 313.722656 338.382812 C 182.59375 351.148438 47.980469 419.035156 46.820312 419.613281 L 45.660156 418.453125 C 46.820312 417.875 182.011719 349.988281 313.144531 337.222656 C 368.265625 332 439.050781 372.035156 506.9375 410.910156 C 574.246094 449.207031 637.488281 485.179688 673.464844 468.351562 C 688.546875 461.390625 697.832031 445.722656 702.472656 420.773438 C 708.855469 385.960938 723.363281 363.332031 745.410156 354.046875 C 805.175781 329.097656 912.515625 401.625 990.265625 454.425781 C 1002.449219 462.550781 1014.054688 470.671875 1024.5 477.636719 C 1054.089844 496.785156 1107.472656 514.769531 1193.34375 489.820312 C 1244.40625 474.734375 1283.28125 450.945312 1283.859375 450.367188 L 1285.019531 452.105469 C 1284.441406 452.105469 1245.566406 476.476562 1194.503906 491.5625 C 1163.171875 500.265625 1136.484375 503.746094 1113.855469 503.746094 Z M 1113.855469 503.746094 " fill-opacity="1" fill-rule="nonzero"/><path fill="#ffffff" d="M 1119.65625 514.191406 C 1075.558594 514.191406 1045.386719 500.265625 1025.660156 485.757812 L 1018.117188 479.957031 C 939.785156 422.515625 821.421875 336.0625 755.855469 362.75 C 733.226562 372.035156 718.140625 394.664062 711.757812 430.058594 C 707.117188 455.007812 697.832031 470.671875 682.746094 477.636719 C 646.191406 494.460938 583.527344 458.488281 516.222656 420.195312 C 445.433594 379.578125 372.324219 337.800781 316.042969 345.925781 C 183.171875 364.492188 49.71875 430.636719 48.558594 431.21875 L 47.398438 430.058594 C 48.558594 429.476562 182.59375 363.332031 314.882812 344.765625 C 372.324219 336.640625 445.433594 378.996094 516.222656 419.035156 C 582.949219 457.328125 645.613281 493.300781 681.007812 476.476562 C 695.511719 469.511719 704.796875 454.425781 709.4375 430.058594 C 715.820312 394.082031 730.90625 370.875 754.695312 361.589844 C 820.839844 334.902344 940.367188 421.933594 1018.695312 479.378906 L 1026.238281 485.179688 C 1055.25 506.648438 1108.050781 526.375 1193.925781 501.425781 C 1244.984375 486.339844 1284.441406 461.96875 1285.019531 461.96875 L 1286.179688 463.710938 C 1285.601562 463.710938 1246.144531 488.660156 1194.503906 503.746094 C 1166.074219 510.710938 1141.125 514.191406 1119.65625 514.191406 Z M 1119.65625 514.191406 " fill-opacity="1" fill-rule="nonzero"/><path fill="#ffffff" d="M 1124.878906 525.214844 C 1078.460938 525.214844 1047.128906 509.546875 1027.402344 493.300781 C 993.746094 466.03125 943.269531 427.15625 892.789062 399.304688 C 837.085938 368.554688 794.148438 358.691406 764.558594 369.714844 C 740.1875 378.996094 724.523438 402.207031 718.140625 439.339844 C 713.5 463.710938 704.214844 479.378906 689.710938 486.339844 C 654.316406 502.585938 591.652344 466.613281 526.085938 428.898438 C 455.878906 388.28125 376.386719 342.445312 317.203125 353.46875 C 182.59375 378.417969 50.882812 442.242188 49.71875 442.824219 L 48.558594 441.664062 C 49.71875 441.082031 182.011719 376.675781 316.625 351.726562 C 376.386719 340.703125 455.878906 386.539062 526.664062 427.15625 C 592.230469 464.871094 654.316406 500.84375 688.546875 484.597656 C 703.054688 478.214844 711.757812 463.128906 716.398438 439.339844 C 723.363281 401.625 739.027344 377.257812 763.976562 367.972656 C 794.148438 356.949219 837.667969 366.8125 893.367188 397.566406 C 943.847656 425.417969 994.328125 464.871094 1027.980469 491.5625 C 1056.410156 514.769531 1108.632812 536.820312 1194.503906 512.449219 C 1246.144531 497.945312 1285.601562 472.996094 1285.601562 472.996094 L 1286.761719 474.734375 C 1286.179688 474.734375 1246.726562 499.683594 1195.085938 514.769531 C 1168.976562 522.3125 1145.765625 525.214844 1124.878906 525.214844 Z M 1124.878906 525.214844 " fill-opacity="1" fill-rule="nonzero"/><path fill="#ffffff" d="M 1129.519531 536.238281 C 1095.285156 536.238281 1059.3125 527.535156 1029.140625 500.84375 C 997.808594 472.996094 950.230469 434.121094 899.75 405.6875 C 846.371094 376.097656 804.59375 366.234375 775.003906 376.675781 C 749.472656 385.378906 732.644531 409.75 725.683594 448.625 C 721.621094 472.996094 712.339844 488.082031 697.832031 494.460938 C 663.019531 510.710938 600.933594 474.734375 535.949219 436.441406 C 462.261719 394.082031 379.867188 345.925781 318.945312 360.429688 C 182.011719 391.761719 52.042969 453.265625 50.882812 453.847656 L 50.300781 452.105469 C 51.460938 451.527344 182.011719 389.441406 318.945312 358.109375 C 380.449219 343.605469 463.421875 391.761719 535.949219 434.699219 C 600.933594 472.414062 662.4375 508.386719 696.671875 492.722656 C 710.597656 486.339844 719.300781 471.835938 723.941406 448.042969 C 730.90625 408.589844 747.730469 383.640625 774.421875 374.355469 C 804.59375 363.910156 847.53125 373.777344 900.910156 403.949219 C 951.390625 432.378906 999.550781 471.253906 1030.882812 499.105469 C 1081.363281 544.363281 1148.667969 537.980469 1196.246094 524.632812 C 1247.886719 510.128906 1287.921875 484.597656 1287.921875 484.597656 L 1289.082031 486.339844 C 1288.5 486.339844 1248.464844 511.871094 1196.828125 526.375 C 1176.519531 531.597656 1153.308594 536.238281 1129.519531 536.238281 Z M 1129.519531 536.238281 " fill-opacity="1" fill-rule="nonzero"/><path fill="#ffffff" d="M 1134.160156 546.683594 C 1098.769531 546.683594 1062.214844 537.398438 1031.460938 507.808594 C 958.355469 437.019531 849.851562 362.171875 784.867188 383.058594 C 757.59375 391.761719 740.1875 416.710938 732.644531 457.910156 C 728.585938 481.699219 719.300781 496.203125 704.796875 503.167969 C 669.980469 518.832031 611.960938 484.597656 544.074219 445.144531 C 469.222656 401.046875 383.929688 351.148438 320.6875 367.972656 C 182.59375 405.109375 53.78125 464.871094 52.621094 465.453125 L 52.042969 463.710938 C 52.621094 463.710938 182.011719 403.367188 320.6875 366.234375 C 384.511719 348.828125 469.804688 399.304688 545.234375 443.402344 C 609.636719 481.117188 670.5625 517.089844 704.214844 501.425781 C 718.140625 495.042969 726.84375 480.539062 730.90625 457.328125 C 738.449219 416.132812 756.433594 390.601562 784.285156 381.320312 C 849.851562 359.851562 958.933594 435.28125 1032.621094 506.066406 C 1082.523438 554.226562 1149.246094 548.425781 1196.828125 535.660156 C 1248.464844 521.734375 1288.503906 495.625 1289.082031 495.625 L 1290.242188 497.363281 C 1289.664062 497.363281 1249.625 523.472656 1197.40625 537.980469 C 1178.839844 542.621094 1156.789062 546.683594 1134.160156 546.683594 Z M 1134.160156 546.683594 " fill-opacity="1" fill-rule="nonzero"/><path fill="#ffffff" d="M 1138.222656 558.867188 C 1102.25 558.867188 1063.953125 548.421875 1033.203125 515.929688 C 997.230469 477.636719 953.710938 442.242188 913.675781 419.035156 C 866.097656 391.183594 824.902344 381.320312 795.308594 390.601562 C 766.300781 399.304688 747.730469 425.414062 740.1875 467.773438 C 736.128906 490.980469 727.425781 505.488281 712.917969 511.871094 C 678.683594 527.535156 620.664062 493.300781 553.9375 453.265625 C 476.1875 406.847656 388.570312 355.207031 323.007812 375.515625 C 182.011719 419.035156 54.941406 476.476562 53.78125 477.054688 L 52.621094 475.894531 C 53.78125 475.316406 181.433594 417.292969 322.425781 373.777344 C 388.570312 353.46875 476.1875 405.6875 553.9375 451.527344 C 617.761719 489.242188 678.105469 525.214844 711.757812 510.128906 C 725.101562 503.746094 733.804688 489.820312 737.867188 467.191406 C 745.410156 423.675781 764.558594 396.984375 794.148438 388.28125 C 859.136719 369.132812 964.15625 439.921875 1034.363281 514.191406 C 1083.101562 565.832031 1149.828125 561.1875 1197.40625 548.425781 C 1249.046875 534.5 1289.664062 507.808594 1290.242188 507.808594 L 1291.402344 508.96875 C 1290.824219 508.96875 1250.207031 535.660156 1197.988281 550.164062 C 1180 554.804688 1159.691406 558.867188 1138.222656 558.867188 Z M 1138.222656 558.867188 " fill-opacity="1" fill-rule="nonzero"/><path fill="#ffffff" d="M 1142.285156 569.890625 C 1105.730469 569.890625 1066.277344 558.867188 1034.945312 522.894531 C 968.796875 446.882812 868.417969 378.996094 804.59375 396.40625 C 774.421875 404.527344 754.695312 431.796875 746.570312 476.476562 C 742.511719 499.683594 733.804688 513.609375 719.882812 519.992188 C 686.226562 535.078125 628.785156 500.84375 562.058594 460.808594 C 483.148438 413.230469 392.632812 359.269531 325.328125 383.058594 C 182.011719 432.957031 56.683594 488.660156 55.523438 488.660156 L 54.941406 486.917969 C 56.101562 486.339844 182.011719 430.636719 325.328125 380.738281 C 393.214844 356.949219 484.308594 411.492188 564.378906 459.070312 C 630.527344 498.523438 687.386719 532.757812 720.460938 518.253906 C 733.804688 512.449219 741.929688 498.523438 745.992188 475.894531 C 754.113281 430.636719 773.84375 403.367188 805.175781 394.664062 C 869.578125 376.675781 970.539062 445.144531 1037.265625 521.152344 C 1084.84375 575.695312 1151.570312 572.214844 1199.148438 560.027344 C 1250.789062 546.101562 1291.984375 519.414062 1292.5625 518.832031 L 1293.722656 519.992188 C 1293.144531 519.992188 1251.949219 547.261719 1200.308594 561.1875 C 1182.320312 566.410156 1162.59375 569.890625 1142.285156 569.890625 Z M 1142.285156 569.890625 " fill-opacity="1" fill-rule="nonzero"/><path fill="#ffffff" d="M 1146.347656 580.335938 C 1108.632812 580.335938 1068.597656 568.152344 1037.265625 529.277344 C 1005.933594 490.402344 965.898438 454.425781 927.023438 431.21875 C 884.085938 405.109375 845.210938 395.246094 815.617188 402.789062 C 783.707031 410.910156 762.816406 438.761719 754.113281 485.757812 C 750.050781 508.386719 741.347656 522.3125 727.425781 528.695312 C 693.769531 543.78125 636.910156 508.96875 570.183594 468.933594 C 488.371094 419.613281 395.535156 363.332031 325.90625 390.023438 C 181.433594 446.304688 56.683594 500.265625 55.523438 500.84375 L 54.941406 499.105469 C 56.101562 498.523438 180.851562 444.5625 325.328125 388.28125 C 394.953125 361.011719 488.371094 417.292969 570.761719 467.191406 C 636.910156 507.226562 693.769531 541.460938 726.261719 526.957031 C 739.609375 521.152344 747.730469 507.226562 751.792969 485.179688 C 760.496094 437.601562 781.386719 409.167969 814.457031 401.046875 C 844.628906 393.503906 883.503906 403.367188 927.023438 430.058594 C 965.898438 453.847656 1005.933594 489.820312 1037.84375 528.695312 C 1084.261719 586.71875 1150.988281 583.816406 1198.566406 571.632812 C 1250.207031 558.289062 1291.984375 531.015625 1292.5625 530.4375 L 1293.722656 531.597656 C 1293.144531 531.597656 1251.949219 559.449219 1199.726562 572.792969 C 1183.480469 576.855469 1165.496094 580.335938 1146.347656 580.335938 Z M 1146.347656 580.335938 " fill-opacity="1" fill-rule="nonzero"/><path fill="#ffffff" d="M 1149.828125 591.941406 C 1111.535156 591.941406 1070.335938 579.175781 1039.003906 537.398438 C 1009.414062 497.363281 971.699219 461.96875 933.984375 438.179688 C 893.367188 412.652344 855.652344 402.789062 826.0625 409.75 C 792.410156 417.875 770.941406 446.304688 761.65625 495.042969 C 757.59375 517.089844 748.890625 531.015625 735.546875 536.820312 C 703.054688 551.90625 646.191406 517.089844 580.625 477.054688 C 496.496094 425.414062 400.757812 366.8125 329.390625 397.566406 C 182.011719 459.648438 59.585938 511.871094 57.84375 511.871094 L 57.261719 510.128906 C 58.425781 509.546875 181.433594 457.910156 328.230469 395.246094 C 400.175781 364.492188 496.496094 423.09375 581.207031 475.316406 C 646.773438 515.351562 703.054688 549.585938 734.96875 535.660156 C 747.730469 529.855469 755.855469 516.511719 759.917969 495.042969 C 769.199219 445.722656 791.25 416.132812 825.480469 408.007812 C 855.652344 401.046875 893.367188 410.910156 934.566406 436.441406 C 972.859375 460.230469 1010.574219 495.625 1040.164062 535.660156 C 1085.421875 596.582031 1152.148438 595.421875 1199.726562 583.238281 C 1251.949219 569.890625 1293.722656 542.042969 1294.304688 542.042969 L 1295.464844 543.203125 C 1294.882812 543.203125 1253.109375 571.632812 1200.886719 584.976562 C 1185.222656 589.621094 1167.816406 591.941406 1149.828125 591.941406 Z M 1149.828125 591.941406 " fill-opacity="1" fill-rule="nonzero"/><path fill="#ffffff" d="M 1152.730469 602.964844 C 1113.855469 602.964844 1071.496094 589.621094 1040.164062 544.363281 C 1012.316406 503.746094 976.339844 468.351562 939.785156 444.5625 C 901.492188 420.195312 864.355469 409.75 835.347656 416.132812 C 800.53125 423.675781 777.324219 453.847656 768.621094 504.328125 C 764.558594 526.375 756.433594 539.71875 743.089844 545.523438 C 710.597656 560.027344 653.734375 525.214844 588.167969 484.597656 C 502.296875 431.796875 403.65625 371.453125 331.128906 404.527344 C 182.011719 472.996094 60.746094 523.472656 59.003906 524.054688 L 58.425781 522.3125 C 59.585938 521.734375 181.433594 471.835938 329.96875 403.367188 C 403.65625 369.132812 502.296875 430.058594 589.332031 484.019531 C 654.316406 524.054688 710.597656 558.867188 742.511719 544.941406 C 755.273438 539.140625 763.398438 526.375 766.878906 504.90625 C 776.164062 453.847656 799.371094 423.09375 834.765625 415.550781 C 864.355469 409.167969 901.492188 419.613281 940.367188 443.984375 C 977.5 467.773438 1013.476562 503.167969 1041.324219 544.363281 C 1065.695312 579.757812 1113.273438 617.46875 1200.308594 596.003906 C 1252.527344 583.238281 1294.304688 554.804688 1294.882812 554.226562 L 1296.046875 555.386719 C 1295.464844 555.386719 1253.109375 584.398438 1200.886719 597.164062 C 1186.382812 600.644531 1170.136719 602.964844 1152.730469 602.964844 Z M 1152.730469 602.964844 " fill-opacity="1" fill-rule="nonzero"/><path fill="#ffffff" d="M 1155.050781 615.148438 C 1145.765625 615.148438 1135.902344 614.570312 1126.039062 612.25 C 1091.226562 605.285156 1062.792969 584.976562 1041.90625 551.90625 C 986.203125 465.453125 903.8125 410.910156 844.628906 423.09375 C 808.65625 430.058594 784.285156 461.96875 775.003906 514.191406 C 770.941406 535.660156 762.816406 549.003906 750.050781 554.804688 C 718.140625 568.730469 661.859375 533.917969 596.875 493.300781 C 508.097656 437.601562 407.140625 374.9375 332.289062 412.070312 C 181.433594 486.921875 61.324219 534.5 60.164062 535.078125 L 59.585938 533.339844 C 60.746094 532.757812 180.851562 485.179688 331.710938 410.332031 C 407.71875 372.617188 508.679688 435.859375 598.035156 491.5625 C 662.4375 532.175781 718.71875 566.992188 750.050781 553.066406 C 762.238281 547.84375 770.359375 534.5 773.84375 513.609375 C 783.125 460.808594 808.074219 428.316406 844.628906 421.355469 C 903.8125 409.75 987.363281 464.292969 1043.648438 551.324219 C 1064.535156 583.816406 1092.386719 603.546875 1126.621094 610.507812 C 1168.394531 619.210938 1212.492188 606.445312 1242.085938 594.261719 C 1273.996094 580.917969 1296.625 565.832031 1296.625 565.832031 L 1297.785156 566.992188 C 1297.785156 566.992188 1275.15625 582.65625 1242.664062 596.003906 C 1219.457031 605.285156 1187.542969 615.148438 1155.050781 615.148438 Z M 1155.050781 615.148438 " fill-opacity="1" fill-rule="nonzero"/><path fill="#ffffff" d="M 1158.53125 626.753906 C 1148.667969 626.753906 1138.222656 625.59375 1128.359375 623.851562 C 1093.546875 616.308594 1065.117188 594.84375 1044.808594 560.027344 C 993.746094 474.15625 914.257812 419.035156 856.234375 429.476562 C 818.519531 436.441406 793.570312 468.933594 783.707031 523.472656 C 779.644531 544.941406 772.101562 557.707031 759.335938 563.507812 C 727.425781 577.433594 671.722656 542.042969 607.316406 501.425781 C 515.640625 443.984375 412.363281 378.996094 335.191406 419.613281 C 182.011719 500.265625 63.644531 546.101562 62.484375 546.683594 L 61.90625 544.941406 C 63.066406 544.363281 181.433594 498.523438 334.609375 417.871094 C 412.941406 376.675781 516.222656 442.242188 607.898438 499.683594 C 672.300781 540.300781 727.425781 575.113281 758.757812 561.769531 C 770.941406 556.546875 778.484375 543.78125 782.546875 522.894531 C 789.507812 484.019531 808.074219 436.441406 856.8125 427.15625 C 915.996094 416.710938 996.070312 471.832031 1047.128906 558.289062 C 1067.4375 592.519531 1095.285156 613.410156 1129.519531 620.953125 C 1170.714844 630.234375 1214.8125 617.46875 1244.40625 605.285156 C 1276.316406 591.941406 1298.945312 576.855469 1298.945312 576.273438 L 1300.105469 577.433594 C 1298.367188 579.175781 1229.320312 626.753906 1158.53125 626.753906 Z M 1158.53125 626.753906 " fill-opacity="1" fill-rule="nonzero"/><path fill="#ffffff" d="M 1160.851562 637.199219 C 1150.410156 637.199219 1139.964844 636.039062 1130.101562 633.71875 C 1094.707031 625.59375 1066.277344 602.964844 1045.96875 566.410156 C 997.808594 479.378906 923.539062 425.996094 864.9375 435.28125 C 815.617188 443.402344 797.050781 492.722656 790.089844 532.175781 C 786.605469 553.066406 778.484375 565.832031 765.71875 571.632812 C 734.386719 585.558594 678.683594 550.164062 614.859375 508.96875 C 570.183594 480.539062 519.703125 448.042969 471.542969 429.476562 C 415.84375 408.007812 371.746094 406.847656 336.933594 426.578125 C 182.011719 514.191406 64.226562 558.289062 63.066406 558.867188 L 62.484375 557.128906 C 63.644531 556.546875 180.851562 512.449219 335.773438 425.414062 C 371.746094 405.109375 415.84375 406.269531 472.125 427.738281 C 520.863281 446.882812 571.34375 478.796875 616.019531 507.808594 C 679.84375 548.425781 734.96875 583.816406 765.71875 570.472656 C 777.902344 565.25 785.445312 552.484375 788.929688 532.175781 C 799.371094 475.316406 826.0625 440.5 865.519531 433.539062 C 924.699219 423.675781 999.550781 477.636719 1048.289062 565.25 C 1068.597656 601.222656 1096.449219 623.851562 1131.261719 631.976562 C 1172.457031 641.261719 1215.972656 629.074219 1245.566406 616.890625 C 1277.476562 603.546875 1300.105469 587.878906 1300.105469 587.878906 L 1301.265625 589.039062 C 1299.527344 589.621094 1231.058594 637.199219 1160.851562 637.199219 Z M 1160.851562 637.199219 " fill-opacity="1" fill-rule="nonzero"/><path fill="#ffffff" d="M 1164.332031 649.382812 C 1153.890625 649.382812 1142.867188 648.222656 1132.421875 645.902344 C 1096.449219 637.199219 1068.597656 613.410156 1048.289062 574.535156 C 1003.613281 488.082031 932.242188 433.539062 875.382812 442.242188 C 835.925781 448.042969 808.074219 484.019531 797.632812 542.042969 C 794.148438 562.929688 786.027344 575.113281 773.84375 580.917969 C 742.511719 594.261719 687.386719 558.867188 623.5625 517.089844 C 533.046875 458.488281 420.484375 385.960938 339.253906 434.121094 C 182.011719 527.535156 66.546875 569.3125 65.386719 569.890625 L 64.226562 568.730469 C 65.386719 568.152344 180.851562 526.375 338.09375 432.957031 C 419.90625 384.21875 533.628906 457.328125 624.144531 515.929688 C 687.96875 557.128906 742.511719 592.519531 772.679688 579.175781 C 784.285156 573.953125 791.828125 561.769531 795.308594 541.460938 C 805.753906 482.277344 834.183594 446.304688 874.222656 439.921875 C 932.242188 431.21875 1004.191406 485.757812 1048.867188 572.792969 C 1068.597656 611.089844 1096.449219 634.878906 1131.839844 643.582031 C 1172.457031 653.445312 1215.972656 641.261719 1245.566406 629.074219 C 1277.476562 615.730469 1300.105469 600.0625 1300.105469 600.0625 L 1301.265625 601.222656 C 1301.265625 602.386719 1233.960938 649.382812 1164.332031 649.382812 Z M 1164.332031 649.382812 " fill-opacity="1" fill-rule="nonzero"/><path fill="#ffffff" d="M 1167.234375 660.988281 C 1156.210938 660.988281 1145.1875 659.828125 1134.742188 656.925781 C 1098.769531 647.640625 1070.335938 622.113281 1050.609375 581.496094 C 1008.253906 493.882812 941.527344 440.5 885.246094 448.042969 C 844.628906 453.847656 816.199219 490.402344 805.175781 551.324219 C 801.691406 571.632812 793.570312 584.398438 781.386719 589.621094 C 750.632812 602.964844 695.511719 566.992188 631.6875 525.214844 C 538.851562 465.453125 423.964844 390.023438 340.992188 441.664062 C 213.34375 521.734375 105.421875 568.152344 66.546875 581.496094 L 65.96875 579.757812 C 104.84375 566.410156 212.765625 519.992188 340.414062 439.921875 C 424.546875 387.703125 540.011719 463.128906 632.847656 523.472656 C 696.089844 564.671875 750.632812 600.644531 780.804688 587.300781 C 792.410156 582.078125 799.953125 570.472656 803.433594 550.164062 C 818.519531 467.191406 860.875 449.207031 884.664062 445.722656 C 942.105469 437.601562 1009.414062 491.5625 1052.351562 580.335938 C 1072.078125 620.371094 1099.929688 645.902344 1135.324219 654.605469 C 1175.9375 665.050781 1218.875 652.863281 1248.464844 640.679688 C 1280.378906 627.335938 1302.425781 611.667969 1303.007812 611.667969 L 1304.167969 612.828125 C 1302.425781 613.988281 1235.703125 660.988281 1167.234375 660.988281 Z M 1167.234375 660.988281 " fill-opacity="1" fill-rule="nonzero"/><path fill="#ffffff" d="M 1170.136719 671.429688 C 1159.113281 671.429688 1148.085938 670.269531 1137.0625 667.371094 C 1100.507812 657.507812 1072.078125 630.816406 1052.929688 587.878906 C 1013.476562 500.84375 949.648438 446.882812 894.527344 453.847656 C 853.332031 459.070312 823.742188 497.945312 812.136719 560.027344 C 808.65625 580.335938 801.113281 592.519531 788.929688 597.742188 C 758.175781 611.089844 703.632812 574.535156 639.808594 532.757812 C 545.234375 470.671875 428.027344 393.503906 343.316406 448.625 C 214.503906 533.339844 106.582031 579.757812 68.289062 592.519531 L 67.707031 590.78125 C 106.582031 578.015625 213.925781 531.597656 342.734375 446.882812 C 428.609375 390.601562 546.394531 468.351562 641.550781 531.015625 C 704.796875 572.792969 759.335938 608.765625 788.929688 596.003906 C 800.53125 590.78125 807.496094 579.175781 810.976562 559.449219 C 822 496.203125 852.753906 457.328125 894.527344 452.105469 C 921.21875 448.625 950.230469 459.070312 978.660156 482.277344 C 1008.253906 506.066406 1034.363281 542.621094 1054.671875 587.300781 C 1073.820312 629.65625 1101.667969 655.765625 1137.644531 665.628906 C 1214.8125 686.515625 1303.589844 623.273438 1304.75 622.691406 L 1305.910156 623.851562 C 1304.167969 624.433594 1238.023438 671.429688 1170.136719 671.429688 Z M 1170.136719 671.429688 " fill-opacity="1" fill-rule="nonzero"/><path fill="#ffffff" d="M 1173.039062 683.617188 C 1161.433594 683.617188 1150.410156 682.457031 1139.382812 678.972656 C 1102.828125 668.53125 1074.398438 640.679688 1055.25 596.003906 C 1017.535156 507.226562 958.355469 454.425781 904.394531 460.230469 C 862.617188 464.871094 831.863281 504.90625 820.261719 569.890625 C 816.777344 589.621094 809.234375 601.804688 797.050781 607.027344 C 766.878906 619.792969 711.757812 583.238281 648.511719 540.878906 C 551.617188 477.054688 431.507812 396.984375 345.054688 456.167969 C 213.925781 546.101562 107.164062 592.519531 68.867188 604.707031 L 68.289062 602.964844 C 106.582031 590.78125 212.765625 544.363281 343.894531 455.007812 C 431.507812 394.664062 552.195312 475.316406 649.09375 539.71875 C 712.339844 581.496094 766.300781 618.050781 795.890625 605.285156 C 807.496094 600.644531 814.457031 589.039062 817.9375 569.3125 C 829.542969 503.746094 860.875 463.128906 903.8125 458.488281 C 958.933594 452.105469 1018.699219 506.066406 1056.410156 595.421875 C 1074.980469 639.519531 1102.828125 667.371094 1139.382812 677.234375 C 1215.972656 698.703125 1305.328125 634.878906 1305.910156 634.296875 L 1307.070312 635.457031 C 1305.910156 636.617188 1240.34375 683.617188 1173.039062 683.617188 Z M 1173.039062 683.617188 " fill-opacity="1" fill-rule="nonzero"/><path fill="#ffffff" d="M 1174.777344 694.640625 C 1163.171875 694.640625 1151.570312 693.480469 1140.542969 690 C 1103.410156 678.972656 1074.980469 649.964844 1056.410156 602.964844 C 1038.425781 557.707031 1015.214844 520.574219 988.527344 496.785156 C 964.15625 474.15625 938.046875 463.710938 913.097656 466.613281 C 870.738281 470.671875 839.40625 511.871094 827.222656 579.175781 C 823.742188 598.902344 816.199219 610.507812 804.59375 615.730469 C 774.421875 628.496094 719.882812 591.941406 656.636719 549.003906 C 558 482.859375 435.570312 400.464844 346.796875 463.710938 C 180.851562 581.496094 71.1875 615.730469 70.027344 616.308594 L 69.449219 614.570312 C 70.609375 613.988281 179.691406 580.335938 345.636719 462.550781 C 435.570312 398.726562 558.578125 481.117188 657.214844 547.84375 C 719.882812 590.199219 774.421875 626.753906 803.433594 614.570312 C 814.457031 609.925781 821.421875 598.324219 824.902344 579.175781 C 842.308594 482.277344 891.628906 467.191406 912.515625 464.871094 C 937.464844 462.550781 964.15625 472.996094 989.105469 495.625 C 1015.796875 519.992188 1039.585938 556.546875 1057.574219 602.382812 C 1076.140625 648.804688 1103.992188 677.8125 1140.542969 688.257812 C 1216.554688 710.308594 1305.328125 645.902344 1306.488281 645.320312 L 1307.648438 646.480469 C 1306.488281 647.640625 1241.503906 694.640625 1174.777344 694.640625 Z M 1174.777344 694.640625 " fill-opacity="1" fill-rule="nonzero"/><g clip-path="url(#3e6681d80c)"><path fill="#ffffff" d="M 1177.679688 706.824219 C 1166.074219 706.824219 1154.46875 705.085938 1142.867188 702.183594 C 1105.152344 690.578125 1076.71875 660.40625 1058.734375 611.089844 C 1025.660156 521.152344 972.859375 468.351562 921.800781 472.996094 C 879.441406 477.054688 846.949219 519.992188 834.765625 589.039062 C 831.285156 608.1875 823.742188 620.371094 812.71875 625.011719 C 783.125 637.777344 728.585938 600.644531 665.339844 557.707031 C 564.378906 488.660156 439.632812 403.367188 349.117188 470.671875 C 181.433594 595.421875 72.929688 627.335938 72.347656 627.335938 L 71.769531 625.59375 C 72.929688 625.011719 180.851562 593.679688 348.535156 468.933594 C 440.210938 401.046875 565.542969 486.339844 666.5 555.386719 C 729.164062 598.324219 783.125 634.878906 812.136719 622.691406 C 823.160156 618.050781 830.125 607.027344 833.605469 587.878906 C 845.789062 518.253906 879.441406 474.734375 922.378906 470.671875 C 974.601562 466.03125 1027.402344 519.414062 1061.054688 609.925781 C 1079.039062 658.667969 1106.890625 688.839844 1144.027344 699.863281 C 1219.457031 722.492188 1308.230469 658.085938 1309.390625 657.507812 L 1310.550781 658.667969 C 1308.230469 659.828125 1243.824219 706.824219 1177.679688 706.824219 Z M 1177.679688 706.824219 " fill-opacity="1" fill-rule="nonzero"/></g><g clip-path="url(#00c50fd187)"><path fill="#ffffff" d="M 1180 718.429688 C 1168.394531 718.429688 1156.210938 716.6875 1144.605469 713.207031 C 1106.3125 701.601562 1077.878906 669.691406 1059.894531 618.050781 C 1029.722656 531.015625 982.144531 478.214844 934.5625 478.214844 C 932.824219 478.214844 931.082031 478.214844 929.34375 478.214844 C 886.984375 481.699219 853.914062 526.375 841.148438 597.164062 C 837.667969 616.308594 830.703125 627.914062 819.097656 632.554688 C 789.507812 644.742188 735.546875 607.605469 672.882812 564.089844 C 570.761719 494.460938 443.113281 406.847656 350.859375 478.214844 C 180.851562 609.347656 74.089844 638.9375 72.929688 638.9375 L 72.347656 637.199219 C 73.507812 637.199219 179.691406 607.027344 349.117188 476.476562 C 442.53125 404.527344 570.761719 492.722656 673.464844 562.929688 C 735.546875 605.867188 789.507812 643 818.519531 630.816406 C 829.542969 626.175781 835.925781 615.148438 839.40625 596.582031 C 852.171875 524.632812 885.824219 479.378906 929.34375 475.894531 C 953.132812 474.15625 977.5 485.179688 999.550781 507.808594 C 1023.917969 532.175781 1045.386719 569.890625 1061.632812 616.890625 C 1079.039062 667.371094 1107.472656 699.28125 1145.1875 710.886719 C 1220.035156 734.097656 1309.390625 669.109375 1309.96875 668.53125 L 1311.128906 669.691406 C 1309.96875 671.429688 1245.566406 718.429688 1180 718.429688 Z M 1180 718.429688 " fill-opacity="1" fill-rule="nonzero"/></g></g></g></g></g><g clip-path="url(#a99817be67)"><path fill="#1a2056" d="M 296.566406 189.199219 L 296.566406 189.113281 C 306.527344 189.113281 307.253906 188.28125 307.253906 183.621094 L 307.417969 183.621094 C 307.417969 188.28125 308.144531 189.113281 318.105469 189.113281 L 318.105469 189.199219 C 308.144531 189.199219 307.417969 190.027344 307.417969 194.6875 L 307.253906 194.6875 C 307.253906 190.027344 306.527344 189.199219 296.566406 189.199219 " fill-opacity="1" fill-rule="evenodd"/></g></svg>